<?xml version="1.0" standalone="no"?>
<!DOCTYPE svg PUBLIC "-//W3C//DTD SVG 1.1//EN" "http://www.w3.org/Graphics/SVG/1.1/DTD/svg11.dtd" >
<svg>
<metadata>
Created by FontForge 20090914 at Mon Oct 30 18:52:57 2017
 By www-data
Copyright 2016 The Dancing Script Project Authors (impallari@gmail.com), with Reserved Font Name 'Dancing Script&#226;&#128;&#153;.
</metadata>
<defs>
<font id="DancingScript-Regular" horiz-adv-x="0" >
  <font-face 
    font-family="Dancing Script"
    font-weight="400"
    font-stretch="normal"
    units-per-em="1000"
    panose-1="3 8 6 0 4 5 7 0 13 0"
    ascent="800"
    descent="-200"
    x-height="298.001"
    cap-height="718"
    bbox="-239.002 -284.002 1298 1095"
    underline-thickness="50"
    underline-position="-50"
    unicode-range="U+000D-U+FB02"
  />
<missing-glyph horiz-adv-x="428" 
d="M0 0v720h428v-720h-428zM80 70h268v580h-268v-580z" />
    <glyph glyph-name="fi" unicode="fi" horiz-adv-x="555" 
d="M-51 -260.5c-11.333 13 -17 35.833 -17 68.5c0 70 25 180.167 75 330.5s108.5 284.833 175.5 403.5s126.167 178 177.5 178c12.667 0 21.5 -3.83301 26.5 -11.5s7.5 -18.167 7.5 -31.5c0 -36.667 -13 -78.334 -39 -125.001s-59.667 -92.334 -101 -137.001
s-83.666 -82.334 -126.999 -113.001c-7.33301 -16.667 -13 -31.334 -17 -44.001c10.667 -4 18.334 -12.333 23.001 -25c17.333 -56.667 47.333 -85 90 -85c20 0 41 6 63 18s42.667 27.667 62 47c15.333 36.667 32.166 66.834 50.499 90.501s36.166 35.5 53.499 35.5
c6 0 11.167 -2 15.5 -6s6.5 -9.33301 6.5 -16c0 -9.33301 -10.667 -31.666 -32 -66.999c-22 -36.667 -39.5 -69.5 -52.5 -98.5s-19.5 -56.5 -19.5 -82.5c0 -23.333 3.83301 -39.166 11.5 -47.499s20.167 -12.5 37.5 -12.5c52 0 103.333 51 154 153l9 -10
c-18.667 -56 -46.167 -99.667 -82.5 -131s-74.5 -47 -114.5 -47c-24.667 0 -43.667 7.83301 -57 23.5s-20 35.834 -20 60.501c0 29.333 8 67.333 24 114c-19.333 -16 -39.833 -28.333 -61.5 -37s-43.167 -13 -64.5 -13c-22.667 0 -45.667 5.33301 -69 16
c2.66699 -18.667 4 -40 4 -64c0 -55.333 -7.5 -110.5 -22.5 -165.5s-34.5 -100.167 -58.5 -135.5s-48.333 -53 -73 -53c-14 0 -26.667 6.5 -38 19.5zM252.5 460c32.333 40.667 57.5 77.167 75.5 109.5s27 55.5 27 69.5c0 9.33301 -4.66699 14 -14 14
c-24.667 0 -54.667 -28.833 -90 -86.5s-71.333 -132.167 -108 -223.5c40.667 37.333 77.167 76.333 109.5 117zM475.5 440.5c-7.66699 5.66699 -11.5 13.834 -11.5 24.501c0 13.333 8 25.333 24 36s32.333 16 49 16c22 0 33 -10.333 33 -31
c0 -12.667 -6.83301 -24.834 -20.5 -36.501s-28.5 -17.5 -44.5 -17.5c-12 0 -21.833 2.83301 -29.5 8.5zM56 -181.5c16 33.667 29.832 74.833 41.499 123.5s17.5 93.667 17.5 135c0 25.333 -1.66699 47.5 -5 66.5s-11.666 33.833 -24.999 44.5
c-27.333 -78.667 -49.333 -151.834 -66 -219.501s-25 -118.5 -25 -152.5c0 -15.333 1.66699 -27.166 5 -35.499s8 -12.5 14 -12.5c12.667 0 27 16.833 43 50.5z" />
    <glyph glyph-name="fl" unicode="fl" horiz-adv-x="549" 
d="M-51 -260.5c-11.333 13 -16.9971 35.8379 -16.9971 68.5049c0 70 25 180.167 75 330.5s108.5 284.833 175.5 403.5s126.167 178 177.5 178c12.667 0 21.5 -3.83301 26.5 -11.5s7.5 -18.167 7.5 -31.5c0 -36.667 -13 -78.334 -39 -125.001s-59.667 -92.334 -101 -137.001
s-83.666 -82.334 -126.999 -113.001c-7.33301 -16.667 -13 -31.334 -17 -44.001c6 -2 11 -5.83301 15 -11.5s6.66699 -12.167 8 -19.5c4 -35.333 14.333 -61 31 -77s37 -24 61 -24c30.667 0 64.667 11 102 33c15.333 68.667 43.166 147.334 83.499 236.001
s81.666 165 123.999 229s73.166 96 92.499 96c9.33301 0 17.166 -8.16699 23.499 -24.5s9.5 -32.833 9.5 -49.5c0 -30.667 -12.5 -75.834 -37.5 -135.501s-57.833 -120.167 -98.5 -181.5s-84 -111 -130 -149c-8.66699 -38.667 -13 -72.334 -13 -101.001
c0 -51.333 14.667 -77 44 -77c24.667 0 49.667 15.5 75 46.5s48 68.833 68 113.5l16 -8c-57.333 -122.667 -120 -184 -188 -184c-27.333 0 -47.5 9.33301 -60.5 28s-19.5 43.667 -19.5 75c0 18 2 38 6 60c-37.333 -20.667 -74.333 -31 -111 -31
c-25.333 0 -49.333 6.33301 -72 19c1.33301 -21.333 2 -37 2 -47c0 -55.333 -7.5 -110.5 -22.5 -165.5s-34.5 -100.167 -58.5 -135.5s-48.333 -53 -73 -53c-14 0 -26.667 6.5 -38 19.5zM252.503 460.005c32.333 40.667 57.5 77.167 75.5 109.5s27 55.5 27 69.5
c0 9.33301 -4.66699 14 -14 14c-24.667 0 -54.667 -28.833 -90 -86.5s-71.333 -132.167 -108 -223.5c40.667 37.333 77.167 76.333 109.5 117zM510.503 352.505c35 55.667 63.5 108.999 85.5 159.999s33 87.833 33 110.5c0 10.667 -2.33301 16 -7 16
c-9.33301 0 -28.5 -22.833 -57.5 -68.5s-58.833 -101.5 -89.5 -167.5s-54.667 -129 -72 -189c36.667 36.667 72.5 82.834 107.5 138.501zM56.0029 -181.496c16 33.667 29.834 74.5 41.501 122.5s17.5 91.667 17.5 131c0 52.667 -10.333 90 -31 112
c-26.667 -78.667 -48.334 -151.334 -65.001 -218.001s-25 -116.667 -25 -150c0 -15.333 1.66699 -27.166 5 -35.499s8 -12.5 14 -12.5c12.667 0 27 16.833 43 50.5z" />
    <glyph glyph-name="b_r" unicode="br" horiz-adv-x="742" 
d="M16 -39.5c-17.333 22.333 -26.001 53.1621 -26.001 92.4951c0 63.333 20 148 60 254s85.167 200.333 135.5 283s88.833 124 115.5 124c10 0 17.833 -6.5 23.5 -19.5s8.5 -27.5 8.5 -43.5c0 -31.333 -11 -73 -33 -125s-50.667 -102 -86 -150
s-71.666 -83.333 -108.999 -106c-8.66699 -16 -18.834 -46 -30.501 -90s-17.5 -84.333 -17.5 -121c0 -62.667 18.333 -94 55 -94c19.333 0 39.333 7.83301 60 23.5s37.334 35.834 50.001 60.501c-23.333 12 -41.333 29.833 -54 53.5s-19 48.834 -19 75.501
c0 31.333 8.16699 56.833 24.5 76.5s36.166 29.5 59.499 29.5c19.333 0 34.666 -8 45.999 -24s17 -38.667 17 -68c0 -44.667 -11 -89 -33 -133c4.66699 -1.33301 11.667 -2 21 -2c32.667 0 61.5 14 86.5 42s45 59.333 60 94s30.5 76 46.5 124
c-6.66699 6.66699 -10 15.334 -10 26.001s2.5 21.167 7.5 31.5s11 18.666 18 24.999s13.167 9.5 18.5 9.5c4.66699 0 7.83398 -2.66699 9.50098 -8s2.5 -10.333 2.5 -15c0 -4 -1.83301 -10.833 -5.5 -20.5s-5.5 -16.167 -5.5 -19.5c0 -5.33301 2.83301 -10.666 8.5 -15.999
s13.834 -11.666 24.501 -18.999c22 -16 39 -31.333 51 -46s18 -33.667 18 -57c0 -14 -2.33301 -28 -7 -42s-11.667 -32.333 -21 -55c-5.33301 -13.333 -10.333 -26.5 -15 -39.5s-7 -23.833 -7 -32.5c0 -19.333 10 -29 30 -29s41.5 8 64.5 24s44.167 35.833 63.5 59.5
s33.333 45.5 42 65.5l13 -10c-20.667 -46 -50.667 -86.667 -90 -122s-79 -53 -119 -53c-22.667 0 -40.5 5.83301 -53.5 17.5s-19.5 27.834 -19.5 48.501c0 12.667 2.33301 26.167 7 40.5s11.667 32.5 21 54.5l10.5 26c5.66699 14 9.83398 26.5 12.501 37.5s4 20.5 4 28.5
c0 16 -4 28.833 -12 38.5s-16.667 17.667 -26 24s-15.333 10.5 -18 12.5c-16 -50.667 -31.667 -93.834 -47 -129.501s-36.833 -67.5 -64.5 -95.5s-61.5 -42 -101.5 -42c-9.33301 0 -19 1 -29 3c-20 -33.333 -43.333 -60.166 -70 -80.499s-56.334 -30.5 -89.001 -30.5
c-34 0 -59.667 11.167 -77 33.5zM201.499 407.496c28.333 43 51.667 85.667 70 128s27.5 72.166 27.5 89.499c0 5.33301 -1.33301 8 -4 8c-7.33301 0 -22.833 -17 -46.5 -51s-48.167 -76.167 -73.5 -126.5s-45 -99.166 -59 -146.499c28.667 22.667 57.167 55.5 85.5 98.5z
M255 169.996c0 22.667 -3.16797 40.832 -9.50098 54.499s-14.166 20.5 -23.499 20.5c-10 0 -18.833 -7 -26.5 -21s-11.5 -31 -11.5 -51s4 -39.667 12 -59s20 -34.333 36 -45c15.333 32.667 23 66.334 23 101.001z" />
    <glyph glyph-name="e_e" unicode="ee" horiz-adv-x="668" 
d="M351 -14.5c-20.667 23 -30.9951 51.834 -30.9951 86.501v5c-28.667 -38 -61.667 -67.667 -99 -89s-75 -32 -113 -32c-39.333 0 -69.5 10.833 -90.5 32.5s-31.5 49.5 -31.5 83.5c0 39.333 13 81.666 39 126.999s58.833 83.5 98.5 114.5s78.5 46.5 116.5 46.5
c41.333 0 62 -20.333 62 -61c0 -32.667 -12.333 -63.167 -37 -91.5s-56.334 -51.5 -95.001 -69.5s-77.334 -29 -116.001 -33c-2.66699 -11.333 -4 -23.333 -4 -36c0 -24 6 -44 18 -60s32.333 -24 61 -24c34 0 68.333 12 103 36s65.667 55.333 93 94
c8 36.667 24.167 73 48.5 109s53.166 65.333 86.499 88s66.666 34 99.999 34c41.333 0 62 -20.333 62 -61c0 -32.667 -11.167 -62 -33.5 -88s-51.5 -46.833 -87.5 -62.5s-73.667 -25.5 -113 -29.5c-2.66699 -11.333 -4 -23.333 -4 -36c0 -24.667 5.83301 -45.667 17.5 -63
s31.5 -26 59.5 -26c40.667 0 82.334 17.667 125.001 53s77 78.333 103 129l12 -9c-26.667 -60 -64.334 -108.667 -113.001 -146s-98 -56 -148 -56c-38.667 0 -68.334 11.5 -89.001 34.5zM147.005 166.001c30.667 18 56.832 39.167 78.499 63.5s32.5 49.833 32.5 76.5
c0 8 -1.5 13.833 -4.5 17.5s-8.5 5.5 -16.5 5.5c-20.667 0 -43.167 -10.333 -67.5 -31s-46.666 -47 -66.999 -79s-34.833 -63.667 -43.5 -95c28 10 57.333 24 88 42zM523.003 191.001c38 27.333 57 60 57 98c0 17.333 -7.66699 26 -23 26c-20.667 0 -42 -9.16699 -64 -27.5
s-41.833 -42.166 -59.5 -71.499s-31.167 -60 -40.5 -92c48.667 17.333 92 39.666 130 66.999z" />
    <glyph glyph-name="l_l" unicode="ll" horiz-adv-x="473" 
d="M22.5 -2c-13 18.667 -19.499 43.6709 -19.499 75.0039c0 60 20.667 141.5 62 244.5s87.5 195.833 138.5 278.5s87.833 124 110.5 124c9.33301 0 17.166 -8.16699 23.499 -24.5s9.5 -32.833 9.5 -49.5c0 -30.667 -12.5 -75.834 -37.5 -135.501
s-57.833 -120.167 -98.5 -181.5s-84 -111 -130 -149c-8.66699 -38.667 -13 -72.334 -13 -101.001c0 -51.333 14.667 -77 44 -77c22.667 0 46 13.5 70 40.5s45.667 60.5 65 100.5c12.667 66 37.334 141.5 74.001 226.5s75 158 115 219s70 91.5 90 91.5
c9.33301 0 17.166 -8.16699 23.499 -24.5s9.5 -32.833 9.5 -49.5c0 -31.333 -10.333 -73.333 -31 -126s-49.334 -106.334 -86.001 -161.001s-78 -101 -124 -139c-8.66699 -38.667 -13 -72.334 -13 -101.001c0 -51.333 14.667 -77 44 -77c24.667 0 49.834 15.667 75.501 47
s48.5 69 68.5 113l15 -8c-57.333 -122.667 -120 -184 -188 -184c-27.333 0 -47.5 9.33301 -60.5 28s-19.5 43.667 -19.5 75c0 10 0.333008 17.667 1 23c-50 -84 -102.667 -126 -158 -126c-27.333 0 -47.5 9.33301 -60.5 28zM197.501 352.504
c35 55.667 63.5 108.999 85.5 159.999s33 87.833 33 110.5c0 10.667 -2.33301 16 -7 16c-9.33301 0 -28.5 -22.833 -57.5 -68.5s-58.833 -101.5 -89.5 -167.5s-54.667 -129 -72 -189c36.667 36.667 72.5 82.834 107.5 138.501zM428.001 342.503
c30.667 49 55 95.668 73 140.001s27 77.833 27 100.5c0 10.667 -2.33301 16 -7 16c-9.33301 0 -26.333 -19.333 -51 -58s-50.334 -87.834 -77.001 -147.501s-48.667 -119.5 -66 -179.5c36.667 36.667 70.334 79.5 101.001 128.5z" />
    <glyph glyph-name="o_r" unicode="or" horiz-adv-x="753" 
d="M9 -8c-14 16 -21.0029 37 -21.0029 63c0 36 12.167 77.667 36.5 125s55.333 87.833 93 121.5s75.167 50.5 112.5 50.5c22 0 36.333 -7 43 -21c1.33301 0.666992 3.66602 1 6.99902 1c11.333 0 19.833 -4.5 25.5 -13.5s8.5 -17.5 8.5 -25.5
c0 -7.33301 -4.66699 -21 -14 -41c-8 -17.333 -14.167 -32.5 -18.5 -45.5s-6.5 -26.167 -6.5 -39.5c0 -18.667 4.66699 -32.5 14 -41.5s24.333 -13.5 45 -13.5c16.667 0 35.334 10.667 56.001 32s40 48.166 58 80.499s31 63.166 39 92.499
c-6.66699 6.66699 -10 14.667 -10 24c0 12 2.5 23.333 7.5 34s11 19 18 25s12.5 9 16.5 9c9.33301 0 14 -8 14 -24c0 -2.66699 -1.66699 -8.66699 -5 -18s-5.33301 -15.666 -6 -18.999c0 -6.66699 2.83301 -12.834 8.5 -18.501s14.834 -12.834 27.501 -21.501
c20.667 -14.667 36.834 -29.167 48.501 -43.5s17.5 -32.833 17.5 -55.5c0 -14.667 -2.33301 -29.167 -7 -43.5s-11.667 -33.166 -21 -56.499c-14.667 -32 -22 -55 -22 -69c0 -20 10 -30 30 -30s41.5 8 64.5 24s44.167 35.833 63.5 59.5s33.333 45.5 42 65.5l13 -10
c-20.667 -46 -50.667 -86.667 -90 -122s-79 -53 -119 -53c-22.667 0 -40.5 6 -53.5 18s-19.5 27.667 -19.5 47c0 22.667 9.66699 55.334 29 98.001c8.66699 22 15.167 39.5 19.5 52.5s6.5 25.167 6.5 36.5c0 16.667 -3.83301 29.834 -11.5 39.501s-16.167 17.667 -25.5 24
s-15.666 10.5 -18.999 12.5c-18 -54 -43.167 -103.167 -75.5 -147.5s-65.833 -66.5 -100.5 -66.5c-19.333 0 -36.333 3.83301 -51 11.5s-26 19.167 -34 34.5c-22 -50.667 -48.167 -91 -78.5 -121s-62.5 -45 -96.5 -45c-25.333 0 -45 8 -59 24zM164.997 55.5
c27.333 29.667 50.002 66.166 68.002 109.499c-4 16 -6 35 -6 57c0 41.333 6.33301 71.666 19 90.999c-34.667 0 -66.834 -14.833 -96.501 -44.5s-53.334 -64.667 -71.001 -105s-26.5 -74.166 -26.5 -101.499c0 -15.333 3.33301 -27.666 10 -36.999s16 -14 28 -14
c22.667 0 47.667 14.833 75 44.5z" />
    <glyph glyph-name="t_h" unicode="th" horiz-adv-x="762" 
d="M-4 53c0 28 5.99023 65.168 17.9902 111.501s27 93.833 45 142.5c-5.33301 0.666992 -11.666 2.83398 -18.999 6.50098s-13 6.16699 -17 7.5v18c4.66699 -0.666992 11.334 -2.33398 20.001 -5.00098s16.667 -4.33398 24 -5.00098
c29.333 75.333 59.833 138.833 91.5 190.5s57.5 77.5 77.5 77.5c5.33301 0 10.166 -2 14.499 -6s6.5 -9.33301 6.5 -16c0 -8.66699 -4.16699 -21.334 -12.5 -38.001s-22.5 -42.334 -42.5 -77.001c-3.33301 -6.66699 -13.666 -25.167 -30.999 -55.5s-33 -60.833 -47 -91.5
c36.667 -6.66699 69 -10 97 -10c34.667 0 77.667 5.33301 129 16c23.333 64 50.333 126.5 81 187.5s60.334 110.833 89.001 149.5s52.334 58 71.001 58c10.667 0 18.834 -6.5 24.501 -19.5s8.5 -27.5 8.5 -43.5c0 -31.333 -10.167 -69.833 -30.5 -115.5
s-47.333 -89.667 -81 -132s-69.167 -74.833 -106.5 -97.5c-12 -28.667 -23.167 -67.834 -33.5 -117.501s-15.5 -88.167 -15.5 -115.5c0 -10.667 0.666992 -22 2 -34c26.667 77.333 56.834 139.833 90.501 187.5s71.167 71.5 112.5 71.5c25.333 0 44.333 -8.83301 57 -26.5
s19 -38.834 19 -63.501c0 -14.667 -1.83301 -28.667 -5.5 -42s-9.5 -30.666 -17.5 -51.999c-6.66699 -18 -11.667 -32.333 -15 -43s-5 -21 -5 -31c0 -12.667 2.66699 -22.167 8 -28.5s12.666 -9.5 21.999 -9.5c22.667 0 49.334 15.833 80.001 47.5s56 69.167 76 112.5
l13 -12c-22 -50.667 -50.167 -92.334 -84.5 -125.001s-70.166 -49 -107.499 -49c-22 0 -39 5.83301 -51 17.5s-18 26.834 -18 45.501c0 14.667 5 38.334 15 71.001c10.667 36 16 62.667 16 80c0 16.667 -3.5 28.834 -10.5 36.501s-16.167 11.5 -27.5 11.5
c-24.667 0 -46.167 -14.5 -64.5 -43.5s-38.166 -69.833 -59.499 -122.5c-16 -38.667 -28.667 -66.667 -38 -84s-19.666 -26 -30.999 -26c-12 0 -21.833 10.333 -29.5 31s-11.5 45 -11.5 73c0 12.667 1 26.334 3 41.001c-26 -46 -57.667 -83 -95 -111
s-75.666 -42 -114.999 -42c-59.333 0 -89 33 -89 99zM501.49 436.001c26.333 37.333 47.666 73.834 63.999 109.501s24.5 62.167 24.5 79.5c0 5.33301 -1.33301 8 -4 8c-7.33301 0 -21.5 -13.5 -42.5 -40.5s-43.167 -62.5 -66.5 -106.5s-42.666 -91 -57.999 -141
c28.667 23.333 56.167 53.666 82.5 90.999zM214.99 36.502c33.333 30.333 63 72.168 89 125.501c9.33301 45.333 21 88.666 35 129.999c-39.333 -9.33301 -80.333 -14 -123 -14c-28 0 -62.333 3.66699 -103 11c-36.667 -84 -55 -156.667 -55 -218
c0 -28.667 4.33301 -49.167 13 -61.5s23 -18.5 43 -18.5c34 0 67.667 15.167 101 45.5z" />
    <glyph glyph-name="v_r" unicode="vr" horiz-adv-x="756" 
d="M22.5 -10.5c-8.33301 19 -12.5 46.165 -12.5 81.498c0 12.667 2 56.334 6 131.001c1.33301 20 3.66602 32.833 6.99902 38.5s11.666 8.5 24.999 8.5c11.333 0 18.5 -2.16699 21.5 -6.5s4.5 -12.833 4.5 -25.5c0 -13.333 -1.33301 -38 -4 -74c-3.33301 -32 -5 -61 -5 -87
c0 -20 1.66699 -34.333 5 -43s9.33301 -13 18 -13c22 0 48.667 22.5 80 67.5s59.666 95.5 84.999 151.5c1.33301 42 5.83301 71.333 13.5 88s18.5 25 32.5 25c11.333 0 20.166 -4.16699 26.499 -12.5s9.5 -16.833 9.5 -25.5c-0.666992 -2.66699 -5.66699 -17 -15 -43
s-14 -52.333 -14 -79c0 -37.333 15.333 -56 46 -56c30 0 55.5 19.167 76.5 57.5s41.5 86.166 61.5 143.499c-6.66699 6.66699 -10 14.667 -10 24c0 12 2.5 23.333 7.5 34s11 19 18 25s12.5 9 16.5 9c9.33301 0 14 -8 14 -24c0 -2.66699 -1.66699 -8.66699 -5 -18
s-5.33301 -15.666 -6 -18.999c0 -6.66699 2.83301 -12.834 8.5 -18.501s14.834 -12.834 27.501 -21.501c20.667 -14.667 36.834 -29.167 48.501 -43.5s17.5 -32.833 17.5 -55.5c0 -14.667 -2.33301 -29.167 -7 -43.5s-11.667 -33.166 -21 -56.499
c-14.667 -32 -22 -55 -22 -69c0 -20 10 -30 30 -30s41.5 8 64.5 24s44.167 35.833 63.5 59.5s33.333 45.5 42 65.5l13 -10c-20.667 -46 -50.667 -86.667 -90 -122s-79 -53 -119 -53c-22.667 0 -40.5 6 -53.5 18s-19.5 27.667 -19.5 47c0 22.667 9.66699 55.334 29 98.001
c8.66699 22 15.167 39.5 19.5 52.5s6.5 25.167 6.5 36.5c0 16.667 -3.83301 29.834 -11.5 39.501s-16.167 17.667 -25.5 24s-15.666 10.5 -18.999 12.5c-14.667 -41.333 -28.5 -76 -41.5 -104s-29.833 -52.667 -50.5 -74s-44.667 -32 -72 -32c-22 0 -41.167 6.5 -57.5 19.5
s-26.166 29.5 -29.499 49.5c-27.333 -54.667 -58.5 -101.667 -93.5 -141s-67.5 -59 -97.5 -59c-20 0 -34.167 9.5 -42.5 28.5z" />
    <glyph glyph-name="w_r" unicode="wr" horiz-adv-x="966" 
d="M228 58c0 24 2.32812 54.001 6.99512 90.001c-26.667 -53.333 -53.167 -96.333 -79.5 -129s-53.166 -49 -80.499 -49c-21.333 0 -39.166 9.83301 -53.499 29.5s-21.5 43.5 -21.5 71.5c0 24.667 5.16699 55.167 15.5 91.5s22.666 68 36.999 95s26.166 40.5 35.499 40.5
c5.33301 0 12.833 -2 22.5 -6s14.5 -8.66699 14.5 -14c-14 -21.333 -28.667 -52.833 -44 -94.5s-23 -77.167 -23 -106.5c0 -15.333 2.33301 -30.333 7 -45s14 -22 28 -22c20.667 0 43.667 17.833 69 53.5s52.333 81.5 81 137.5c5.33301 28 9.83301 48.167 13.5 60.5
s7.33398 20.333 11.001 24s8.83398 5.5 15.501 5.5c8.66699 0 15.667 -1.83301 21 -5.5s8 -9.16699 8 -16.5c0 -2 -0.666992 -5.66699 -2 -11c-7.33301 -24.667 -13.833 -57.334 -19.5 -98.001s-8.5 -77.667 -8.5 -111c0 -32.667 7.33301 -49 22 -49
c18.667 0 44 23.667 76 71s61 98.666 87 153.999c0 32.667 1.66699 56.667 5 72s7.83301 25 13.5 29s13.5 6 23.5 6c11.333 0 20.166 -4.16699 26.499 -12.5s9.5 -16.833 9.5 -25.5c-2 -5.33301 -5.5 -14 -10.5 -26s-9.16699 -25 -12.5 -39s-5 -29.333 -5 -46
c0 -37.333 16.667 -56 50 -56c28 0 52.667 18.5 74 55.5s41 81.833 59 134.5c-6.66699 6.66699 -10 14.667 -10 24c0 12 2.5 23.333 7.5 34s11 19 18 25s12.5 9 16.5 9c9.33301 0 14 -8 14 -24c0 -2.66699 -1.66699 -8.66699 -5 -18s-5.33301 -15.666 -6 -18.999
c0 -6.66699 2.83301 -12.834 8.5 -18.501s14.834 -12.834 27.501 -21.501c20.667 -14.667 36.834 -29.167 48.501 -43.5s17.5 -32.833 17.5 -55.5c0 -14.667 -2.33301 -29.167 -7 -43.5s-11.667 -33.166 -21 -56.499c-14.667 -32 -22 -55 -22 -69c0 -20 10 -30 30 -30
s41.5 8 64.5 24s44.167 35.833 63.5 59.5s33.333 45.5 42 65.5l13 -10c-20.667 -46 -50.667 -86.667 -90 -122s-79 -53 -119 -53c-22.667 0 -40.5 6 -53.5 18s-19.5 27.667 -19.5 47c0 22.667 9.66699 55.334 29 98.001c8.66699 22 15.167 39.5 19.5 52.5
s6.5 25.167 6.5 36.5c0 16.667 -3.83301 29.834 -11.5 39.501s-16.167 17.667 -25.5 24s-15.666 10.5 -18.999 12.5c-45.333 -134.667 -98.333 -202 -159 -202c-20.667 0 -38.167 6 -52.5 18s-24.833 28.667 -31.5 50c-29.333 -54.667 -61.666 -102.834 -96.999 -144.501
s-67 -62.5 -95 -62.5c-36 0 -54 32.333 -54 97z" />
    <glyph glyph-name=".notdef" horiz-adv-x="428" 
d="M0 0v720h428v-720h-428zM80 70h268v580h-268v-580z" />
    <glyph glyph-name="NULL" 
 />
    <glyph glyph-name="NULL" 
 />
    <glyph glyph-name="nonmarkingreturn" unicode="&#xd;" horiz-adv-x="260" 
 />
    <glyph glyph-name="space" unicode=" " horiz-adv-x="260" 
 />
    <glyph glyph-name="exclam" unicode="!" horiz-adv-x="260" 
d="M55 181c10 31.333 23.333 68.6641 40 111.997c52 134.667 95.5 239.5 130.5 314.5s64.5 112.5 88.5 112.5c5.33301 0 10 -2.16699 14 -6.5s6 -9.83301 6 -16.5c0 -17.333 -18.833 -66.666 -56.5 -147.999s-80.5 -167.166 -128.5 -257.499s-84.333 -153.166 -109 -188.499
c0 20.667 5 46.667 15 78zM-12 -3.00195c-6 4.66699 -9 11.333 -9 20c0 10.667 6.33301 20.167 19 28.5s25.667 12.5 39 12.5c17.333 0 26 -8 26 -24c0 -10 -5.5 -19.833 -16.5 -29.5s-22.833 -14.5 -35.5 -14.5c-9.33301 0 -17 2.33301 -23 7z" />
    <glyph glyph-name="quotedbl" unicode="&#x22;" horiz-adv-x="245" 
d="M131 613c0 22 6.66699 45.333 20 70s27 37 41 37c6.66699 0 12.5 -2.83301 17.5 -8.5s7.5 -12.167 7.5 -19.5c-14 -14.667 -25.333 -29.5 -34 -44.5s-16 -29.333 -22 -43s-10.333 -23.167 -13 -28.5c-11.333 6.66699 -17 19 -17 37zM251 613c0 22 6.66699 45.333 20 70
s27 37 41 37c6.66699 0 12.5 -2.83301 17.5 -8.5s7.5 -12.167 7.5 -19.5c-14 -14.667 -25.333 -29.5 -34 -44.5s-16 -29.333 -22 -43s-10.333 -23.167 -13 -28.5c-11.333 6.66699 -17 19 -17 37z" />
    <glyph glyph-name="numbersign" unicode="#" horiz-adv-x="668" 
d="M212 170c-42.667 -2 -91.6631 -5.33105 -146.996 -9.99805l-56 -5c2 24 22 41.333 60 52s90 16.667 156 18c6 30.667 10.667 52 14 64l-37 -3c-33.333 -1.33301 -66.333 -3.66602 -99 -6.99902l-57 -5c3.33301 42.667 71.666 65.667 204.999 69
c16 73.333 30 143.333 42 210l25 122c2.66699 12 6.66699 21.5 12 28.5s16.333 12.5 33 16.5l-20 -105l-51 -271h4c29.333 0 70.666 -1.33301 123.999 -4c10 46.667 24.333 117.667 43 213l25 122c2.66699 12 6.66699 21.5 12 28.5s16.333 12.5 33 16.5l-18 -93l-55 -289
c20.667 -0.666992 47 -2.33398 79 -5.00098c60 -4 101 -6 123 -6c-16 -14 -31.667 -22.833 -47 -26.5s-33.333 -5.5 -54 -5.5l-109 -1c-0.666992 -2.66699 -1.33398 -5.5 -2.00098 -8.5s-1.33398 -6.83301 -2.00098 -11.5c-6 -29.333 -9.66699 -48 -11 -56l64 -4
c60 -4 101 -6 123 -6c-16 -14 -31.667 -22.833 -47 -26.5s-33 -5.5 -53 -5.5c-44.667 0 -76.667 -0.333008 -96 -1c-17.333 -84.667 -32.333 -149.834 -45 -195.501s-27.834 -80.667 -45.501 -105s-39.5 -36.5 -65.5 -36.5c30.667 37.333 67.667 148.666 111 333.999h-126
c-18 -86.667 -33.167 -152 -45.5 -196s-27 -78 -44 -102s-38.833 -36 -65.5 -36c30.667 37.333 67.334 148 110.001 332zM410.004 293.002c-36.667 0 -79.667 -0.666992 -129 -2l-13 -66c30.667 0 72.667 -1.33301 126 -4z" />
    <glyph glyph-name="dollar" unicode="$" horiz-adv-x="531" 
d="M184 -56c-52.667 3.33301 -96.3311 17.8359 -130.998 43.5029s-52 61.5 -52 107.5c0 28 6.5 51.833 19.5 71.5s29.5 34.5 49.5 44.5s39.667 15 59 15c-18 -19.333 -31.667 -40.666 -41 -63.999s-14 -46.333 -14 -69c0 -34 10.333 -61 31 -81s50.334 -32 89.001 -36
c21.333 72 45.333 167.667 72 287c-30.667 17.333 -54.834 32.666 -72.501 45.999s-32.834 30.333 -45.501 51s-19 45 -19 73c0 35.333 9.83301 68.666 29.5 99.999s46.167 57.5 79.5 78.5s69.333 34.5 108 40.5l4.5 21.5c2.33301 11 7.16602 20.667 14.499 29
s17.666 14.166 30.999 17.499c-4.66699 -23.333 -8.66699 -45 -12 -65c42 0 71.333 -9 88 -27s25 -43.667 25 -77c0 -26 -4.16699 -52.833 -12.5 -80.5s-20.166 -54.5 -35.499 -80.5c-11.333 2.66699 -20 7.83398 -26 15.501s-9 16.5 -9 26.5c0 11.333 5.66699 33.333 17 66
c1.33301 3.33301 5 14.833 11 34.5s9 36.167 9 49.5c0 16 -5.66699 28.167 -17 36.5s-29.666 12.5 -54.999 12.5l-59 -312c30 -16 54.5 -31 73.5 -45s35 -31.667 48 -53s19.5 -47.333 19.5 -78c0 -38.667 -10.333 -72.334 -31 -101.001s-48.334 -51.334 -83.001 -68.001
s-72 -26.667 -112 -30c-13.333 -35.333 -28 -61.833 -44 -79.5s-34.667 -26.5 -56 -26.5c14.667 18.667 31 54 49 106zM324.003 543.003l17.001 84.001c-28.667 -6 -54.334 -17.833 -77.001 -35.5s-40.334 -38.5 -53.001 -62.5s-19 -47.667 -19 -71
c0 -27.333 7.83301 -49.833 23.5 -67.5s38.167 -34.834 67.5 -51.501c10.667 50 24.334 118 41.001 204zM352.504 20.0039c26.333 24.667 39.501 55.665 39.501 92.998c0 28.667 -7.66699 52.834 -23 72.501s-37 38.167 -65 55.5c-29.333 -146.667 -49 -235 -59 -265
c45.333 4.66699 81.166 19.334 107.499 44.001z" />
    <glyph glyph-name="percent" unicode="%" horiz-adv-x="698" 
d="M211 104c59.333 98 117.834 202.5 175.501 313.5s98.167 196.833 121.5 257.5c3.33301 10 14.333 20 33 30s35.667 15 51 15c-12.667 -32 -60.667 -127.833 -144 -287.5s-145 -271.5 -185 -335.5c-38 -60.667 -71.667 -106.5 -101 -137.5s-57.333 -46.5 -84 -46.5
c29.333 29.333 73.666 93 132.999 191zM119.001 378c-14 20.667 -20.998 46.332 -20.998 76.999s6.33301 62.667 19 96s30 61.333 52 84s46.667 34 74 34c25.333 0 45.666 -9.5 60.999 -28.5s23 -44.167 23 -75.5c0 -29.333 -6.5 -61.166 -19.5 -95.499
s-30.833 -63.333 -53.5 -87s-47.334 -35.5 -74.001 -35.5s-47 10.333 -61 31zM229.503 415.498c13.667 20.333 24.666 45.166 32.999 74.499s12.5 57 12.5 83c0 40 -10.667 60 -32 60c-18 0 -33.833 -10.5 -47.5 -31.5s-24.167 -46.167 -31.5 -75.5s-11 -55.666 -11 -78.999
c0 -18.667 2.83301 -33.667 8.5 -45s13.834 -17 24.501 -17c15.333 0 29.833 10.167 43.5 30.5zM442.002 30.998c-14 20.667 -20.998 46.332 -20.998 76.999s6.33301 62.667 19 96s30 61.333 52 84s46.667 34 74 34c25.333 0 45.666 -9.5 60.999 -28.5s23 -44.167 23 -75.5
c0 -29.333 -6.5 -61.166 -19.5 -95.499s-30.833 -63.333 -53.5 -87s-47.334 -35.5 -74.001 -35.5s-47 10.333 -61 31zM552.504 68.4961c13.667 20.333 24.666 45.166 32.999 74.499s12.5 57 12.5 83c0 40 -10.667 60 -32 60c-18 0 -33.833 -10.5 -47.5 -31.5
s-24.167 -46.167 -31.5 -75.5s-11 -55.333 -11 -78c0 -19.333 2.83301 -34.666 8.5 -45.999s13.834 -17 24.501 -17c15.333 0 29.833 10.167 43.5 30.5z" />
    <glyph glyph-name="ampersand" unicode="&#x26;" horiz-adv-x="616" 
d="M89.5 -62.5c-29.667 16.333 -52.501 38.3311 -68.501 65.998s-24 58.167 -24 91.5c0 40.667 11.667 80 35 118s54.833 69.833 94.5 95.5s82.834 40.834 129.501 45.501c-25.333 20.667 -44.333 44.834 -57 72.501s-19 56.167 -19 85.5c0 35.333 9 69 27 101
s42.833 57.667 74.5 77s66.834 29 105.501 29c36 0 63.167 -9 81.5 -27s27.5 -44.333 27.5 -79c0 -24 -4 -47.833 -12 -71.5s-18 -43.167 -30 -58.5s-23.333 -23 -34 -23c-7.33301 0 -14.333 3 -21 9s-12 13.667 -16 23c26 22.667 46.167 45.167 60.5 67.5
s21.5 45.5 21.5 69.5c0 21.333 -5.66699 38.333 -17 51s-28.333 19 -51 19c-44.667 0 -79.834 -19.833 -105.501 -59.5s-38.5 -87.834 -38.5 -144.501c0 -67.333 19.333 -117.666 58 -150.999c-42.667 -7.33301 -80.834 -24 -114.501 -50s-59.834 -57.167 -78.501 -93.5
s-28 -72.5 -28 -108.5c0 -38 10.5 -71.667 31.5 -101s53.167 -44 96.5 -44c46 0 90.333 15.167 133 45.5s78.334 70 107.001 119s46 99.833 52 152.5c-19.333 -0.666992 -37.333 -2.16699 -54 -4.5s-34.334 -5.5 -53.001 -9.5l-24 -5c0.666992 26 10.334 44.167 29.001 54.5
s43.667 15.5 75 15.5c24.667 0 55.667 -3.33301 93 -10c6 -0.666992 15.333 -2 28 -4s23.334 -3 32.001 -3c-6.66699 -14 -13.167 -22.833 -19.5 -26.5s-13.833 -5.5 -22.5 -5.5c-15.333 -0.666992 -34.666 -1 -57.999 -1c-6 -60.667 -25.667 -118 -59 -172
s-75.333 -97.5 -126 -130.5s-103.667 -49.5 -159 -49.5c-38.667 0 -72.834 8.16699 -102.501 24.5z" />
    <glyph glyph-name="quotesingle" unicode="'" horiz-adv-x="125" 
d="M131 613c0 22 6.66699 45.333 20 70s27 37 41 37c6.66699 0 12.5 -2.83301 17.5 -8.5s7.5 -12.167 7.5 -19.5c-14 -14.667 -25.333 -29.5 -34 -44.5s-16 -29.333 -22 -43s-10.333 -23.167 -13 -28.5c-11.333 6.66699 -17 19 -17 37z" />
    <glyph glyph-name="parenleft" unicode="(" horiz-adv-x="258" 
d="M81 13c-16 52 -24.001 110.667 -24.001 176c0 98 18.333 187.5 55 268.5s79.667 145 129 192s90.333 70.5 123 70.5c-83.333 -59.333 -145.666 -139.833 -186.999 -241.5s-62 -207.167 -62 -316.5c0 -49.333 4.16699 -93.5 12.5 -132.5s19.833 -70.833 34.5 -95.5
c-4 -9.33301 -10.667 -16.333 -20 -21c-24.667 14.667 -45 48 -61 100z" />
    <glyph glyph-name="parenright" unicode=")" horiz-adv-x="268" 
d="M-61 -63c74.667 52.667 136.168 125.667 184.501 219s72.5 199.666 72.5 318.999c0 46.667 -5.16699 89.834 -15.5 129.501s-28.833 78.167 -55.5 115.5c19.333 -4.66699 38.333 -19.334 57 -44.001s34.167 -57.667 46.5 -99s18.5 -88.666 18.5 -141.999
c0 -92 -17.833 -177.833 -53.5 -257.5s-76.834 -143.667 -123.501 -192s-83 -72.5 -109 -72.5c-8 2 -15.333 10 -22 24z" />
    <glyph glyph-name="asterisk" unicode="*" horiz-adv-x="391" 
d="M266 532c-20.667 -40 -39.0039 -70.666 -55.0039 -91.999s-32 -32 -48 -32c11.333 16 20.333 30.5 27 43.5s14.334 29.5 23.001 49.5c3.33301 6 6.33301 12.333 9 19s5.66699 13 9 19h-26c-23.333 0 -43.166 2.16699 -59.499 6.5s-26.166 13.166 -29.499 26.499l40.5 2
l42.5 2l34 1c-32 52.667 -48 91 -48 115c0 6.66699 2.16699 12.5 6.5 17.5s6.83301 7.83301 7.5 8.5l17.5 -36.5c9 -19 17.5 -36 25.5 -51s16.333 -29.167 25 -42.5l9 19c15.333 34.667 29 60.667 41 78s27 28.333 45 33c-4 -10.667 -10.167 -24.667 -18.5 -42l-17.5 -36
c-17.333 -34.667 -27.666 -55.667 -30.999 -63c30 2 47.333 3 52 3c40 0 68.667 -9.66699 86 -29l-130 -12l11 -17c13.333 -20 23.5 -38.167 30.5 -54.5s10.5 -37.5 10.5 -63.5c-11.333 13.333 -41 56 -89 128z" />
    <glyph glyph-name="plus" unicode="+" horiz-adv-x="408" 
d="M160 66.5c1.33301 22.333 2.00195 51.835 2.00195 88.502c-34 0 -61.833 -0.666992 -83.5 -2s-46.834 -4.33301 -75.501 -9c6 16.667 22.667 28.667 50 36s63.666 11.666 108.999 12.999v50c0 42 9.66699 76.333 29 103c5.33301 -46 8.33301 -97 9 -153
c58.667 -0.666992 112 -3.66699 160 -9c-26.667 -19.333 -61 -29 -103 -29h-57c-1.33301 -48 -5.5 -86 -12.5 -114s-19.167 -45.333 -36.5 -52c4.66699 29.333 7.66699 55.166 9 77.499z" />
    <glyph glyph-name="comma" unicode="," horiz-adv-x="196" 
d="M-10 -51c0 22 6.66699 45.333 20 70s27 37 41 37c6.66699 0 12.5 -2.83301 17.5 -8.5s7.5 -12.167 7.5 -19.5c-14 -14.667 -25.333 -29.5 -34 -44.5s-16 -29.333 -22 -43s-10.333 -23.167 -13 -28.5c-11.333 6.66699 -17 19 -17 37z" />
    <glyph glyph-name="hyphen" unicode="-" horiz-adv-x="484" 
d="M95 182.5c32.667 7 75.998 10.5 129.998 10.5s110 -3 168 -9c-26.667 -19.333 -61 -29 -103 -29h-95c-35.333 0 -63.166 -0.666992 -83.499 -2s-45.5 -4.33301 -75.5 -9c6.66699 18.667 26.334 31.5 59.001 38.5z" />
    <glyph glyph-name="period" unicode="." horiz-adv-x="214" 
d="M17 -3c-6 4.66699 -9 11.333 -9 20c0 10.667 6.33301 20.167 19 28.5s25.667 12.5 39 12.5c17.333 0 26 -8 26 -24c0 -10 -5.5 -19.833 -16.5 -29.5s-22.833 -14.5 -35.5 -14.5c-9.33301 0 -17 2.33301 -23 7z" />
    <glyph glyph-name="slash" unicode="/" horiz-adv-x="330" 
d="M312 675c3.33301 10 14.332 20 32.999 30s35.667 15 51 15c-10 -26 -49.5 -122.333 -118.5 -289l-170.5 -409c-24.667 -58 -52.667 -103.167 -84 -135.5s-61.666 -48.5 -90.999 -48.5c62 62 188.667 341 380 837z" />
    <glyph glyph-name="zero" unicode="0" horiz-adv-x="630" 
d="M101.5 -12.5c-32.333 49.667 -48.498 111.833 -48.498 186.5c0 78 15.833 159.833 47.5 245.5s75.167 157.167 130.5 214.5s116.666 86 183.999 86c40 0 74.833 -10.167 104.5 -30.5s52.667 -49 69 -86s24.5 -80.167 24.5 -129.5c0 -90.667 -16.333 -179.5 -49 -266.5
s-77.334 -157.833 -134.001 -212.5s-118.667 -82 -186 -82c-62.667 0 -110.167 24.833 -142.5 74.5zM394.502 35.499c43 59 77.5 131.667 103.5 218s39 166.833 39 241.5c0 60.667 -9.66699 108.834 -29 144.501s-50 53.5 -92 53.5c-56 0 -105.167 -30.5 -147.5 -91.5
s-74.833 -134.333 -97.5 -220s-34 -161.834 -34 -228.501c0 -62.667 10.833 -112.667 32.5 -150s51.167 -56 88.5 -56c48 0 93.5 29.5 136.5 88.5z" />
    <glyph glyph-name="one" unicode="1" horiz-adv-x="365" 
d="M-11 -76c-14.667 7.33301 -26.332 17.333 -34.999 30c13.333 -1.33301 24 -2 32 -2c29.333 0 65.333 3.66699 108 11c18 41.333 34.833 96.166 50.5 164.499s33.5 155.5 53.5 261.5c14.667 81.333 28 146.333 40 195c-62 -44 -100.333 -66 -115 -66
c-8.66699 0 -15 2 -19 6s-6 11.667 -6 23c22 11.333 54.333 34 97 68s80.334 69 113.001 105c6 -5.33301 9 -15.666 9 -30.999c0 -12 -4 -32.667 -12 -62c-4.66699 -20 -8.33398 -36.667 -11.001 -50c-16 -110.667 -37.333 -222.5 -64 -335.5s-56 -203.5 -88 -271.5
c14 2 27.333 3 40 3c28 0 50.167 -4 66.5 -12s26.5 -22.667 30.5 -44c-30 3.33301 -56.333 5 -79 5c-29.333 0 -60 -1.66699 -92 -5c-34.667 -2.66699 -60.667 -4 -78 -4c-12.667 0 -26.334 3.66699 -41.001 11z" />
    <glyph glyph-name="two" unicode="2" horiz-adv-x="559" 
d="M316.5 -71.5c-31.667 10.333 -68.5 24.502 -110.5 42.502l-20 8.5l-23 9.5c-44.667 -28.667 -82.667 -43 -114 -43c-20 0 -36.333 5 -49 15s-19 23 -19 39c0 32 25 48 75 48c23.333 0 58.333 -4.66699 105 -14c42 37.333 83.833 85.666 125.5 144.999
s75.834 122.166 102.501 188.499s40 127.5 40 183.5c0 48 -9.66699 83.667 -29 107s-45 35 -77 35c-42.667 0 -76.167 -19 -100.5 -57s-36.5 -86.333 -36.5 -145c0 -13.333 0.833008 -24.833 2.5 -34.5s4.83398 -20.834 9.50098 -33.501h-5c-24 6 -41.667 15.667 -53 29
s-17 33.333 -17 60c0 36 9.16699 70 27.5 102s44 57.667 77 77s70.167 29 111.5 29c32 0 60.167 -8 84.5 -24s43 -37.833 56 -65.5s19.5 -58.5 19.5 -92.5c0 -62 -15.667 -127.667 -47 -197c-26 -58 -61 -115.667 -105 -173s-90 -105.666 -138 -144.999l28 -6
c89.333 -20.667 151.666 -31 186.999 -31c12.667 0 24.5 1.83301 35.5 5.5s24.5 10.167 40.5 19.5c-8.66699 -34 -21.167 -58.833 -37.5 -74.5s-37.833 -23.5 -64.5 -23.5c-22.667 0 -49.834 5.16699 -81.501 15.5zM123 4.00195c-34 12 -59.332 18 -75.999 18
c-12 0 -20.833 -2.5 -26.5 -7.5s-8.5 -10.5 -8.5 -16.5c0 -7.33301 3.66699 -13.333 11 -18s15.666 -7 24.999 -7c19.333 0 44.333 10.333 75 31z" />
    <glyph glyph-name="three" unicode="3" horiz-adv-x="510" 
d="M75.5 -65.5c-24.333 14.333 -42.0029 32.3301 -53.0029 53.9971s-16.5 43.834 -16.5 66.501c0 28 7.33301 53 22 75s34.334 33 59.001 33c8.66699 0 14.667 -0.333008 18 -1c-9.33301 -8 -17 -21 -23 -39s-9 -36 -9 -54c0 -33.333 9.83301 -62.333 29.5 -87
s45.167 -37 76.5 -37c26.667 0 52.5 9.5 77.5 28.5s45.333 45.5 61 79.5s23.5 72.333 23.5 115c0 44 -8.83301 83 -26.5 117s-45.834 56 -84.501 66c31.333 14 59.333 34.833 84 62.5s43.834 57.834 57.501 90.501s20.5 63.334 20.5 92.001
c0 33.333 -8.66699 57.833 -26 73.5s-38.666 23.5 -63.999 23.5c-30 0 -56.5 -9.83301 -79.5 -29.5s-34.5 -45.834 -34.5 -78.501c0 -22.667 5.33301 -45 16 -67c-3.33301 -7.33301 -9.16602 -13.833 -17.499 -19.5s-15.833 -8.5 -22.5 -8.5
c-11.333 0 -20.333 8.33301 -27 25s-10 34.667 -10 54c0 30.667 9 57.5 27 80.5s41.5 40.5 70.5 52.5s58.833 18 89.5 18c43.333 0 79.833 -11.167 109.5 -33.5s44.5 -54.166 44.5 -95.499c0 -29.333 -7.83301 -60.333 -23.5 -93s-37 -61.5 -64 -86.5
s-56.167 -41.833 -87.5 -50.5c52 -13.333 90 -38.5 114 -75.5s36 -76.167 36 -117.5c0 -42 -12 -82.667 -36 -122s-57 -71.333 -99 -96s-88 -37 -138 -37c-38.667 0 -70.167 7.16699 -94.5 21.5z" />
    <glyph glyph-name="four" unicode="4" horiz-adv-x="478" 
d="M220 -40c0.666992 5.33301 3.00098 21.165 7.00098 47.498s11 67.166 21 122.499c0.666992 5.33301 8 40.666 22 105.999l-83 1c-78.667 0 -143.667 -5.33301 -195 -16c0 18 6 32 18 42c28.667 33.333 78.667 83.666 150 150.999c70 66 126.333 122 169 168
s77 92 103 138c2.66699 -1.33301 5.16699 -4.16602 7.5 -8.49902s3.5 -10.166 3.5 -17.499c0 -15.333 -6.33301 -33.666 -19 -54.999c-18.667 -78.667 -42.667 -195.667 -72 -351h42c25.333 0 45.333 2 60 6c-12 -17.333 -26.833 -31.5 -44.5 -42.5
s-32.834 -16.5 -45.501 -16.5h-22c-5.33301 -26.667 -9 -46.667 -11 -60c-6.66699 -35.333 -14 -83.166 -22 -143.499s-12 -99.833 -12 -118.5c-51.333 4.66699 -77 20.334 -77 47.001zM181.001 292.999c27.333 0 61.001 -0.666992 101.001 -2
c26.667 118 47.667 202.667 63 254c-16.667 -16.667 -53.334 -51.334 -110.001 -104.001c-61.333 -57.333 -104 -98.666 -128 -123.999l-14.5 -16l-12.5 -13c24 3.33301 57.667 5 101 5z" />
    <glyph glyph-name="five" unicode="5" horiz-adv-x="483" 
d="M67.5 -65.5c-25 14.333 -43.002 32.1699 -54.002 53.5029s-16.5 43.333 -16.5 66c0 28.667 7.33301 54 22 76s34.334 33 59.001 33c8.66699 0 14.667 -0.333008 18 -1c-9.33301 -8 -17 -21 -23 -39s-9 -37.333 -9 -58c0 -34 8.33301 -62.5 25 -85.5
s42.334 -34.5 77.001 -34.5c33.333 0 62.833 11.333 88.5 34s45.334 51.667 59.001 87s20.5 71.333 20.5 108c0 45.333 -11 82.666 -33 111.999s-55.667 44 -101 44c-24.667 0 -55.334 -3.66699 -92.001 -11c7.33301 48 33.666 149.667 78.999 305l25 89
c34.667 -8.66699 70 -13 106 -13c24.667 0 48.5 1.66699 71.5 5s50.833 8.33301 83.5 15c2.66699 -10 4 -19 4 -27c0 -26.667 -12 -45.834 -36 -57.501s-53 -17.5 -87 -17.5c-22 0 -46.333 2.66699 -73 8c-15.333 3.33301 -27.333 5 -36 5c-6 0 -10.333 -1.16699 -13 -3.5
s-6 -7.83301 -10 -16.5c-9.33301 -21.333 -19.5 -51.5 -30.5 -90.5s-23.5 -86.5 -37.5 -142.5l-8 -30c31.333 6.66699 60.333 10 87 10c64.667 0 113.834 -17.333 147.501 -52s50.5 -80.334 50.5 -137.001c0 -47.333 -11.333 -90.5 -34 -129.5s-54.167 -69.833 -94.5 -92.5
s-85.833 -34 -136.5 -34c-40.667 0 -73.5 7.16699 -98.5 21.5z" />
    <glyph glyph-name="six" unicode="6" horiz-adv-x="561" 
d="M98 -19c-32.667 45.333 -48.999 105 -48.999 179c0 78.667 16.5 162 49.5 250s79 161.667 138 221s124.833 89 197.5 89c28.667 0 51.5 -4.83301 68.5 -14.5s25.5 -24.167 25.5 -43.5c0 -22.667 -15.333 -38.667 -46 -48c0 4.66699 0.333008 9 1 13s1 9 1 15
c0 16.667 -4 30 -12 40s-22.333 15 -43 15c-40 0 -77.833 -19 -113.5 -57s-66.667 -86.5 -93 -145.5s-47.166 -120.833 -62.499 -185.5c22 20.667 47.833 36.667 77.5 48s60.167 17 91.5 17c53.333 0 97.166 -16.333 131.499 -49s51.5 -81 51.5 -145
c0 -50 -11 -95.333 -33 -136s-52.667 -72.667 -92 -96s-84 -35 -134 -35c-70.667 0 -122.334 22.667 -155.001 68zM345.001 -19.5c25.333 23.667 45 54.166 59 91.499s21 75.333 21 114c0 50.667 -11.833 89 -35.5 115s-53.5 39 -89.5 39
c-56.667 0 -97.834 -18.833 -123.501 -56.5s-38.5 -85.5 -38.5 -143.5c0 -49.333 8.83301 -94.166 26.5 -134.499s48.834 -60.5 93.501 -60.5c32.667 0 61.667 11.833 87 35.5z" />
    <glyph glyph-name="seven" unicode="7" horiz-adv-x="403" 
d="M71 -75c-6.66699 8 -10.0029 18.999 -10.0029 32.999c0 26.667 12 69.167 36 127.5s56.667 129.5 98 213.5c-21.333 -0.666992 -45.5 -2 -72.5 -4s-48.167 -4 -63.5 -6c0.666992 26.667 13.834 44.167 39.501 52.5s59.5 12.5 101.5 12.5h24
c24.667 46.667 60.667 108.334 108 185.001l57 96c-20.667 0 -45 -1 -73 -3c-11.333 -0.666992 -24.666 -1.33398 -39.999 -2.00098s-31.333 -1 -48 -1c-68 0 -102 15.667 -102 47c0 12 4.33301 26 13 42l31 -6c28 -4.66699 52.333 -8.16699 73 -10.5s47 -3.5 79 -3.5
c72.667 0 128.667 6.66699 168 20c-20.667 -33.333 -38.667 -58.333 -54 -75c-54 -79.333 -107.333 -176.666 -160 -291.999l33 -2c23.333 -2 45.333 -3 66 -3c13.333 0 24 1 32 3c-23.333 -34 -49.666 -51 -78.999 -51c-28.667 0 -54 0.333008 -76 1l-15 -35
c-23.333 -56 -41.5 -103.833 -54.5 -143.5s-19.5 -76.167 -19.5 -109.5c0 -19.333 4 -32 12 -38c-9.33301 -20 -22 -35 -38 -45s-30 -15 -42 -15c-9.33301 0 -17.333 4 -24 12z" />
    <glyph glyph-name="eight" unicode="8" horiz-adv-x="527" 
d="M102 -61.5c-26 17 -44.668 37.8311 -56.001 62.498s-17 50 -17 76c0 31.333 8.16699 60.333 24.5 87s36.333 50.334 60 71.001s55.834 45.667 96.501 75l35 26c-36 39.333 -63.667 75.333 -83 108s-29 69.334 -29 110.001c0 37.333 9 68.333 27 93s41 42.834 69 54.501
s57.667 17.5 89 17.5c46 0 82.667 -12.5 110 -37.5s41 -60.5 41 -106.5c0 -44.667 -12.5 -84.5 -37.5 -119.5s-60.167 -70.5 -105.5 -106.5c28 -30.667 50.167 -56.167 66.5 -76.5s30.333 -43.333 42 -69s17.5 -52.834 17.5 -81.501c0 -41.333 -11.833 -77.833 -35.5 -109.5
s-54.5 -56.167 -92.5 -73.5s-78 -26 -120 -26s-76 8.5 -102 25.5zM381.999 470.498c19.333 31.667 29.002 66.835 29.002 105.502c0 37.333 -8.83301 66 -26.5 86s-39.5 30 -65.5 30c-16.667 0 -33.334 -4.33301 -50.001 -13s-30.5 -22.334 -41.5 -41.001
s-16.5 -42.334 -16.5 -71.001c0 -34 7.66699 -65.667 23 -95s37.333 -60.333 66 -93c35.333 29.333 62.666 59.833 81.999 91.5zM287.501 -27.001c24.333 14 44.168 33.668 59.501 59.001s23 54 23 86c0 34 -8.5 65.167 -25.5 93.5s-41.5 60.166 -73.5 95.499
c-40.667 -29.333 -72.834 -54.333 -96.501 -75s-43.667 -43.834 -60 -69.501s-24.5 -53.167 -24.5 -82.5c0 -25.333 5.83301 -47.666 17.5 -66.999s27 -34.333 46 -45s39.167 -16 60.5 -16c24.667 0 49.167 7 73.5 21z" />
    <glyph glyph-name="nine" unicode="9" horiz-adv-x="566" 
d="M113 -72c-17.333 10 -25.998 25.001 -25.998 45.001c0 21.333 14.667 36.666 44 45.999l-1 -25c0 -17.333 4.16699 -31.333 12.5 -42s23.166 -16 44.499 -16c40 0 77.167 19 111.5 57s63.666 86.5 87.999 145.5s42.833 120.833 55.5 185.5
c-20.667 -20.667 -45.667 -36.667 -75 -48s-59.666 -17 -90.999 -17c-54.667 0 -100 17.167 -136 51.5s-54 84.833 -54 151.5c0 48.667 10.5 92.5 31.5 131.5s50.5 69.833 88.5 92.5s81.333 34 130 34c73.333 0 127.166 -24.167 161.499 -72.5s51.5 -111.5 51.5 -189.5
c0 -78.667 -15.333 -160.5 -46 -245.5s-73.834 -156.167 -129.501 -213.5s-119.167 -86 -190.5 -86c-29.333 0 -52.666 5 -69.999 15zM419.002 340.001c25.333 31.333 38 74.333 38 129c0 60.667 -9.33301 112.334 -28 155.001s-51 64 -97 64
c-31.333 0 -59.166 -11.333 -83.499 -34s-43 -51.834 -56 -87.501s-19.5 -72.5 -19.5 -110.5c0 -54 12.5 -94.667 37.5 -122s56.167 -41 93.5 -41c51.333 0 89.666 15.667 114.999 47z" />
    <glyph glyph-name="colon" unicode=":" horiz-adv-x="216" 
d="M79 247c-6 4.66699 -9 11.333 -9 20c0 10.667 6.33301 20.167 19 28.5s25.667 12.5 39 12.5c17.333 0 26 -8 26 -24c0 -10 -5.5 -19.833 -16.5 -29.5s-22.833 -14.5 -35.5 -14.5c-9.33301 0 -17 2.33301 -23 7zM19 -3.00098c-6 4.66699 -9 11.333 -9 20
c0 10.667 6.33301 20.167 19 28.5s25.667 12.5 39 12.5c17.333 0 26 -8 26 -24c0 -10 -5.5 -19.833 -16.5 -29.5s-22.833 -14.5 -35.5 -14.5c-9.33301 0 -17 2.33301 -23 7z" />
    <glyph glyph-name="semicolon" unicode=";" horiz-adv-x="213" 
d="M79 247c-6 4.66699 -9 11.333 -9 20c0 10.667 6.33301 20.167 19 28.5s25.667 12.5 39 12.5c17.333 0 26 -8 26 -24c0 -10 -5.5 -19.833 -16.5 -29.5s-22.833 -14.5 -35.5 -14.5c-9.33301 0 -17 2.33301 -23 7zM1 -51.001c0 22 6.66699 45.333 20 70s27 37 41 37
c6.66699 0 12.5 -2.83301 17.5 -8.5s7.5 -12.167 7.5 -19.5c-14 -14.667 -25.333 -29.5 -34 -44.5s-16 -29.333 -22 -43s-10.333 -23.167 -13 -28.5c-11.333 6.66699 -17 19 -17 37z" />
    <glyph glyph-name="less" unicode="&#x3c;" horiz-adv-x="310" 
d="M121 64c-24 13.333 -45.832 29.167 -65.499 47.5s-31.167 33.833 -34.5 46.5c32.667 14 67.167 36.333 103.5 67s65.166 61 86.499 91c1.33301 -2.66699 2.5 -6 3.5 -10s1.5 -8 1.5 -12c0 -24 -16.333 -48.333 -49 -73s-72.667 -49.334 -120 -74.001
c26.667 -19.333 50 -34.666 70 -45.999s50.667 -25 92 -41c-9.33301 -10.667 -19 -16 -29 -16c-15.333 0 -35 6.66699 -59 20z" />
    <glyph glyph-name="equal" unicode="=" horiz-adv-x="503" 
d="M111 244.5c32.667 7 75.999 10.5 129.999 10.5s110 -3 168 -9c-26.667 -19.333 -61 -29 -103 -29h-101c-33.333 0 -60 -0.666992 -80 -2s-44.333 -4.33301 -73 -9c6.66699 18.667 26.334 31.5 59.001 38.5zM110.999 144.5c32.667 7 75.999 10.5 129.999 10.5
s110 -3 168 -9c-26.667 -19.333 -61 -29 -103 -29h-101c-33.333 0 -60 -0.666992 -80 -2s-44.333 -4.33301 -73 -9c6.66699 18.667 26.334 31.5 59.001 38.5z" />
    <glyph glyph-name="greater" unicode="&#x3e;" horiz-adv-x="324" 
d="M68 60c41.333 16 72.001 29.666 92.001 40.999s43.333 26.666 70 45.999c-47.333 24.667 -87.333 49.334 -120 74.001s-49 49 -49 73c0 4 0.5 8 1.5 12s2.16699 7.33301 3.5 10c21.333 -30 50.166 -60.333 86.499 -91s70.833 -53 103.5 -67
c-3.33301 -12.667 -14.833 -28.167 -34.5 -46.5s-41.5 -34.166 -65.5 -47.499s-43.667 -20 -59 -20c-10 0 -19.667 5.33301 -29 16z" />
    <glyph glyph-name="question" unicode="?" horiz-adv-x="437" 
d="M208 142.5c-4 5.66699 -6 15.1631 -6 28.4961c0 34.667 7.66699 65.834 23 93.501s38.333 60.5 69 98.5c22 28 39.5 51.667 52.5 71s24 41.333 33 66s13.5 51 13.5 79c0 36 -7.33301 63.833 -22 83.5s-33.667 29.5 -57 29.5s-46.833 -9.66699 -70.5 -29
s-43 -45.333 -58 -78s-22.5 -67.667 -22.5 -105c0 -16 2.33301 -35 7 -57c-24 4 -40.333 12.333 -49 25s-13 30 -13 52c0 38 9 73.833 27 107.5s43 60.834 75 81.501s68 31 108 31c42 0 75 -11.5 99 -34.5s36 -55.833 36 -98.5c0 -35.333 -7.66699 -66.166 -23 -92.499
s-38.333 -56.833 -69 -91.5c-27.333 -31.333 -49.166 -59 -65.499 -83s-28.833 -51.667 -37.5 -83c-4.66699 -16 -8.33398 -34.667 -11.001 -56c-4 -25.333 -8.66699 -44.333 -14 -57c-12.667 6.66699 -21 12.834 -25 18.501zM169.5 -3.00391
c-6.33301 4.66699 -9.5 11.001 -9.5 19.001c0 11.333 6.16699 21.166 18.5 29.499s25.5 12.5 39.5 12.5c17.333 0 26 -7.33301 26 -22c0 -11.333 -5.33301 -21.833 -16 -31.5s-22.667 -14.5 -36 -14.5c-8.66699 0 -16.167 2.33301 -22.5 7z" />
    <glyph glyph-name="at" unicode="@" horiz-adv-x="583" 
d="M96.5 -92c-31.667 19.333 -55.1719 44.8418 -70.5049 76.5088s-23 66.167 -23 103.5c0 51.333 13.667 100.666 41 147.999s65.333 85.666 114 114.999s103.334 44 164.001 44c46.667 0 85.834 -8.5 117.501 -25.5s55.167 -39.333 70.5 -67s23 -57.167 23 -88.5
c0 -32.667 -8 -64.834 -24 -96.501s-37.333 -57.667 -64 -78s-55.334 -30.5 -86.001 -30.5c-21.333 0 -37.333 5.16699 -48 15.5s-16 24.833 -16 43.5c0 4 0.666992 10.667 2 20c-46 -62 -89.667 -93 -131 -93c-17.333 0 -31.5 5.66699 -42.5 17s-16.5 27.666 -16.5 48.999
c0 32 11.333 67.5 34 106.5s51.334 72 86.001 99s68.667 40.5 102 40.5c20.667 0 38 -5.5 52 -16.5s21 -25.5 21 -43.5c0 -22.667 -13.333 -34 -40 -34c2.66699 7.33301 4 16.333 4 27c0 13.333 -3 24.166 -9 32.499s-15.667 12.5 -29 12.5c-24 0 -49 -13 -75 -39
s-47.667 -57 -65 -93s-26 -67 -26 -93c0 -21.333 7.33301 -32 22 -32c21.333 0 46.333 16.667 75 50s59.667 74.666 93 123.999c6.66699 -0.666992 13.667 -2.83398 21 -6.50098s11 -8.16699 11 -13.5c0 -6 -5.33301 -18 -16 -36c-20 -32.667 -30 -58.334 -30 -77.001
c0 -22 11.333 -33 34 -33c20.667 0 41 8.33301 61 25s36.333 38.5 49 65.5s19 54.167 19 81.5c0 26.667 -6.33301 52 -19 76s-32.5 43.5 -59.5 58.5s-60.5 22.5 -100.5 22.5c-54.667 0 -103.5 -13.667 -146.5 -41s-76.5 -62.666 -100.5 -105.999s-36 -88 -36 -134
c0 -50.667 15 -93.334 45 -128.001s76 -52 138 -52c36.667 0 73.334 7 110.001 21s71.334 35.333 104.001 64l6 -8c-27.333 -30.667 -60.166 -55.334 -98.499 -74.001s-80.833 -28 -127.5 -28c-48 0 -87.833 9.66699 -119.5 29z" />
    <glyph glyph-name="A" unicode="A" horiz-adv-x="592" 
d="M-17 -35c0 26 13.8311 66.6689 41.498 122.002s64.5 119 110.5 191c-40.667 3.33301 -76.667 5 -108 5h-35c12.667 34.667 47.334 52 104.001 52c18 0 42 -2.33301 72 -7c51.333 77.333 103.5 150.166 156.5 218.499s94.833 116.833 125.5 145.5
c19.333 18.667 35.333 28 48 28c14 0 31.667 -10.667 53 -32c-13.333 -10.667 -32.666 -53.834 -57.999 -129.501s-48 -158.334 -68 -248.001s-30 -161.834 -30 -216.501c0 -26.667 2.83301 -46.667 8.5 -60s15.167 -20 28.5 -20c36.667 0 80.334 49.333 131.001 148l10 -10
c-20.667 -54.667 -46.5 -98.667 -77.5 -132s-62.833 -50 -95.5 -50c-26.667 0 -46.334 11.833 -59.001 35.5s-19 56.5 -19 98.5c0 42.667 5.66699 92.334 17 149.001c-42.667 6.66699 -92 13.334 -148 20.001c-65.333 -120 -123.333 -240 -174 -360
c-22.667 12.667 -34 30 -34 52zM399.998 483.002c22 67.333 44.001 125.333 66.001 174c-30 -18.667 -66.833 -58 -110.5 -118s-89.834 -133.333 -138.501 -220c26.667 -5.33301 54.667 -12 84 -20l45 -11c14 62.667 32 127.667 54 195z" />
    <glyph glyph-name="B" unicode="B" horiz-adv-x="608" 
d="M46.5 -68c-18.333 12.667 -27.501 32.998 -27.501 60.998c0 2 1.66699 3 5 3c2.66699 0 10.667 -1.66699 24 -5s36.666 -5 69.999 -5c74 0 141.5 11.167 202.5 33.5s108.833 51.833 143.5 88.5s52 75 52 115c0 48.667 -24 81.834 -72 99.501s-108 26.5 -180 26.5l-75 -1
l-43 -153l-47 -169c-16.667 0 -30.667 4.66699 -42 14s-17 20.666 -17 33.999c0 8.66699 2 19.334 6 32.001l8 25c20.667 69.333 51.834 161.833 93.501 277.5s81.167 210.167 118.5 283.5c-39.333 -6.66699 -78 -21.334 -116 -44.001c-12 -6.66699 -19.333 -10 -22 -10
c-5.33301 0 -12 3.33301 -20 10s-12 12.334 -12 17.001c44 18 82.833 31.667 116.5 41s73.834 14 120.501 14c61.333 0 115.166 -11.167 161.499 -33.5s69.5 -64.166 69.5 -125.499c0 -59.333 -22.167 -104 -66.5 -134s-98.5 -50.333 -162.5 -61
c152 -9.33301 228 -63 228 -161c0 -60 -24.333 -112.167 -73 -156.5s-107.167 -78 -175.5 -101s-129.833 -34.5 -184.5 -34.5c-37.333 0 -65.166 6.33301 -83.499 19zM413.999 421.998c60 31.333 89.999 80.333 89.999 147c0 86.667 -56.333 130 -169 130
c-8.66699 0 -15 -0.333008 -19 -1c-39.333 -76.667 -79.666 -185.667 -120.999 -327c86 2.66699 159 19.667 219 51z" />
    <glyph glyph-name="C" unicode="C" horiz-adv-x="534" 
d="M107.5 -53c-29.667 22.667 -51.3301 52.499 -64.9971 89.499s-20.5 77.167 -20.5 120.5c0 85.333 21 171.833 63 259.5s95 160 159 217s127 85.5 189 85.5c28.667 0 51.167 -7 67.5 -21s24.5 -35.667 24.5 -65c0 -26 -6 -56 -18 -90s-27 -63 -45 -87s-35.667 -36 -53 -36
c-13.333 0 -23.666 7.66699 -30.999 23c24.667 28 48.667 62 72 102s35 73 35 99c0 14 -4 25 -12 33s-20.333 12 -37 12c-46 0 -95.333 -29.833 -148 -89.5s-96.834 -132.834 -132.501 -219.501s-53.5 -166.667 -53.5 -240c0 -54.667 11.667 -100.5 35 -137.5
s58.666 -55.5 105.999 -55.5c34 0 68.667 9.83301 104 29.5s67.666 45.834 96.999 78.501s53 68.334 71 107.001l14 -10c-36 -70.667 -80.833 -128.167 -134.5 -172.5s-112.167 -66.5 -175.5 -66.5c-44.667 0 -81.834 11.333 -111.501 34z" />
    <glyph glyph-name="D" unicode="D" horiz-adv-x="653" 
d="M100.5 -77.5c-17.667 6.33301 -32.498 18.1689 -44.498 35.502c17.333 83.333 45.166 186.833 83.499 310.5s68.166 213.5 89.499 269.5c8 21.333 18.667 42.333 32 63s28.666 31 45.999 31c9.33301 0 18.666 -3.33301 27.999 -10c-40 -92.667 -80.5 -204 -121.5 -334
s-72.5 -245 -94.5 -345c16 -2.66699 30.333 -4 43 -4c68.667 0 134.334 25.667 197.001 77s113.334 117.166 152.001 197.499s58 161.5 58 243.5c0 78 -18.333 136.833 -55 176.5s-86.667 59.5 -150 59.5c-42.667 0 -81.5 -8.5 -116.5 -25.5s-62.5 -40.5 -82.5 -70.5
s-30 -63 -30 -99c0 -14.667 1.66699 -27 5 -37c-20.667 0 -35.834 5.16699 -45.501 15.5s-14.5 23.833 -14.5 40.5c0 31.333 14.333 62.666 43 93.999s67.167 57.333 115.5 78s100.166 31 155.499 31c84.667 0 147.334 -25 188.001 -75s61 -116.333 61 -199
c0 -93.333 -23.5 -181 -70.5 -263s-107.667 -147.5 -182 -196.5s-150.166 -73.5 -227.499 -73.5c-24 0 -44.833 3.16699 -62.5 9.5z" />
    <glyph glyph-name="E" unicode="E" horiz-adv-x="498" 
d="M77.5 -62.5c-29.667 16.333 -52.4971 38.3281 -68.4971 65.9951s-24 58.167 -24 91.5c0 40.667 11.667 80 35 118s54.833 69.833 94.5 95.5s82.834 40.834 129.501 45.501c-25.333 20.667 -44.333 44.834 -57 72.501s-19 56.167 -19 85.5c0 35.333 9 69 27 101
s42.667 57.667 74 77s66.333 29 105 29c36.667 0 64.834 -9.33301 84.501 -28s29.5 -45.334 29.5 -80.001c0 -24 -4.33301 -47.667 -13 -71s-19.334 -42.5 -32.001 -57.5s-24.334 -22.5 -35.001 -22.5c-7.33301 0 -14.333 3 -21 9s-12 13.667 -16 23c56 48.667 84 95 84 139
c0 20.667 -6 36.667 -18 48s-29.667 17 -53 17c-44.667 0 -79.667 -19.167 -105 -57.5s-38 -86.166 -38 -143.499c0 -67.333 19.333 -117.666 58 -150.999c-42.667 -7.33301 -80.834 -24 -114.501 -50s-59.834 -57.167 -78.501 -93.5s-28 -72.5 -28 -108.5
c0 -38 10.5 -71.667 31.5 -101s53.167 -44 96.5 -44c34 0 68.667 9.83301 104 29.5s67.666 45.834 96.999 78.501s53 68.334 71 107.001l14 -10c-37.333 -72 -82.666 -129.833 -135.999 -173.5s-112 -65.5 -176 -65.5c-38.667 0 -72.834 8.16699 -102.501 24.5z" />
    <glyph glyph-name="F" unicode="F" horiz-adv-x="482" 
d="M97 -65c-8.66699 12.667 -13 31.6621 -13 56.9951c0 28 6.66699 63.333 20 106s34 102.334 62 179.001c4 9.33301 9.33301 23.333 16 42c-16.667 -1.33301 -42.334 -4.33301 -77.001 -9l-34 -5c2.66699 44 46.334 67.333 131.001 70c43.333 119.333 82 214.333 116 285
c-17.333 1.33301 -30.333 2 -39 2c-42.667 0 -75.5 -4.33301 -98.5 -13s-39 -21.667 -48 -39s-13.5 -40.666 -13.5 -69.999c0 -27.333 4.33301 -53.666 13 -78.999c-44 7.33301 -66 33.333 -66 78c0 34 12.167 64.333 36.5 91s57.5 47.5 99.5 62.5s88.333 22.5 139 22.5
c24.667 0 59.667 -2.66699 105 -8l40 -4c20 -2 38 -3 54 -3c26.667 0 51.334 3.33301 74.001 10c-23.333 -26.667 -43.333 -45 -60 -55s-34.334 -15 -53.001 -15c-12.667 0 -35.334 2.33301 -68.001 7c-16.667 3.33301 -41.334 6.66602 -74.001 9.99902
c-18.667 -45.333 -50.667 -139.666 -96 -282.999c32 -2 62 -5 90 -9c42 -4 70.333 -6.33301 85 -7c-7.33301 -10.667 -16.166 -18.167 -26.499 -22.5s-26.333 -7.16602 -48 -8.49902s-60.167 -2.66602 -115.5 -3.99902l-44 -149c-33.333 -112 -50.666 -199 -51.999 -261
c-28 2 -46.333 9.33301 -55 22z" />
    <glyph glyph-name="G" unicode="G" horiz-adv-x="554" 
d="M113.5 -57.5c-28.333 19.667 -50.666 48.334 -66.999 86.001s-24.5 81.834 -24.5 132.501c0 83.333 21 168.666 63 255.999s95.167 159.5 159.5 216.5s127.166 85.5 188.499 85.5c35.333 0 61.5 -10.667 78.5 -32s25.5 -48.333 25.5 -81c0 -23.333 -4 -46.333 -12 -69
s-18.833 -41.167 -32.5 -55.5s-28.167 -21.5 -43.5 -21.5c-13.333 0 -23.666 7.66699 -30.999 23c10 6.66699 21.167 19 33.5 37s22.833 37.667 31.5 59s13 40.333 13 57c0 16 -4.83301 28.833 -14.5 38.5s-24.834 14.5 -45.501 14.5c-46 0 -95.333 -30 -148 -90
s-96.834 -133.333 -132.501 -220s-53.5 -166 -53.5 -238c0 -59.333 12.5 -106.5 37.5 -141.5s57.167 -52.5 96.5 -52.5c33.333 0 64.666 15.667 93.999 47s53.5 70.666 72.5 117.999s30.167 93.333 33.5 138c-38.667 8.66699 -73 13 -103 13l-61 -1
c8 34.667 30.667 52 68 52c16 0 32.167 -2.33301 48.5 -7s38.833 -12 67.5 -22c16.667 -7.33301 34.334 -13.333 53.001 -18l-7 -32c-23.333 -61.333 -39.333 -110.5 -48 -147.5s-13 -69.167 -13 -96.5c0 -10.667 0.666992 -26 2 -46c1.33301 -13.333 2 -24 2 -32
c-36 14 -54 38 -54 72c0 14.667 2.33301 30 7 46c-56.667 -78.667 -119.667 -118 -189 -118c-35.333 0 -67.166 9.83301 -95.499 29.5z" />
    <glyph glyph-name="H" unicode="H" horiz-adv-x="617" 
d="M91 72c15.333 57.333 39.9971 137.998 73.9971 241.998l-66 -7c0.666992 29.333 28.334 49.666 83.001 60.999l85 251l7.5 22c4.33301 12.667 6.5 25 6.5 37c0 5.33301 -0.833008 9 -2.5 11s-5.5 3 -11.5 3c-20.667 0 -40.5 -10.667 -59.5 -32s-34.5 -47 -46.5 -77
s-18 -56.333 -18 -79c0 -12.667 1.66699 -24 5 -34c-20.667 0 -35.834 5.16699 -45.501 15.5s-14.5 24.166 -14.5 41.499c0 28.667 11.167 58.167 33.5 88.5s49.5 55.333 81.5 75s60.333 29.5 85 29.5c16.667 0 28.5 -4.5 35.5 -13.5s10.5 -20.5 10.5 -34.5
c0 -11.333 -2.66699 -25.666 -8 -42.999l-78 -254c24 1.33301 43.333 2 58 2c52 0 108.667 -3 170 -9c20.667 68.667 40.5 131.334 59.5 188.001s32.833 94 41.5 112c16 34.667 34.333 52 55 52c-13.333 -35.333 -29.5 -85.666 -48.5 -150.999
s-37.833 -133.666 -56.5 -204.999c6.66699 0 17.334 -0.666992 32.001 -2c20 -1.33301 34.333 -2 43 -2c-13.333 -14 -26.333 -22.833 -39 -26.5s-27.667 -5.5 -45 -5.5c-14 -57.333 -24.333 -103 -31 -137c-22 -104.667 -33 -185.334 -33 -242.001
c0 -12 0.666992 -24 2 -36c-25.333 2.66699 -43.166 9.83398 -53.499 21.501s-15.5 30.5 -15.5 56.5c0 38.667 8 89 24 151c10.667 44 28.334 105.667 53.001 185c-53.333 0 -98.5 -0.5 -135.5 -1.5s-69.5 -2.83301 -97.5 -5.5c-57.333 -180.667 -93 -295 -107 -343
c-6.66699 -21.333 -16.667 -37.333 -30 -48s-26.333 -16 -39 -16c8.66699 48.667 20.667 101.667 36 159z" />
    <glyph glyph-name="I" unicode="I" horiz-adv-x="459" 
d="M8 -23c27.333 10 66.334 14.999 117.001 14.999c20 42.667 39.333 99.334 58 170.001s40.667 161.334 66 272.001l24.5 105.5c13 55.667 24.167 96.167 33.5 121.5c-52.667 -1.33301 -94.167 -3.33301 -124.5 -6s-63.833 -7.33398 -100.5 -14.001
c4.66699 26 23.167 45.333 55.5 58s81.833 19 148.5 19c43.333 0 89.5 -2.33301 138.5 -7s90.167 -9.33398 123.5 -14.001c-14 -14 -29.167 -23.333 -45.5 -28s-33.5 -7 -51.5 -7c-52 0 -88.333 -0.333008 -109 -1l-7 -36c-41.333 -229.333 -72 -383.666 -92 -462.999
c-11.333 -45.333 -23.666 -82.166 -36.999 -110.499s-29 -48.5 -47 -60.5c31.333 -2 63.666 -5 96.999 -9c48.667 -6 88.667 -9.33301 120 -10c-28.667 -28.667 -66.334 -43 -113.001 -43h-49c-61.333 -0.666992 -109.666 -1.83398 -144.999 -3.50098
s-71 -6.16699 -107 -13.5c3.33301 33.333 18.666 55 45.999 65z" />
    <glyph glyph-name="J" unicode="J" horiz-adv-x="411" 
d="M-31 44c0 42 7.16797 80.5029 21.501 115.503s32.5 52.5 54.5 52.5c8 0 17.333 -2.66699 28 -8c-24 -60.667 -36 -114 -36 -160c0 -30 5.33301 -53.333 16 -70s26.334 -25 47.001 -25c18 0 33.667 7.66699 47 23s27.333 42.666 42 81.999
c23.333 64.667 50.166 161 80.499 289s53.833 236 70.5 324c-49.333 -0.666992 -87.5 -2.33398 -114.5 -5.00098s-56.167 -7.66699 -87.5 -15c7.33301 47.333 61.666 71 162.999 71c34.667 0 71.667 -2.33301 111 -7s72 -9.33398 98 -14.001
c-6.66699 -11.333 -17.5 -19 -32.5 -23s-29.833 -6 -44.5 -6l-71 -1c6.66699 -5.33301 11.834 -12.5 15.501 -21.5s5.5 -17.5 5.5 -25.5c0 -17.333 -6.83301 -61.5 -20.5 -132.5s-31.334 -146.5 -53.001 -226.5s-44.5 -146.667 -68.5 -200c-24.667 -56 -50 -94.5 -76 -115.5
s-55.333 -31.5 -88 -31.5c-72 0 -108 43.333 -108 130z" />
    <glyph glyph-name="K" unicode="K" horiz-adv-x="590" 
d="M408 -23.5c-35.333 42.333 -70.667 93.332 -106 152.999s-64 113.5 -86 161.5l-97 -314c-6 -20 -16.5 -32.667 -31.5 -38s-34.167 -8 -57.5 -8c15.333 34.667 33.333 80.834 54 138.501l104 300.5l85 249c0.666992 1.33301 3 7.5 7 18.5s6 21.167 6 30.5
c0 16 -8 24 -24 24c-20.667 0 -40.5 -10.667 -59.5 -32s-34.5 -47 -46.5 -77s-18 -56.333 -18 -79c0 -12.667 1.66699 -24 5 -34c-20.667 0 -35.834 5.16699 -45.501 15.5s-14.5 24.166 -14.5 41.499c0 28.667 11.167 58.167 33.5 88.5s49.5 55.333 81.5 75
s60.333 29.5 85 29.5c16.667 0 28.5 -4.5 35.5 -13.5s10.5 -20.5 10.5 -34.5c0 -11.333 -2.66699 -25.666 -8 -42.999l-84 -272c6.66699 8.66699 15.667 18 27 28s23.333 20 36 30l23 18c50 40 100.833 86.333 152.5 139s91.834 102 120.501 148
c2.66699 -3.33301 4.83398 -9.83301 6.50098 -19.5s2.5 -17.834 2.5 -24.501c0 -72.667 -121.333 -190.667 -364 -354c36 -60.667 65.167 -108 87.5 -142s51.166 -70.5 86.499 -109.5s80 -80.5 134 -124.5c-4.66699 -9.33301 -12 -17.166 -22 -23.499s-20.667 -9.5 -32 -9.5
c-22.667 0 -51.667 21.167 -87 63.5z" />
    <glyph glyph-name="L" unicode="L" horiz-adv-x="570" 
d="M311.5 -70c-31 11.333 -71.835 28.666 -122.502 51.999l-52 24c-35.333 -39.333 -72.333 -59 -111 -59c-20 0 -37.667 4.66699 -53 14s-27 20.833 -35 34.5s-12 26.5 -12 38.5c0 13.333 5.83301 24 17.5 32s30.167 12 55.5 12c29.333 0 70.333 -7 123 -21
c16.667 29.333 32.334 64.166 47.001 104.499s32.667 94.5 54 162.5l24 76c-30.667 10 -54.834 24.667 -72.501 44s-26.5 40.333 -26.5 63c0 19.333 5.83301 37.333 17.5 54s26.5 25 44.5 25c-4.66699 -6 -8 -15 -10 -27s-3 -23.667 -3 -35
c0 -24.667 5.16699 -45.667 15.5 -63s24.166 -30.666 41.499 -39.999c30.667 94 62.667 167.333 96 220s73 79 119 79c24.667 0 47 -8 67 -24s30 -42 30 -78c0 -33.333 -9 -67.833 -27 -103.5s-45.167 -65.667 -81.5 -90s-80.166 -36.5 -131.499 -36.5h-16
c-27.333 -82.667 -51.666 -151 -72.999 -205s-45 -100.333 -71 -139c5.33301 -2 11 -3.83301 17 -5.5s12 -3.5 18 -5.5c56.667 -17.333 102 -30.166 136 -38.499s65.333 -12.5 94 -12.5c26.667 0 50.334 5.33301 71.001 16c-10.667 -30 -24.667 -51.667 -42 -65
s-38.333 -20 -63 -20c-26 0 -54.5 5.66699 -85.5 17zM416.998 448c30 27.333 53.334 59.833 70.001 97.5s25 70.834 25 99.501c0 18 -3.33301 30.833 -10 38.5s-15.334 11.5 -26.001 11.5c-28 0 -53.667 -23.833 -77 -71.5s-51 -119.834 -83 -216.501
c37.333 0 71 13.667 101 41zM98.999 22c-49.333 20 -87.333 30.001 -114 30.001c-22 0 -33 -6.33301 -33 -19s6.83301 -25.334 20.5 -38.001s30.167 -19 49.5 -19c28 0 53.667 15.333 77 46z" />
    <glyph glyph-name="M" unicode="M" horiz-adv-x="763" 
d="M15 -16l104.005 228.001l181 404c6.66699 15.333 10 29 10 41c0 8.66699 -2.33301 15.167 -7 19.5s-13.667 6.5 -27 6.5c-26.667 0 -49.334 -9.16699 -68.001 -27.5s-32.667 -41.5 -42 -69.5s-14 -56.333 -14 -85c0 -8.66699 0.666992 -19 2 -31
c-17.333 0 -30.5 8.66699 -39.5 26s-13.5 36 -13.5 56c0 28 10 55 30 81s45.167 47 75.5 63s60.166 24 89.499 24c23.333 0 42.166 -6.33301 56.499 -19s25.333 -35.334 33 -68.001s11.5 -78.334 11.5 -137.001c0 -54 -4 -135 -12 -243c-4 -51.333 -7 -101.666 -9 -150.999
c22.667 87.333 64.834 187 126.501 299s114.5 200.333 158.5 265c10.667 16 19.167 26.833 25.5 32.5s14.5 8.5 24.5 8.5c9.33301 0 20 -2.33301 32 -7c-16.667 -40 -31.667 -86.667 -45 -140c-22.667 -88 -43.5 -189.167 -62.5 -303.5s-28.5 -201.5 -28.5 -261.5
c0 -16 0.666992 -28 2 -36s3.66602 -16.667 6.99902 -26l6 -20c-22.667 0 -39.834 3.66699 -51.501 11s-19.667 18.666 -24 33.999s-6.5 37.666 -6.5 66.999c0 71.333 8.33301 147.333 25 228s41.667 184.334 75 311.001c-29.333 -38 -62 -92.5 -98 -163.5
s-69.5 -143.5 -100.5 -217.5s-54.167 -134 -69.5 -180c-7.33301 -2.66699 -12.333 -4 -15 -4c-16.667 0 -28.167 9.83301 -34.5 29.5s-9.5 50.5 -9.5 92.5c0 37.333 2.66699 109.333 8 216c5.33301 105.333 8 175 8 209c0 18.667 -0.666992 37.334 -2 56.001l-124 -296
c-46 -110.667 -80.333 -191 -103 -241s-43.334 -87.833 -62.001 -113.5s-37 -38.5 -55 -38.5z" />
    <glyph glyph-name="N" unicode="N" horiz-adv-x="640" 
d="M120 163l138.004 455.999c4.66699 16.667 7 30.334 7 41.001c0 15.333 -5 23 -15 23c-20.667 0 -39.834 -10 -57.501 -30s-31.834 -44 -42.501 -72s-16 -53.333 -16 -76c0 -13.333 1.66699 -25 5 -35c-20.667 0 -35.834 5.16699 -45.501 15.5s-14.5 24.166 -14.5 41.499
c0 28.667 11.167 58.167 33.5 88.5s49.333 55.333 81 75s60.167 29.5 85.5 29.5c24.667 0 44.5 -13.833 59.5 -41.5s26.167 -62.334 33.5 -104.001s15 -97.167 23 -166.5c14 -124.667 28.667 -236.667 44 -336c8.66699 56.667 24.167 128.334 46.5 215.001
s45.333 168.5 69 245.5s38.834 123.167 45.501 138.5c4.66699 10.667 13 21.5 25 32.5s24.667 16.5 38 16.5c-24 -63.333 -51.667 -150 -83 -260s-58.333 -216.5 -81 -319.5s-34.334 -178.833 -35.001 -227.5c-21.333 0 -38.333 6.16699 -51 18.5s-21.667 33.166 -27 62.499
c-8.66699 46.667 -22.834 135.5 -42.501 266.5l-48.5 328.5c-62 -223.333 -105.333 -375.666 -130 -456.999s-45.5 -138.166 -62.5 -170.499s-35.833 -48.5 -56.5 -48.5c11.333 42 36 125.333 74 250z" />
    <glyph glyph-name="O" unicode="O" horiz-adv-x="623" 
d="M112.5 -56.5c-29 20.333 -51.498 49.334 -67.498 87.001s-24 81.167 -24 130.5c0 83.333 21.167 168.666 63.5 255.999s95.833 159.5 160.5 216.5s128 85.5 190 85.5c25.333 0 45.333 -4 60 -12h-11c-55.333 0 -112.333 -29.5 -171 -88.5
s-107.334 -132.5 -146.001 -220.5s-58 -171.667 -58 -251c0 -58 11.167 -105.833 33.5 -143.5s55.833 -56.5 100.5 -56.5c59.333 0 113.5 29.167 162.5 87.5s87.667 131.166 116 218.499s42.5 171.333 42.5 252c0 34 -3.66699 65.5 -11 94.5s-18.666 43.5 -33.999 43.5
s-32.5 -12.167 -51.5 -36.5s-36.333 -53.5 -52 -87.5s-26.167 -64 -31.5 -90c-16 4 -28 10.333 -36 19s-12 18.667 -12 30c0 22.667 10.5 49.334 31.5 80.001s45.833 57 74.5 79s53.667 33 75 33c30.667 0 52.5 -19.667 65.5 -59s19.5 -84 19.5 -134
c0 -114 -20.333 -213.833 -61 -299.5s-91.334 -151.167 -152.001 -196.5s-119.334 -68 -176.001 -68c-38 0 -71.5 10.167 -100.5 30.5z" />
    <glyph glyph-name="P" unicode="P" horiz-adv-x="527" 
d="M39 -72.5c-14 9.66699 -20.999 21.499 -20.999 35.499c0 10 4.66699 28.333 14 55c50.667 157.333 92.667 282.666 126 375.999s73.333 193 120 299c-36.667 -7.33301 -75.334 -22.333 -116.001 -45c-13.333 -6.66699 -21 -10 -23 -10c-4.66699 0 -11 3.33301 -19 10
s-12 12.334 -12 17.001c85.333 36.667 159 55 221 55c41.333 0 81.833 -7.5 121.5 -22.5s72.167 -37 97.5 -66s38 -63.833 38 -104.5c0 -62.667 -24.667 -111.167 -74 -145.5s-103 -57.166 -161 -68.499s-106.667 -17 -146 -17h-10l-60 -214
c-23.333 -84.667 -39.333 -141 -48 -169c-18 0 -34 4.83301 -48 14.5zM351.001 342.999c48.667 18 88.832 44 120.499 78s47.5 75 47.5 123c0 50.667 -17.333 89 -52 115s-77.667 39.333 -129 40c-40.667 -80.667 -87 -209.667 -139 -387
c52.667 2.66699 103.334 13 152.001 31z" />
    <glyph glyph-name="Q" unicode="Q" horiz-adv-x="693" 
d="M439 -98c-24 14 -51.667 34.3311 -83 60.998c-34.667 -17.333 -68 -26 -100 -26c-28 0 -50.167 5.33301 -66.5 16s-27.666 22.834 -33.999 36.501s-9.5 25.5 -9.5 35.5c0 13.333 6.16699 25.333 18.5 36s30.5 16 54.5 16c24.667 0 48.334 -5.16699 71.001 -15.5
s52 -26.5 88 -48.5c37.333 34 70.166 80.5 98.499 139.5s50 120.833 65 185.5s22.5 121.667 22.5 171c0 57.333 -10.833 102.333 -32.5 135s-54.834 49 -99.501 49c-60.667 0 -116.167 -28.833 -166.5 -86.5s-89.833 -129.5 -118.5 -215.5s-43 -168.333 -43 -247
c0 -31.333 2.66699 -59.333 8 -84c-51.333 0 -77 46.333 -77 139c0 82.667 18.167 164.5 54.5 245.5s84.833 147.167 145.5 198.5s126 77 196 77c63.333 0 113 -21.667 149 -65s54 -102.666 54 -177.999c0 -55.333 -9.83301 -114 -29.5 -176s-46.667 -120.167 -81 -174.5
s-72.833 -97.833 -115.5 -130.5c26 -14.667 50.833 -26 74.5 -34s48.167 -12 73.5 -12c14.667 0 27 1.66699 37 5l21 7c-16 -54 -48.667 -81 -98 -81c-27.333 0 -53 7 -77 21zM334 -17.002c-25.333 22 -47.5 38.832 -66.5 50.499s-38.5 17.5 -58.5 17.5
c-14 0 -23.667 -2.66699 -29 -8s-8 -11.666 -8 -18.999c0 -13.333 6.5 -27 19.5 -41s34.5 -21 64.5 -21c26 0 52 7 78 21z" />
    <glyph glyph-name="R" unicode="R" horiz-adv-x="577" 
d="M376 -54.5c-35.333 44.333 -70.5049 97.6641 -105.505 159.997s-63.5 119.5 -85.5 171.5l-54 -190c-11.333 -42.667 -27.666 -100.667 -48.999 -174c-17.333 0 -32.666 4.83301 -45.999 14.5s-20 21.5 -20 35.5c0 10 4.66699 28.333 14 55
c44.667 138.667 85.667 258.167 123 358.5s80.666 206.5 129.999 318.5c-25.333 -4 -47.166 -9.83301 -65.499 -17.5s-38.166 -17.167 -59.499 -28.5c-12.667 -7.33301 -20.667 -11 -24 -11c-4.66699 0 -11 3.33301 -19 10s-12 12.334 -12 17.001
c85.333 36.667 160.333 55 225 55c41.333 0 81.333 -6.66699 120 -20s70.5 -34 95.5 -62s37.5 -63 37.5 -105c0 -59.333 -23.833 -105.166 -71.5 -137.499s-99.667 -53.666 -156 -63.999s-104.833 -15.5 -145.5 -15.5l18.5 -33l15.5 -27
c28.667 -51.333 53.834 -93.666 75.501 -126.999s48.667 -68.5 81 -105.5s71.166 -74.167 116.499 -111.5c-4 -8.66699 -11.167 -16.334 -21.5 -23.001s-20.166 -10 -29.499 -10c-23.333 0 -52.666 22.167 -87.999 66.5zM350.995 361.998c47.333 16.667 86.333 41 117 73
s46 71.667 46 119c0 50.667 -17.167 87.5 -51.5 110.5s-76.833 34.5 -127.5 34.5c-40 -80 -84.667 -202.333 -134 -367c52.667 3.33301 102.667 13.333 150 30z" />
    <glyph glyph-name="S" unicode="S" horiz-adv-x="536" 
d="M99 -67c-32 13.333 -57.5 33.498 -76.5 60.498s-28.5 59.833 -28.5 98.5c0 47.333 13 81.5 39 102.5s55.667 31.5 89 31.5c-18 -19.333 -31.667 -40.666 -41 -63.999s-14 -46.666 -14 -69.999c0 -40 13.167 -73.333 39.5 -100s64.166 -40 113.499 -40
c31.333 0 61.166 5.66699 89.499 17s51.5 28 69.5 50s27 48.333 27 79c0 26.667 -6.66699 50.167 -20 70.5s-30 37.666 -50 51.999s-46.667 31.5 -80 51.5c-34 20 -61.167 37.5 -81.5 52.5s-37.5 33.167 -51.5 54.5s-21 46 -21 74c0 38.667 12 78.834 36 120.501
s57.833 76.5 101.5 104.5s92.834 42 147.501 42c36.667 0 63.334 -9 80.001 -27s25 -42.333 25 -73c0 -33.333 -8 -70.666 -24 -111.999s-33.667 -77.333 -53 -108c-22 4.66699 -33 19 -33 43c0 12.667 2.5 27 7.5 43s12.167 36 21.5 60c10 26 17.5 47.167 22.5 63.5
s7.5 30.833 7.5 43.5c0 14 -4.16699 24.667 -12.5 32s-22.833 11 -43.5 11c-39.333 0 -75.833 -12.167 -109.5 -36.5s-60.5 -53.833 -80.5 -88.5s-30 -66.334 -30 -95.001c0 -21.333 5.83301 -40.333 17.5 -57s26.167 -31.167 43.5 -43.5s41 -26.833 71 -43.5
c36 -20.667 65 -39.167 87 -55.5s40.833 -37 56.5 -62s23.5 -54.5 23.5 -88.5c0 -44 -12.833 -82 -38.5 -114s-58.5 -56.5 -98.5 -73.5s-81.333 -25.5 -124 -25.5c-37.333 0 -72 6.66699 -104 20z" />
    <glyph glyph-name="T" unicode="T" horiz-adv-x="490" 
d="M126 -68.5c-12 12.333 -18.0039 29.832 -18.0039 52.499c0 17.333 3.16699 37.5 9.5 60.5s15.5 51.5 27.5 85.5c28 80.667 61 170.667 99 270s73 183.333 105 252c-72 -1.33301 -126 -3.16602 -162 -5.49902s-75.333 -7.16602 -118 -14.499
c2.66699 31.333 25.334 53.833 68.001 67.5s101.334 20.5 176.001 20.5c54 0 118.333 -4 193 -12c22 -2.66699 44.333 -5 67 -7s43.334 -3 62.001 -3c-21.333 -18.667 -45.666 -31.167 -72.999 -37.5s-60 -9.5 -98 -9.5l-71 1c-54.667 -136.667 -107 -295.667 -157 -477
l-9 -33c-15.333 -56 -26 -97.833 -32 -125.5s-9 -54.834 -9 -81.501c0 -10 0.333008 -17.333 1 -22c-28.667 0 -49 6.16699 -61 18.5z" />
    <glyph glyph-name="U" unicode="U" horiz-adv-x="706" 
d="M482.5 -68c-15 20.667 -22.4971 45.668 -22.4971 75.001c0 20.667 3 51 9 91c-56.667 -123.333 -128.667 -185 -216 -185c-41.333 0 -73.333 12.667 -96 38s-34 58 -34 98c0 27.333 4.83301 60.5 14.5 99.5s24.5 91.833 44.5 158.5c22 74 38.5 133.333 49.5 178
s16.5 84.334 16.5 119.001c0 58.667 -18.667 88 -56 88c-22.667 0 -42 -9.33301 -58 -28s-28 -41.5 -36 -68.5s-12 -52.5 -12 -76.5c0 -20 2.66699 -36.333 8 -49c-24 0 -41.5 6.33301 -52.5 19s-16.5 29.334 -16.5 50.001c0 28 8.83301 56 26.5 84s41.167 51.167 70.5 69.5
s60.666 27.5 93.999 27.5c35.333 0 61.333 -10.667 78 -32s25 -51 25 -89c0 -33.333 -5.16699 -70.333 -15.5 -111s-26.166 -95 -47.499 -163c-20 -64.667 -35 -116.5 -45 -155.5s-15 -73.833 -15 -104.5c0 -33.333 6.83301 -60.333 20.5 -81s34.834 -31 63.501 -31
c34 0 65 14.167 93 42.5s51.5 63.166 70.5 104.499s33.5 82.666 43.5 123.999c36 148 68.167 267.667 96.5 359s54.166 137 77.499 137c5.33301 0 12.666 -2.83301 21.999 -8.5s18.666 -13.5 27.999 -23.5c-12 -8 -33.333 -54.167 -64 -138.5s-58.334 -175.5 -83.001 -273.5
s-37 -176 -37 -234c0 -44.667 6 -75.334 18 -92.001s32.667 -25 62 -25c-23.333 -16 -45.333 -24 -66 -24c-24 0 -43.5 10.333 -58.5 31z" />
    <glyph glyph-name="V" unicode="V" horiz-adv-x="632" 
d="M151.5 -69c-18.333 12 -27.499 32.6719 -27.499 62.0049c0 18 3.66699 41.167 11 69.5s19 67.833 35 118.5c26 82.667 45.833 152.167 59.5 208.5s20.5 110.5 20.5 162.5c0 31.333 -1 56.333 -3 75s-7.33301 34.167 -16 46.5s-22.334 18.5 -41.001 18.5
c-22.667 0 -41.834 -8.83301 -57.501 -26.5s-27.167 -39.5 -34.5 -65.5s-11 -51.333 -11 -76c0 -22 3 -40 9 -54c-24.667 0 -42.667 6.66699 -54 20s-17 30.666 -17 51.999c0 27.333 8.5 54.833 25.5 82.5s39.667 50.5 68 68.5s58.166 27 89.499 27
c40.667 0 71.334 -15.833 92.001 -47.5s31 -75.167 31 -130.5c0 -48.667 -6.66699 -100 -20 -154s-32.333 -119 -57 -195c-17.333 -52.667 -30.333 -95.334 -39 -128.001s-13 -60 -13 -82c0 -12.667 2 -22.334 6 -29.001s11.333 -10 22 -10c36.667 0 83.334 35 140.001 105
s106.167 152.667 148.5 248s63.5 177.666 63.5 246.999c0 31.333 -4.83301 55.166 -14.5 71.499s-23.167 27.166 -40.5 32.499c9.33301 15.333 19 26.833 29 34.5s19.667 11.5 29 11.5c16 0 30.167 -9.66699 42.5 -29s18.5 -46.666 18.5 -81.999
c0 -71.333 -25 -160.833 -75 -268.5s-109.5 -201.5 -178.5 -281.5s-129.833 -120 -182.5 -120c-20.667 0 -40.167 6 -58.5 18z" />
    <glyph glyph-name="W" unicode="W" horiz-adv-x="906" 
d="M151.5 -69c-18.333 12 -27.499 32.6738 -27.499 62.0068c0 18 3.66699 41.167 11 69.5s19 67.833 35 118.5c26 82.667 45.833 152.167 59.5 208.5s20.5 110.5 20.5 162.5c0 31.333 -1 56.333 -3 75s-7.33301 34.167 -16 46.5s-22.334 18.5 -41.001 18.5
c-22.667 0 -41.834 -8.83301 -57.501 -26.5s-27.167 -39.5 -34.5 -65.5s-11 -51.333 -11 -76c0 -22 3 -40 9 -54c-24.667 0 -42.667 6.66699 -54 20s-17 30.666 -17 51.999c0 27.333 8.5 54.833 25.5 82.5s39.667 50.5 68 68.5s58.166 27 89.499 27
c40.667 0 71.334 -15.833 92.001 -47.5s31 -75.167 31 -130.5c0 -48.667 -6.66699 -99.834 -20 -153.501s-32.333 -118.5 -57 -194.5c-17.333 -52.667 -30.333 -95.334 -39 -128.001s-13 -60.334 -13 -83.001c0 -13.333 2.16699 -23.166 6.5 -29.499
s12.166 -9.5 23.499 -9.5c31.333 0 69 27.5 113 82.5s83.667 119 119 192s56 131.833 62 176.5c20 0 35 -5.16699 45 -15.5s15 -21.5 15 -33.5c0 -8.66699 -2.66699 -20.334 -8 -35.001s-15 -38.667 -29 -72c-24 -56 -42.333 -103.333 -55 -142s-19 -75.667 -19 -111
c0 -14 1.83301 -24.5 5.5 -31.5s11.167 -10.5 22.5 -10.5c36.667 0 83.334 35 140.001 105s106.167 152.667 148.5 248s63.5 177.666 63.5 246.999c0 31.333 -4.83301 55.166 -14.5 71.499s-23.167 27.166 -40.5 32.499c9.33301 15.333 19 26.833 29 34.5
s19.667 11.5 29 11.5c16 0 30.167 -9.66699 42.5 -29s18.5 -46.666 18.5 -81.999c0 -71.333 -25 -160.833 -75 -268.5s-109.5 -201.5 -178.5 -281.5s-129.833 -120 -182.5 -120c-22 0 -41.833 6.5 -59.5 19.5s-26.5 31.5 -26.5 55.5c0 18 6.66699 48 20 90
c-36 -50.667 -71.667 -90.834 -107 -120.501s-68.666 -44.5 -99.999 -44.5c-20.667 0 -40.167 6 -58.5 18z" />
    <glyph glyph-name="X" unicode="X" horiz-adv-x="662" 
d="M38 -65c6.66699 11.333 18.6641 26.001 35.9971 44.001c75.333 81.333 151 170.333 227 267l-3 40c-3.33301 42.667 -5.66602 103.334 -6.99902 182.001c-0.666992 62 -2.16699 107.167 -4.5 135.5s-7.5 50.166 -15.5 65.499s-21 23 -39 23
c-20.667 0 -39 -9.16699 -55 -27.5s-28.167 -41 -36.5 -68s-12.5 -52.833 -12.5 -77.5c0 -20 2.66699 -36.333 8 -49c-24 0 -41.5 6.33301 -52.5 19s-16.5 29.334 -16.5 50.001c0 27.333 8.83301 55.166 26.5 83.499s41 51.666 70 69.999s59.5 27.5 91.5 27.5
c36.667 0 63.5 -13.167 80.5 -39.5s27.5 -60 31.5 -101s6.33301 -98.833 7 -173.5c0.666992 -13.333 1 -34 1 -62c105.333 146 179.333 272 222 378c5.33301 -4 10.5 -10.833 15.5 -20.5s7.5 -18.834 7.5 -27.501c0 -25.333 -22.833 -73 -68.5 -143
s-104.167 -150.667 -175.5 -242c6.66699 -226 38 -339 94 -339c18.667 0 41.834 18 69.501 54s61.167 88.667 100.5 158l12 -10c-41.333 -84.667 -77.166 -145.667 -107.499 -183s-64.166 -56 -101.499 -56c-49.333 0 -83.5 26.833 -102.5 80.5
s-31.167 121.834 -36.5 204.501c-58 -71.333 -113.333 -136.333 -166 -195s-90.334 -97 -113.001 -115c2 20 6.33301 35.667 13 47z" />
    <glyph glyph-name="Y" unicode="Y" horiz-adv-x="666" 
d="M156 -162c-26 16.667 -39.0049 39.6641 -39.0049 68.9971c0 36.667 20 61.667 60 75c-5.33301 -18 -8 -36 -8 -54c0 -28 7.33301 -50 22 -66s36.334 -24 65.001 -24c58.667 0 104.167 28.833 136.5 86.5s56.5 123.167 72.5 196.5c2 8.66699 7.33301 35 16 79l11.5 56.5
l14.5 69.5c-28.667 -55.333 -60.667 -98.333 -96 -129s-75.666 -46 -120.999 -46c-38 0 -65.667 10.5 -83 31.5s-26 50.167 -26 87.5c0 24 3 50.333 9 79s15 63.667 27 105c11.333 40.667 19.5 72.667 24.5 96s7.5 44.666 7.5 63.999c0 23.333 -4.5 42.166 -13.5 56.499
s-23.5 21.5 -43.5 21.5c-22.667 0 -42.167 -9.33301 -58.5 -28s-28.666 -41.5 -36.999 -68.5s-12.5 -52.5 -12.5 -76.5c0 -20 2.66699 -36.333 8 -49c-24 0 -41.5 6.33301 -52.5 19s-16.5 29.334 -16.5 50.001c0 28 8.83301 56 26.5 84s41.167 51.167 70.5 69.5
s60.666 27.5 93.999 27.5c35.333 0 61.5 -10 78.5 -30s25.5 -43.667 25.5 -71c0 -15.333 -2.33301 -33.166 -7 -53.499s-12 -48.5 -22 -84.5c-12.667 -45.333 -22.167 -82.666 -28.5 -111.999s-9.5 -56.666 -9.5 -81.999c0 -64 23.333 -96 70 -96c42 0 81 24 117 72
s67.667 107 95 177c20.667 84.667 40.834 152.5 60.501 203.5s39.5 76.5 59.5 76.5c6.66699 0 15.334 -3 26.001 -9s20.667 -13.667 30 -23c-24 -38 -42.833 -73.333 -56.5 -106s-27.667 -75 -42 -127s-36.5 -139 -66.5 -261
c-19.333 -77.333 -38.666 -141.666 -57.999 -192.999s-47.833 -95.5 -85.5 -132.5s-86.167 -55.5 -145.5 -55.5c-40 0 -73 8.33301 -99 25z" />
    <glyph glyph-name="Z" unicode="Z" horiz-adv-x="631" 
d="M356 -68.5c-33.333 12.333 -75.9971 30.8359 -127.997 55.5029l-33 15c-48 -37.333 -90.667 -56 -128 -56c-27.333 0 -49.5 8.33301 -66.5 25s-25.5 35 -25.5 55c0 15.333 6.16699 27.833 18.5 37.5s31.833 14.5 58.5 14.5c32 0 77.333 -8.66699 136 -26
c58.667 62 123.667 151.667 195 269c-40 -0.666992 -83.333 -4.33398 -130 -11.001l-34 -5c1.33301 26 15.166 44.167 41.499 54.5s62.166 15.5 107.499 15.5c10 0 25 -0.666992 45 -2c54.667 97.333 93.667 176.333 117 237c-16.667 4 -44.334 13.667 -83.001 29
c-42 16.667 -78.5 29.667 -109.5 39s-59.5 14 -85.5 14c-75.333 0 -113 -48 -113 -144c0 -14.667 1.33301 -26.334 4 -35.001c-18.667 3.33301 -32.334 11 -41.001 23s-13 28.333 -13 49c0 44 17 77.5 51 100.5s81.333 34.5 142 34.5c33.333 0 64.833 -3 94.5 -9
s64.167 -14.667 103.5 -26c33.333 -10 60.833 -17.333 82.5 -22s43.5 -7 65.5 -7c14.667 0 25.334 0.666992 32.001 2c-18 -15.333 -34.667 -27 -50 -35c-32 -76.667 -75.333 -162 -130 -256l29 -3c37.333 -4 63 -6 77 -6c-7.33301 -10.667 -15.333 -18.334 -24 -23.001
s-20.334 -7.66699 -35.001 -9s-39 -2.33301 -73 -3c-74.667 -122 -147.334 -217 -218.001 -285c59.333 -18.667 107.5 -32.667 144.5 -42s70.5 -14 100.5 -14c26.667 0 50.334 5.33301 71.001 16c-10.667 -30 -24.667 -51.667 -42 -65s-38.333 -20 -63 -20
c-27.333 0 -57.666 6.16699 -90.999 18.5zM154.003 20.0029c-52 21.333 -90.668 32 -116.001 32c-24.667 0 -37 -8 -37 -24c0 -12.667 5.83301 -25 17.5 -37s26.167 -18 43.5 -18c24.667 0 55.334 15.667 92.001 47z" />
    <glyph glyph-name="bracketleft" unicode="[" horiz-adv-x="393" 
d="M105.5 -80.5c-32.333 4.33301 -57.832 8.83496 -76.499 13.502c3.33301 6 7.5 19 12.5 39s15.833 74.667 32.5 164l67 362c14 76 32.833 129.167 56.5 159.5s48.167 45.5 73.5 45.5l27 -1c18.667 -1.33301 33.667 -2 45 -2c43.333 0 76.666 6.66699 99.999 20
c-2 -33.333 -11.833 -55 -29.5 -65s-42.834 -15 -75.501 -15c-15.333 0 -39.666 3.33301 -72.999 10c-6 1.33301 -17.333 3.66602 -34 6.99902c-15.333 -44.667 -30.166 -101.834 -44.499 -171.501s-32.166 -163.167 -53.499 -280.5c-22 -125.333 -37.667 -204.333 -47 -237
c75.333 0.666992 126.5 2 153.5 4s55.833 7.66699 86.5 17c-2.66699 -26 -14.334 -45.167 -35.001 -57.5s-52.334 -18.5 -95.001 -18.5c-28 0 -58.167 2.16699 -90.5 6.5z" />
    <glyph glyph-name="backslash" unicode="\" horiz-adv-x="560" 
d="M362.5 -112c-19.667 28 -37.8311 72.667 -54.498 134c-8 30.667 -19.5 83.5 -34.5 158.5l-44.5 226.5l-39 200.5c-12.667 62.333 -21.334 99.833 -26.001 112.5c14.667 0 27.5 -4.66699 38.5 -14s18.5 -19.666 22.5 -30.999c14.667 -38 30 -91.833 46 -161.5
s35 -159.834 57 -270.501c26 -130 47.167 -228 63.5 -294s30.833 -103 43.5 -111c-28.667 5.33301 -52.834 22 -72.501 50z" />
    <glyph glyph-name="bracketright" unicode="]" horiz-adv-x="410" 
d="M17.5 -34.5c19 11 43.499 16.501 73.499 16.501c11.333 0 26.5 -0.666992 45.5 -2l42.5 -3l36 -3c16 46 32.333 108 49 186s36 175 58 291c20 106.667 35 181 45 223h-63c-40 0 -75.5 -1.33301 -106.5 -4s-61.833 -8.33398 -92.5 -17.001c0 26.667 10.5 44.5 31.5 53.5
s53.5 13.5 97.5 13.5c48 0 103.667 -7 167 -21l-18 -110c-39.333 -246.667 -65 -399 -77 -457c-6.66699 -34.667 -14.167 -65.667 -22.5 -93s-21.166 -52.5 -38.499 -75.5s-39.666 -34.5 -66.999 -34.5c-44.667 0 -82.334 -1 -113.001 -3s-57 -6.66699 -79 -14
c2 24.667 12.5 42.5 31.5 53.5z" />
    <glyph glyph-name="asciicircum" unicode="^" horiz-adv-x="203" 
d="M157 452c-11.333 13.333 -26 28.668 -44 46.001c-22.667 -8 -42 -16.333 -58 -25s-31 -19.334 -45 -32.001c-6.66699 4 -10 10.333 -10 19c-0 12 7.33301 24.833 22 38.5s31.334 25.334 50.001 35.001s32.667 14.5 42 14.5c10.667 0 23.167 -6.33301 37.5 -19
s26.666 -27.667 36.999 -45s15.5 -33 15.5 -47c0 -14.667 -5.66699 -25 -17 -31c-8.66699 17.333 -18.667 32.666 -30 45.999z" />
    <glyph glyph-name="underscore" unicode="_" horiz-adv-x="845" 
d="M75.5 -1.5c60.333 11.667 145.834 17.501 256.501 17.501c76.667 0 153.667 -3.33301 231 -10c62.667 -5.33301 113.667 -8 153 -8c-43.333 -30 -97.666 -45 -162.999 -45c-80.667 0 -136.667 -0.333008 -168 -1c-124 0 -205.333 -0.833008 -244 -2.5
s-92.334 -6.83398 -161.001 -15.501c3.33301 31.333 35.166 52.833 95.499 64.5z" />
    <glyph glyph-name="grave" unicode="`" horiz-adv-x="125" 
d="M0 520c2 20.667 9.33301 30.999 22 30.999c12 0 26.167 -8 42.5 -24s30.666 -34.167 42.999 -54.5s18.5 -34.5 18.5 -42.5c0 -4 -1.16699 -8.83301 -3.5 -14.5s-5.83301 -9.5 -10.5 -11.5c-25.333 34.667 -62.666 73.334 -111.999 116.001z" />
    <glyph glyph-name="a" unicode="a" horiz-adv-x="436" 
d="M-5.5 -25.5c-13.667 14.333 -20.501 34.8311 -20.501 61.498c0 39.333 14.167 83.333 42.5 132s64.166 90 107.499 124s85.666 51 126.999 51c26 0 47.667 -7 65 -21s26 -32 26 -54c0 -15.333 -4.33301 -26.333 -13 -33s-20.667 -10 -36 -10c3.33301 12 5 23.667 5 35
c0 16.667 -4 30.167 -12 40.5s-20.333 15.5 -37 15.5c-29.333 0 -60.166 -16.333 -92.499 -49s-59.333 -71.667 -81 -117s-32.5 -84.333 -32.5 -117c0 -26 9 -39 27 -39c26.667 0 58 21.167 94 63.5s74.667 93.833 116 154.5c8.66699 -1.33301 17.5 -4.16602 26.5 -8.49902
s13.5 -9.83301 13.5 -16.5c0 -5.33301 -3.16699 -13.833 -9.5 -25.5s-10.166 -18.5 -11.499 -20.5c-11.333 -19.333 -20.333 -36.5 -27 -51.5s-10 -28.833 -10 -41.5c0 -11.333 2.83301 -21.5 8.5 -30.5s14.167 -13.5 25.5 -13.5c19.333 0 43.666 13.833 72.999 41.5
s58.333 66.5 87 116.5l10 -10c-14 -35.333 -32 -66.833 -54 -94.5s-45.667 -49.167 -71 -64.5s-49.666 -23 -72.999 -23s-41.166 6.83301 -53.499 20.5s-18.5 30.167 -18.5 49.5c0 8.66699 1 18.334 3 29.001c-30 -40 -56.833 -69.333 -80.5 -88s-47.167 -28 -70.5 -28
c-22 0 -39.833 7.16699 -53.5 21.5z" />
    <glyph glyph-name="b" unicode="b" horiz-adv-x="394" 
d="M16 -39.5c-17.333 22.333 -26 53.165 -26 92.498c0 63.333 20 148 60 254s85.167 200.333 135.5 283s88.833 124 115.5 124c10 0 17.833 -6.5 23.5 -19.5s8.5 -27.5 8.5 -43.5c0 -31.333 -11 -73 -33 -125s-50.667 -102 -86 -150s-71.666 -83.333 -108.999 -106
c-8.66699 -16 -18.834 -46 -30.501 -90s-17.5 -84.333 -17.5 -121c0 -62.667 18.333 -94 55 -94c19.333 0 39.333 7.83301 60 23.5s37.334 35.834 50.001 60.501c-23.333 12 -41.333 29.833 -54 53.5s-19 48.834 -19 75.501c0 31.333 8.16699 56.833 24.5 76.5
s36.166 29.5 59.499 29.5c19.333 0 34.666 -8 45.999 -24s17 -38.667 17 -68c0 -44 -11.667 -89.333 -35 -136c8 -2 16.667 -3 26 -3c31.333 0 56.5 10 75.5 30s36.5 46.333 52.5 79l12 -13c-17.333 -42.667 -38.166 -72.334 -62.499 -89.001s-51.166 -25 -80.499 -25
c-11.333 0 -22 1 -32 3c-20 -33.333 -43.333 -60.166 -70 -80.499s-56.334 -30.5 -89.001 -30.5c-34 0 -59.667 11.167 -77 33.5zM201.5 407.499c28.333 43 51.667 85.667 70 128s27.5 72.166 27.5 89.499c0 5.33301 -1.33301 8 -4 8c-7.33301 0 -22.833 -17 -46.5 -51
s-48.167 -76.167 -73.5 -126.5s-45 -99.166 -59 -146.499c28.667 22.667 57.167 55.5 85.5 98.5zM255.001 169.999c0 22.667 -3.16797 40.832 -9.50098 54.499s-14.166 20.5 -23.499 20.5c-10 0 -18.833 -7 -26.5 -21s-11.5 -31 -11.5 -51s4 -39.667 12 -59
s20 -34.333 36 -45c15.333 32.667 23 66.334 23 101.001z" />
    <glyph glyph-name="c" unicode="c" horiz-adv-x="323" 
d="M26 -23c-20.667 22 -30.998 53.6689 -30.998 95.002c0 43.333 11 85.666 33 126.999s50.167 74.833 84.5 100.5s68.166 38.5 101.499 38.5c25.333 0 43.5 -7.16699 54.5 -21.5s16.5 -31.833 16.5 -52.5c0 -20 -4.5 -37.167 -13.5 -51.5s-21.167 -21.5 -36.5 -21.5
c-11.333 0 -21 5 -29 15c10 4.66699 18.667 15.167 26 31.5s11 32.166 11 47.499c0 8.66699 -1.66699 15 -5 19s-9 6 -17 6c-22.667 0 -46.834 -13.5 -72.501 -40.5s-47.334 -59.833 -65.001 -98.5s-26.5 -74 -26.5 -106c0 -24 5.66699 -43.833 17 -59.5s30 -23.5 56 -23.5
c40.667 0 80.834 16.667 120.501 50s70.167 77 91.5 131l13 -10c-15.333 -40 -36.333 -75.833 -63 -107.5s-56.167 -56.5 -88.5 -74.5s-64.5 -27 -96.5 -27c-33.333 0 -60.333 11 -81 33z" />
    <glyph glyph-name="d" unicode="d" horiz-adv-x="473" 
d="M7 -8.5c-15.333 14.333 -23.002 35.1689 -23.002 62.502c0 36.667 14 79.5 42 128.5s63 90.833 105 125.5s82.667 52 122 52c29.333 0 44 -10.333 44 -31c0 -2.66699 -0.666992 -7.33398 -2 -14.001c-6.66699 10 -19.334 15 -38.001 15
c-33.333 0 -65.666 -15.833 -96.999 -47.5s-56.833 -68.834 -76.5 -111.501s-29.5 -77.667 -29.5 -105c0 -14.667 3.16699 -26.334 9.5 -35.001s15.166 -13 26.499 -13c18 0 40 11.5 66 34.5s52.333 55.5 79 97.5s50.334 89.667 71.001 143
c52 134.667 95.5 239.5 130.5 314.5s64.5 112.5 88.5 112.5c5.33301 0 10 -2.16699 14 -6.5s6 -9.83301 6 -16.5c0 -10 -5.33301 -27.167 -16 -51.5s-28 -61.833 -52 -112.5c-49.333 -102.667 -88.666 -191.5 -117.999 -266.5s-44 -140.5 -44 -196.5
c0 -22 1.16699 -36.833 3.5 -44.5s8.83301 -11.5 19.5 -11.5c14 0 30.5 6.16699 49.5 18.5s37.833 29.666 56.5 51.999s34.667 48.166 48 77.499l12 -9c-12.667 -33.333 -30 -63.666 -52 -90.999s-45.5 -48.833 -70.5 -64.5s-48.833 -23.5 -71.5 -23.5
s-39.334 7.33301 -50.001 22s-16 32.334 -16 53.001c0 22.667 6.33301 58.334 19 107.001c-34 -56 -69.167 -101 -105.5 -135s-69.166 -51 -98.499 -51c-19.333 0 -36.666 7.16699 -51.999 21.5z" />
    <glyph glyph-name="e" unicode="e" horiz-adv-x="333" 
d="M17.5 -11.5c-21 21.667 -31.498 49.501 -31.498 83.501c0 39.333 13 81.666 39 126.999s58.833 83.5 98.5 114.5s78.5 46.5 116.5 46.5c41.333 0 62 -20.333 62 -61c0 -32.667 -12.333 -63.167 -37 -91.5s-56.334 -51.5 -95.001 -69.5s-77.334 -29 -116.001 -33
c-2.66699 -11.333 -4 -23.333 -4 -36c0 -24 6 -44 18 -60s32.333 -24 61 -24c40.667 0 81.667 17 123 51s75 76 101 126l12 -9c-26.667 -59.333 -63.667 -107 -111 -143s-96 -54 -146 -54c-39.333 0 -69.5 10.833 -90.5 32.5zM147.002 166.001
c30.667 18 56.832 39.167 78.499 63.5s32.5 49.833 32.5 76.5c0 8 -1.5 13.833 -4.5 17.5s-8.5 5.5 -16.5 5.5c-20.667 0 -43.167 -10.333 -67.5 -31s-46.666 -47 -66.999 -79s-34.833 -63.667 -43.5 -95c28 10 57.333 24 88 42z" />
    <glyph glyph-name="f" unicode="f" horiz-adv-x="312" 
d="M-51 -260.5c-11.333 13 -16.999 35.835 -16.999 68.502c0 70 25 180.167 75 330.5s108.5 284.833 175.5 403.5s126.167 178 177.5 178c12.667 0 21.5 -3.83301 26.5 -11.5s7.5 -18.5 7.5 -32.5c0 -36.667 -13 -78.334 -39 -125.001s-59.667 -92.334 -101 -137.001
s-83.666 -82 -126.999 -112c-4.66699 -10.667 -11 -27.334 -19 -50.001c6.66699 -1.33301 12.167 -5.16602 16.5 -11.499s7.16602 -13.166 8.49902 -20.499c5.33301 -37.333 10.666 -66.333 15.999 -87s13.5 -37.334 24.5 -50.001s26.5 -19 46.5 -19
c22 0 40.833 7.66699 56.5 23s33.834 40.333 54.501 75l15 -10c-16 -37.333 -36.333 -65.666 -61 -84.999s-48 -29 -70 -29c-12 0 -24.5 3 -37.5 9s-25.167 14 -36.5 24c0 -54.667 -7.66699 -109.334 -23 -164.001s-34.833 -99.5 -58.5 -134.5s-47.834 -52.5 -72.501 -52.5
c-14 0 -26.667 6.5 -38 19.5zM252.501 460.002c32.333 40.667 57.5 77.167 75.5 109.5s27 55.5 27 69.5c0 9.33301 -4.66699 14 -14 14c-24.667 0 -54.667 -28.833 -90 -86.5s-71.333 -132.167 -108 -223.5c40.667 37.333 77.167 76.333 109.5 117zM55.501 -180.998
c16.333 34 30.333 74.1641 42 120.497s17.5 86.5 17.5 120.5c0 20 -2.5 38.333 -7.5 55s-13.833 37.334 -26.5 62.001c-26 -76.667 -47 -147.667 -63 -213s-24 -114.666 -24 -147.999c0 -15.333 1.66699 -27.166 5 -35.499s8 -12.5 14 -12.5c12 0 26.167 17 42.5 51z" />
    <glyph glyph-name="g" unicode="g" horiz-adv-x="389" 
d="M-3 -265.5c-11.333 9.66699 -17.0049 24.1641 -17.0049 43.4971c0 24.667 9.66699 47.5 29 68.5s41.5 39 66.5 54s58.167 32.833 99.5 53.5c18.667 48 35.667 103 51 165c-59.333 -85.333 -113.666 -128 -162.999 -128c-23.333 0 -41.666 8.83301 -54.999 26.5
s-20 41.167 -20 70.5c0 44 14.167 86 42.5 126s63.333 72.167 105 96.5s80.834 36.5 117.501 36.5c18 0 31.5 -3 40.5 -9s13.5 -13.667 13.5 -23c0 -5.33301 -1.5 -9.83301 -4.5 -13.5s-5.5 -5.83398 -7.5 -6.50098c-6.66699 10 -20 15 -40 15
c-33.333 0 -65.5 -12.667 -96.5 -38s-56.167 -56 -75.5 -92s-29 -68.333 -29 -97c0 -16 3.16699 -28.167 9.5 -36.5s14.833 -12.5 25.5 -12.5c18 0 40.5 12.333 67.5 37s53.833 56.334 80.5 95.001l12 53c2.66699 12.667 8.16699 24.334 16.5 35.001s19.833 16 34.5 16
c6 0 13 -1 21 -3c0 -18 -7.33301 -54.167 -22 -108.5s-33 -109.5 -55 -165.5c34.667 16.667 66.834 39.834 96.501 69.501s51.834 62.834 66.501 99.501l13 -10c-14 -40.667 -39.167 -77.667 -75.5 -111s-73.5 -59 -111.5 -77c-31.333 -76 -63 -135.667 -95 -179
s-65.333 -65 -100 -65c-16 0 -29.667 4.83301 -41 14.5zM92.4951 -204.503c23 29 46.835 72.833 71.502 131.5c-48.667 -24.667 -86.334 -47.667 -113.001 -69s-40 -45 -40 -71c0 -10.667 2.16699 -19.167 6.5 -25.5s10.166 -9.5 17.499 -9.5c15.333 0 34.5 14.5 57.5 43.5z
" />
    <glyph glyph-name="h" unicode="h" horiz-adv-x="476" 
d="M17.5 -7c-7.66699 20.667 -11.5049 44.998 -11.5049 72.998c0 61.333 18.833 144 56.5 248s80.5 196.667 128.5 278s86 122 114 122c10.667 0 18.834 -6.5 24.501 -19.5s8.5 -27.5 8.5 -43.5c0 -31.333 -11.167 -73 -33.5 -125s-51.333 -102 -87 -150
s-72.167 -83.333 -109.5 -106c-12 -28 -21.167 -60.5 -27.5 -97.5s-9.5 -70.167 -9.5 -99.5c0 -10.667 0.666992 -22 2 -34c26.667 77.333 56.834 139.833 90.501 187.5s71.167 71.5 112.5 71.5c25.333 0 44.333 -8.83301 57 -26.5s19 -38.834 19 -63.501
c0 -14.667 -1.83301 -28.667 -5.5 -42s-9.5 -30.666 -17.5 -51.999c-6.66699 -18 -11.667 -32.333 -15 -43s-5 -21 -5 -31c0 -12.667 2.66699 -22.167 8 -28.5s12.666 -9.5 21.999 -9.5c22.667 0 49.334 15.833 80.001 47.5s56 69.167 76 112.5l13 -12
c-22 -50.667 -50.167 -92.334 -84.5 -125.001s-70.166 -49 -107.499 -49c-22 0 -39 5.83301 -51 17.5s-18 26.834 -18 45.501c0 14.667 5 38.334 15 71.001c10.667 36 16 62.667 16 80c0 16.667 -3.5 28.834 -10.5 36.501s-16.167 11.5 -27.5 11.5
c-24.667 0 -46.167 -14.5 -64.5 -43.5s-38.166 -69.833 -59.499 -122.5c-16 -38.667 -28.667 -66.667 -38 -84s-19.666 -26 -30.999 -26c-12 0 -21.833 10.333 -29.5 31zM206.495 407.498c28.333 43 51.666 85.668 69.999 128.001s27.5 72.166 27.5 89.499
c0 5.33301 -1.33301 8 -4 8c-7.33301 0 -22.5 -16.5 -45.5 -49.5s-47.167 -74.5 -72.5 -124.5s-45.666 -100 -60.999 -150c28.667 22.667 57.167 55.5 85.5 98.5z" />
    <glyph glyph-name="i" unicode="i" horiz-adv-x="241" 
d="M162.5 440.5c-7.66699 5.66699 -11.5 13.834 -11.5 24.501c0 13.333 8 25.333 24 36s32.333 16 49 16c22 0 33 -10.333 33 -31c0 -12.667 -6.83301 -24.834 -20.5 -36.501s-28.5 -17.5 -44.5 -17.5c-12 0 -21.833 2.83301 -29.5 8.5zM15 -2.5
c-13.333 15.667 -19.999 35.8311 -19.999 60.498c0 26 7.5 62 22.5 108s33.667 86.333 56 121s44.166 52 65.499 52c6 0 11.167 -2 15.5 -6s6.5 -9.33301 6.5 -16c0 -9.33301 -10.667 -31.666 -32 -66.999c-22 -36.667 -39.5 -69.5 -52.5 -98.5s-19.5 -56.5 -19.5 -82.5
c0 -23.333 3.83301 -39.166 11.5 -47.499s20.167 -12.5 37.5 -12.5c52 0 103.333 51 154 153l9 -10c-18.667 -56 -46.167 -99.667 -82.5 -131s-74.5 -47 -114.5 -47c-24.667 0 -43.667 7.83301 -57 23.5z" />
    <glyph glyph-name="j" unicode="j" horiz-adv-x="218" 
d="M106.5 445.5c-7.66699 5.66699 -11.499 13.501 -11.499 23.501c0 14 7.83301 26.333 23.5 37s32.167 16 49.5 16c10 0 18 -2.33301 24 -7s9 -11.667 9 -21c0 -14.667 -6.83301 -27.834 -20.5 -39.501s-28.834 -17.5 -45.501 -17.5c-11.333 0 -20.833 2.83301 -28.5 8.5z
M-178.499 -265.999c-9 9.33301 -13.498 21.6689 -13.498 37.002c0 24.667 11.833 51.667 35.5 81s53.834 54.333 90.501 75c10 6 23 12.667 39 20c10 4 18.333 8 25 12c28.667 71.333 51 153.333 67 246c-4 -7.33301 -15 -26 -33 -56
c-6.66699 -10 -11.334 -17.667 -14.001 -23l-9 15c12 22.667 26.333 55.667 43 99c14.667 37.333 26.667 64.5 36 81.5s19.666 25.5 30.999 25.5c7.33301 0 13.166 -2.83301 17.499 -8.5s6.5 -12.834 6.5 -21.501c0 -18 -7.83301 -60.333 -23.5 -127
s-34.5 -132.667 -56.5 -198l18 11c35.333 20 64.5 40.167 87.5 60.5s45.833 51.5 68.5 93.5l13 -7c-19.333 -44.667 -42.5 -78.834 -69.5 -102.501s-60.167 -46.167 -99.5 -67.5l-28 -16c-26 -70.667 -55.333 -129 -88 -175s-67.667 -69 -105 -69
c-16.667 0 -29.5 4.66699 -38.5 14zM-88.9971 -199.996c25.333 30.667 50 73 74 127c-48.667 -24 -86 -49.333 -112 -76s-39 -51 -39 -73c0 -16 5.66699 -24 17 -24c14.667 0 34.667 15.333 60 46z" />
    <glyph glyph-name="k" unicode="k" horiz-adv-x="446" 
d="M239 -8c-15.333 20 -26.5049 44.0059 -33.5049 72.0059s-10.5 54 -10.5 78c12.667 0 29.167 3.66699 49.5 11s38.5 18.166 54.5 32.499s24 31.833 24 52.5c0 13.333 -5 24.166 -15 32.499s-21.667 12.5 -35 12.5c-42.667 0 -79.167 -27.333 -109.5 -82
s-56.833 -116.334 -79.5 -185.001l-11 -29c-3.33301 -6 -8.16602 -10.5 -14.499 -13.5s-12.833 -4.5 -19.5 -4.5c-15.333 0 -25 8 -29 24s-6 39.333 -6 70c0 65.333 19.833 149.666 59.5 252.999s84.334 195.5 134.001 276.5s86.167 121.5 109.5 121.5
c8.66699 0 16 -6.33301 22 -19s9 -28 9 -46c0 -30.667 -8.83301 -65.667 -26.5 -105s-42.167 -77.333 -73.5 -114s-66 -66.334 -104 -89.001c-21.333 -52 -37.666 -103.667 -48.999 -155s-17 -95 -17 -131c29.333 74 63 139.167 101 195.5s79 84.5 123 84.5
c24.667 0 45.667 -8.66699 63 -26s26 -38.333 26 -63c0 -26 -8.5 -47.833 -25.5 -65.5s-36.667 -30.667 -59 -39s-41.5 -12.5 -57.5 -12.5c3.33301 -24.667 11.5 -52.334 24.5 -83.001s30.833 -46 53.5 -46c50 -0 99.333 54.333 148 163l10 -10
c-9.33301 -32.667 -23.666 -63.667 -42.999 -93s-41 -53 -65 -71s-47.333 -27 -70 -27c-23.333 0 -42.666 10 -57.999 30zM229.995 463.006c23.333 31.333 41.502 61.6689 54.502 91.002s19.5 52.666 19.5 69.999c0 6 -1 9 -3 9c-10 0 -30.333 -25.5 -61 -76.5
s-60.334 -109.5 -89.001 -175.5c29.333 23.333 55.666 50.666 78.999 81.999z" />
    <glyph glyph-name="l" unicode="l" horiz-adv-x="236" 
d="M22.5 -2c-13 18.667 -19.5 43.6689 -19.5 75.002c0 60 20.667 141.5 62 244.5s87.5 195.833 138.5 278.5s87.833 124 110.5 124c9.33301 0 17.166 -8.16699 23.499 -24.5s9.5 -32.833 9.5 -49.5c0 -30.667 -12.5 -75.834 -37.5 -135.501s-57.833 -120.167 -98.5 -181.5
s-84 -111 -130 -149c-8.66699 -38.667 -13 -72.334 -13 -101.001c0 -51.333 14.667 -77 44 -77c24.667 0 49.834 15.667 75.501 47s48.5 69 68.5 113l15 -8c-57.333 -122.667 -120 -184 -188 -184c-27.333 0 -47.5 9.33301 -60.5 28zM197.5 352.502
c35 55.667 63.5 108.999 85.5 159.999s33 87.833 33 110.5c0 10.667 -2.33301 16 -7 16c-9.33301 0 -28.5 -22.833 -57.5 -68.5s-58.833 -101.5 -89.5 -167.5s-54.667 -129 -72 -189c36.667 36.667 72.5 82.834 107.5 138.501z" />
    <glyph glyph-name="m" unicode="m" horiz-adv-x="646" 
d="M454 -10.5c-11.333 13.667 -16.9971 31.1709 -16.9971 52.5039c0 18 5.33301 44.333 16 79c3.33301 11.333 6.5 22.666 9.5 33.999s4.5 21 4.5 29c0 12 -2.83301 21 -8.5 27s-12.5 9 -20.5 9c-15.333 0 -31.833 -10.833 -49.5 -32.5s-44.834 -60.5 -81.501 -116.5
c-9.33301 -14.667 -22.333 -39.334 -39 -74.001l-9 -19c-10.667 0 -21.834 1.83301 -33.501 5.5s-17.5 8.5 -17.5 14.5c0 4.66699 5.66699 22.334 17 53.001c14 41.333 25.167 76.166 33.5 104.499s12.5 52.5 12.5 72.5c0 25.333 -8.33301 38 -25 38
c-18.667 0 -42.834 -15 -72.501 -45s-58.834 -67.833 -87.501 -113.5s-51 -90.5 -67 -134.5c-10 0 -21.5 2.33301 -34.5 7s-19.5 9.33398 -19.5 14.001c0 2 4.66699 17.667 14 47c15.333 44.667 28.166 85.667 38.499 123s15.833 69.666 16.5 96.999
c4.66699 5.33301 11.334 10.166 20.001 14.499s17.334 6.5 26.001 6.5c18 0 27 -8.66699 27 -26c0 -18 -8.66699 -56 -26 -114c32.667 52 67.834 96.667 105.501 134s72.834 56 105.501 56c19.333 0 33.166 -7 41.499 -21s12.5 -32.333 12.5 -55
s-3.33301 -47.334 -10 -74.001s-13.667 -49 -21 -67c25.333 46 51.666 83.167 78.999 111.5s56.333 42.5 87 42.5c20 0 34.5 -6 43.5 -18s13.5 -27.333 13.5 -46c0 -12.667 -1.66699 -26.167 -5 -40.5s-8.33301 -31.833 -15 -52.5c-11.333 -35.333 -17 -60 -17 -74
c0 -22.667 10 -34 30 -34c24.667 0 48 15.167 70 45.5s43.333 67.833 64 112.5l12 -14c-18.667 -49.333 -43 -91.5 -73 -126.5s-63.333 -52.5 -100 -52.5c-22 0 -38.667 6.83301 -50 20.5z" />
    <glyph glyph-name="n" unicode="n" horiz-adv-x="466" 
d="M271 -2.5c-12 11.667 -18.0049 27.1699 -18.0049 46.5029c0 8.66699 1.5 18.834 4.5 30.501s6.16699 23.167 9.5 34.5c4 12 7.5 24.667 10.5 38s4.5 25.333 4.5 36c0 32.667 -13.333 49 -40 49c-25.333 0 -51.833 -13.333 -79.5 -40s-52.334 -56.334 -74.001 -89.001
s-46.167 -72 -73.5 -118c-11.333 0 -21.666 1.83301 -30.999 5.5s-16.666 9.16699 -21.999 16.5c0 3.33301 4.33301 15.333 13 36c16.667 42.667 30.334 81.5 41.001 116.5s16.334 66.167 17.001 93.5c4.66699 5.33301 11.334 10.166 20.001 14.499s17.334 6.5 26.001 6.5
c18 0 27 -8.66699 27 -26c0 -10 -3 -27.5 -9 -52.5s-13.667 -51.5 -23 -79.5c32 49.333 66 91 102 125s71.333 51 106 51c24.667 0 43.167 -8.83301 55.5 -26.5s18.5 -38.834 18.5 -63.501c0 -14.667 -1.83301 -28.667 -5.5 -42s-9.16699 -28.666 -16.5 -45.999
c-6 -14.667 -10.667 -27.334 -14 -38.001s-5 -21.334 -5 -32.001c0 -25.333 10 -38 30 -38c22.667 0 46.167 15 70.5 45s47.5 67 69.5 111l11 -13c-48 -112.667 -105.667 -169 -173 -169c-22.667 0 -40 5.83301 -52 17.5z" />
    <glyph glyph-name="o" unicode="o" horiz-adv-x="365" 
d="M9 -7c-12.667 16.667 -19.001 38.665 -19.001 65.998s5.66699 56 17 86s26 55 44 75s36 30 54 30c6 0 13 -1.66699 21 -5c-8 -6.66699 -17.667 -21.334 -29 -44.001s-21.166 -46.834 -29.499 -72.501s-12.5 -46.5 -12.5 -62.5c0 -38 12 -57 36 -57
c14 0 30.667 7.33301 50 22s38.333 34 57 58c-18.667 15.333 -33.167 35.333 -43.5 60s-15.5 50.334 -15.5 77.001c0 34.667 8.83301 64.334 26.5 89.001s41.5 37 71.5 37c25.333 0 43.166 -6.83301 53.499 -20.5s15.5 -32.5 15.5 -56.5
c0 -25.333 -6.16699 -53.833 -18.5 -85.5s-28.5 -62.5 -48.5 -92.5c12 -6.66699 24.667 -10 38 -10c19.333 0 39.333 5.83301 60 17.5s36.334 29.834 47.001 54.501l12 -10c-12.667 -29.333 -30.667 -51 -54 -65s-47.333 -21 -72 -21c-18 0 -34 3.33301 -48 10
c-24 -31.333 -49.5 -56.666 -76.5 -75.999s-52.5 -29 -76.5 -29c-27.333 0 -47.333 8.33301 -60 25zM257.999 194.498c10.667 27 16.001 51.834 16.001 74.501c0 18.667 -2.83301 32.667 -8.5 42s-12.834 14 -21.501 14c-9.33301 0 -18.833 -4.5 -28.5 -13.5
s-17.667 -21.333 -24 -37s-9.5 -32.834 -9.5 -51.501c0 -20.667 2.83301 -40.5 8.5 -59.5s14.167 -35.167 25.5 -48.5c17.333 26 31.333 52.5 42 79.5z" />
    <glyph glyph-name="p" unicode="p" horiz-adv-x="391" 
d="M-78 -272c-4.66699 5.33301 -8.66699 11.334 -12 18.001s-4.66602 10.667 -3.99902 12c9.33301 32 20.666 67.333 33.999 106c14.667 42.667 27 81.667 37 117s20.5 83.166 31.5 143.499s22.167 137.5 33.5 231.5c0.666992 6.66699 2.16699 11.167 4.5 13.5
s7.16602 3.5 14.499 3.5c16 0 28 -4.5 36 -13.5s12 -19.833 12 -32.5c0 -18.667 -7.66699 -63.667 -23 -135c20.667 40 45.834 74.5 75.501 103.5s62.167 43.5 97.5 43.5c29.333 0 53.5 -10.5 72.5 -31.5s28.5 -48.5 28.5 -82.5c0 -35.333 -10.333 -72.833 -31 -112.5
s-49.167 -72.667 -85.5 -99s-76.166 -39.5 -119.499 -39.5c-16.667 0 -30.5 1.83301 -41.5 5.5s-16.5 7.83398 -16.5 12.501c0 2 2.5 3.33301 7.5 4s10.833 1 17.5 1c34.667 0 67.667 11 99 33s56.666 50 75.999 84s29 68 29 102c0 22.667 -4.83301 41.167 -14.5 55.5
s-23.834 21.5 -42.501 21.5c-21.333 0 -43.166 -8.83301 -65.499 -26.5s-42.333 -39 -60 -64s-31.167 -48.5 -40.5 -70.5c-24.667 -105.333 -48.5 -196.833 -71.5 -274.5s-40.167 -121.834 -51.5 -132.501c-3.33301 -3.33301 -7.33301 -5 -12 -5
c-5.33301 0 -10.333 2.66699 -15 8z" />
    <glyph glyph-name="q" unicode="q" horiz-adv-x="401" 
d="M159 -207c0 36 5.49707 83.666 16.4971 142.999s25.167 113.333 42.5 162c-28 -40 -55.5 -71.333 -82.5 -94s-52.167 -34 -75.5 -34c-19.333 0 -36.666 7.16699 -51.999 21.5s-23 35.833 -23 64.5c0 38.667 14.167 81.834 42.5 129.501s64.333 88.167 108 121.5
s86.834 50 129.501 50c22.667 0 41.5 -4.66699 56.5 -14s22.5 -21 22.5 -35c0 -9.33301 -3 -17.833 -9 -25.5s-14 -11.5 -24 -11.5c0 16 -4.66699 29.167 -14 39.5s-23.666 15.5 -42.999 15.5c-34 0 -66.333 -15.5 -97 -46.5s-55.334 -67.5 -74.001 -109.5
s-28 -76.667 -28 -104c0 -14.667 3.16699 -26.334 9.5 -35.001s14.833 -13 25.5 -13c23.333 0 49.833 18.5 79.5 55.5s65.5 89.167 107.5 156.5c12.667 20.667 27.334 31 44.001 31c13.333 0 20 -6 20 -18c0 -6 -2.33301 -13.833 -7 -23.5s-10 -20.167 -16 -31.5
c-14.667 -26 -27.334 -51 -38.001 -75s-19.667 -52 -27 -84c32 2.66699 61.833 14 89.5 34s53.5 52.667 77.5 98l12 -11c-20.667 -46.667 -47.167 -81.667 -79.5 -105s-66.166 -36.666 -101.499 -39.999c11.333 -36 17 -73.667 17 -113
c0 -30.667 -3.33301 -59.167 -10 -85.5s-15.5 -47.333 -26.5 -63s-23.5 -23.5 -37.5 -23.5c-23.333 0 -35 24.333 -35 73zM238.997 -185.501c4.66699 26.333 7 55.167 7 86.5c0 27.333 -2.33301 52.333 -7 75c-8 -34 -14.333 -66.667 -19 -98s-7 -56.333 -7 -75
s2.66699 -28 8 -28c7.33301 0 13.333 13.167 18 39.5z" />
    <glyph glyph-name="r" unicode="r" horiz-adv-x="348" 
d="M119.5 -8c-13 12 -19.502 27.665 -19.502 46.998c0 22.667 9.66699 55.334 29 98.001c8.66699 22 15.167 39.5 19.5 52.5s6.5 25.167 6.5 36.5c0 16.667 -3.83301 29.834 -11.5 39.501s-16.167 17.667 -25.5 24s-15.666 10.5 -18.999 12.5
c-14.667 -37.333 -30.334 -73.833 -47.001 -109.5s-30.667 -63.167 -42 -82.5l-9 17c32 62 59 125.333 81 190c-6.66699 6.66699 -10 14.667 -10 24c0 12 2.5 23.333 7.5 34s11 19 18 25s12.5 9 16.5 9c9.33301 0 14 -8 14 -24c0 -2.66699 -1.66699 -8.66699 -5 -18
s-5.33301 -15.666 -6 -18.999c0 -6.66699 2.83301 -12.834 8.5 -18.501s14.834 -12.834 27.501 -21.501c20.667 -14.667 36.834 -29.167 48.501 -43.5s17.5 -32.833 17.5 -55.5c0 -14.667 -2.33301 -29.167 -7 -43.5s-11.667 -33.166 -21 -56.499
c-14.667 -32 -22 -55 -22 -69c0 -20 10 -30 30 -30s41.5 8 64.5 24s44.167 35.833 63.5 59.5s33.333 45.5 42 65.5l13 -10c-20.667 -46 -50.667 -86.667 -90 -122s-79 -53 -119 -53c-22.667 0 -40.5 6 -53.5 18z" />
    <glyph glyph-name="s" unicode="s" horiz-adv-x="345" 
d="M10 -12c-20 26 -30.002 56.666 -30.002 91.999c0 26.667 4.66699 45.5 14 56.5s19.5 18.833 30.5 23.5s17.5 8 19.5 10c42.667 46.667 75.667 95 99 145v12c0 22.667 3.83301 39.667 11.5 51s16.834 17 27.501 17c5.33301 0 9.33301 -1.16699 12 -3.5s4 -5.5 4 -9.5
c0 -2.66699 -1 -8.16699 -3 -16.5s-3 -17.5 -3 -27.5c0 -13.333 1.83301 -27.5 5.5 -42.5s9.5 -34.5 17.5 -58.5c9.33301 -28.667 16.5 -53.667 21.5 -75s7.5 -43 7.5 -65c0 -17.333 -2 -33.666 -6 -48.999c24 4 46.333 14.833 67 32.5s40.334 44.5 59.001 80.5l9 -10
c-12 -34.667 -30.333 -62 -55 -82s-53 -32.333 -85 -37c-10 -27.333 -26.333 -48 -49 -62s-49 -21 -79 -21c-43.333 0 -75 13 -95 39zM178.998 95.999c0 20 -1.66895 40 -5.00195 60s-8.33301 43 -15 69c-6 26.667 -9.66699 44 -11 52c-34 -56 -66.333 -99.333 -97 -130
c10.667 -23.333 26.834 -44 48.501 -62s46.834 -30 75.501 -36c2.66699 17.333 4 33 4 47zM169.996 32.999c-26.667 5.33301 -51 15.833 -73 31.5s-38.667 32.834 -50 51.501c-14.667 -0.666992 -22 -12.334 -22 -35.001c0 -25.333 7.5 -47.833 22.5 -67.5
s34.833 -29.5 59.5 -29.5c30.667 0 51.667 16.333 63 49z" />
    <glyph glyph-name="t" unicode="t" horiz-adv-x="285" 
d="M-4 53c0 28.667 5.16797 64.1699 15.501 106.503s24.5 87.166 42.5 134.499c-16 2.66699 -28 5.33398 -36 8.00098v18c24 -2.66699 38.667 -4 44 -4c29.333 76 60.833 141.833 94.5 197.5s60.167 83.5 79.5 83.5c5.33301 0 10.166 -2 14.499 -6s6.5 -9.33301 6.5 -16
c0 -8.66699 -4.16699 -21.334 -12.5 -38.001s-22.5 -42.334 -42.5 -77.001c-3.33301 -6.66699 -13.666 -25.167 -30.999 -55.5s-33 -60.833 -47 -91.5h37c55.333 0 103 2 143 6v-18c-72.667 -8 -131.334 -12 -176.001 -12h-15c-36.667 -84 -55 -156.667 -55 -218
c0 -28.667 4.33301 -49.167 13 -61.5s23 -18.5 43 -18.5c34 0 67.667 15.167 101 45.5s63 72.166 89 125.499l13 -10c-24.667 -58 -58 -105.5 -100 -142.5s-86 -55.5 -132 -55.5c-59.333 0 -89 33 -89 99z" />
    <glyph glyph-name="u" unicode="u" horiz-adv-x="438" 
d="M21 -0.5c-14 19.667 -21.001 43.501 -21.001 71.501c0 24.667 5.16699 55.167 15.5 91.5s22.666 68 36.999 95s26.166 40.5 35.499 40.5c4 0 9.83301 -2 17.5 -6s14.167 -8.66699 19.5 -14c-14 -22 -28.667 -53.5 -44 -94.5s-23 -76.5 -23 -106.5
c0 -15.333 2.5 -30.333 7.5 -45s14.5 -22 28.5 -22c23.333 0 48.833 21.5 76.5 64.5s57.5 97.5 89.5 163.5l16 33c32 -6 48 -14.667 48 -26c0 -1.33301 -1.5 -5.83301 -4.5 -13.5s-5.83301 -14.5 -8.5 -20.5c-15.333 -34 -28.166 -65.833 -38.499 -95.5
s-15.5 -54.834 -15.5 -75.501c0 -26.667 11 -40 33 -40c14.667 0 32 6.5 52 19.5s40.333 31.833 61 56.5s38.667 53.334 54 86.001l13 -9c-14 -35.333 -32.167 -66.833 -54.5 -94.5s-46.5 -49.334 -72.5 -65.001s-50.667 -23.5 -74 -23.5c-46.667 0 -70 24.667 -70 74
c0 13.333 2.33301 30 7 50c-21.333 -38 -42.666 -68.167 -63.999 -90.5s-43.666 -33.5 -66.999 -33.5c-22 0 -40 9.83301 -54 29.5z" />
    <glyph glyph-name="v" unicode="v" horiz-adv-x="407" 
d="M22.5 -10.5c-8.33301 19 -12.498 46.166 -12.498 81.499c0 12.667 2 56.334 6 131.001c1.33301 20 3.66602 32.833 6.99902 38.5s11.666 8.5 24.999 8.5c11.333 0 18.5 -2.16699 21.5 -6.5s4.5 -12.833 4.5 -25.5c0 -13.333 -1.33301 -38 -4 -74
c-3.33301 -32 -5 -61 -5 -87c0 -20 1.66699 -34.333 5 -43s9.33301 -13 18 -13c22 0 48.667 22.5 80 67.5s59.666 95.5 84.999 151.5c1.33301 42 5.83301 71.333 13.5 88s18.5 25 32.5 25c11.333 0 20.166 -4.16699 26.499 -12.5s9.5 -16.833 9.5 -25.5
c0 -6.66699 -3.33301 -16 -10 -28c-8 -15.333 -14.167 -30.5 -18.5 -45.5s-6.5 -35.167 -6.5 -60.5c0 -22 3.16699 -40.167 9.5 -54.5s18.833 -21.5 37.5 -21.5c14.667 0 28.334 5.66699 41.001 17s25.334 30.333 38.001 57l13 -10c-24 -56 -57 -84 -99 -84
c-22.667 0 -41.167 8.16699 -55.5 24.5s-23.833 40.5 -28.5 72.5c-27.333 -54.667 -58.5 -101.667 -93.5 -141s-67.5 -59 -97.5 -59c-20 0 -34.167 9.5 -42.5 28.5z" />
    <glyph glyph-name="w" unicode="w" horiz-adv-x="617" 
d="M228 58c0 24 2.33008 54.001 6.99707 90.001c-26.667 -53.333 -53.167 -96.333 -79.5 -129s-53.166 -49 -80.499 -49c-21.333 0 -39.166 9.83301 -53.499 29.5s-21.5 43.5 -21.5 71.5c0 24.667 5.16699 55.167 15.5 91.5s22.666 68 36.999 95s26.166 40.5 35.499 40.5
c5.33301 0 12.833 -2 22.5 -6s14.5 -8.66699 14.5 -14c-14 -21.333 -28.667 -52.833 -44 -94.5s-23 -77.167 -23 -106.5c0 -15.333 2.33301 -30.333 7 -45s14 -22 28 -22c20.667 0 43.667 17.833 69 53.5s52.333 81.5 81 137.5c5.33301 28 9.83301 48.167 13.5 60.5
s7.33398 20.333 11.001 24s8.83398 5.5 15.501 5.5c8.66699 0 15.667 -1.83301 21 -5.5s8 -9.16699 8 -16.5c0 -2 -0.666992 -5.66699 -2 -11c-7.33301 -24.667 -13.833 -57.334 -19.5 -98.001s-8.5 -77.667 -8.5 -111c0 -32.667 7.33301 -49 22 -49
c18.667 -0 43 20.833 73 62.5s57.333 89.167 82 142.5c0 84.667 16.667 127 50 127c11.333 0 20.166 -4.16699 26.499 -12.5s9.5 -16.833 9.5 -25.5c0 -6.66699 -3.33301 -16 -10 -28c-8 -15.333 -14.167 -30.5 -18.5 -45.5s-6.5 -35.167 -6.5 -60.5
c0 -22 3.16699 -40.167 9.5 -54.5s18.833 -21.5 37.5 -21.5c14.667 0 28.334 5.66699 41.001 17s25.334 30.333 38.001 57l13 -10c-24 -56 -57 -84 -99 -84c-20.667 0 -38.167 7 -52.5 21s-24.833 35 -31.5 63c-28 -52 -58.5 -96.167 -91.5 -132.5
s-63.833 -54.5 -92.5 -54.5c-36 0 -54 32.333 -54 97z" />
    <glyph glyph-name="x" unicode="x" horiz-adv-x="418" 
d="M34 -44c0 10.667 14.3311 35.167 42.998 73.5s63.667 80.5 105 126.5c-4.66699 40 -9.66699 69.333 -15 88s-15 28 -29 28c-18.667 0 -34.667 -8.5 -48 -25.5s-30.666 -44.5 -51.999 -82.5l-19 -35l-9 16l21 44c12 27.333 22.667 49 32 65s21.5 29.5 36.5 40.5
s33.167 16.5 54.5 16.5c24 0 42.5 -8.33301 55.5 -25s22.167 -40 27.5 -70c33.333 34.667 62.166 62.667 86.499 84s40.833 32 49.5 32c4 0 9.16699 -1 15.5 -3s9.5 -4.66699 9.5 -8c-10.667 0 -30 -13.333 -58 -40s-60.333 -61.334 -97 -104.001l3 -40
c3.33301 -43.333 8 -75.333 14 -96s18.333 -31 37 -31c22.667 0 47.834 16.333 75.501 49s49.5 66.667 65.5 102l10 -10c-10 -29.333 -24.5 -57.666 -43.5 -84.999s-40.167 -49.5 -63.5 -66.5s-46.333 -25.5 -69 -25.5c-26.667 0 -46.167 12.167 -58.5 36.5
s-21.166 57.833 -26.499 100.5l-131 -163c-4 -4.66699 -8 -7 -12 -7c-6.66699 0 -10 5 -10 15z" />
    <glyph glyph-name="y" unicode="y" horiz-adv-x="389" 
d="M-2 -266c-12 9.33301 -18 22.335 -18 39.002c0 26.667 8.5 50.167 25.5 70.5s37.833 38 62.5 53s60 34.167 106 57.5c20 51.333 38.667 112.333 56 183c-24 -39.333 -48 -70.333 -72 -93s-48.667 -34 -74 -34c-21.333 0 -40 7 -56 21s-24 34 -24 60
c0 24 5.33301 53.333 16 88s23 65 37 91s25.667 39 35 39c6 0 14.833 -2.5 26.5 -7.5s17.5 -10.167 17.5 -15.5c-13.333 -19.333 -27.666 -50.5 -42.999 -93.5s-23 -77.167 -23 -102.5c0 -26.667 12 -40 36 -40c18 0 39.167 12.333 63.5 37s47.5 55 69.5 91
c3.33301 11.333 6.66602 26.666 9.99902 45.999c2.66699 12.667 8.16699 24.334 16.5 35.001s19.833 16 34.5 16c6 0 13 -1 21 -3c0 -18 -7.5 -55 -22.5 -111s-33.5 -112.333 -55.5 -169c33.333 13.333 64.666 34.166 93.999 62.499s53 64.166 71 107.499l13 -10
c-24.667 -78 -87.667 -140.333 -189 -187c-29.333 -72 -60.166 -130.833 -92.499 -176.5s-64.5 -68.5 -96.5 -68.5c-18 0 -33 4.66699 -45 14zM69 -229.498c13.333 12.333 28.3311 31.834 44.998 58.501s33.334 60.334 50.001 101.001
c-35.333 -18.667 -63.166 -34.5 -83.499 -47.5s-37 -27.833 -50 -44.5s-19.5 -35.334 -19.5 -56.001c0 -6.66699 2.33301 -13.334 7 -20.001s11.334 -10 20.001 -10c7.33301 0 17.666 6.16699 30.999 18.5z" />
    <glyph glyph-name="z" unicode="z" horiz-adv-x="317" 
d="M-71 -229c0 20.667 7.33398 40.334 22.001 59.001s33 35.834 55 51.501s52.333 35.167 91 58.5c28 16 53.667 32 77 48c0 24.667 -5.16699 47 -15.5 67s-28.166 40 -53.499 60c22 6 41.333 17.333 58 34s29.334 35.167 38.001 55.5s13 39.5 13 57.5
c0 15.333 -3.33301 28 -10 38s-16.334 15 -29.001 15c-20.667 0 -39.5 -7.66699 -56.5 -23s-32.167 -34.833 -45.5 -58.5s-30 -56.834 -50 -99.501l-12 10c17.333 46 33.666 83.667 48.999 113s33.5 52.666 54.5 69.999s45.833 26 74.5 26c23.333 0 43 -7.5 59 -22.5
s24 -34.833 24 -59.5c0 -34 -11.333 -65 -34 -93s-50.667 -50.333 -84 -67c34.667 -26.667 58 -56.667 70 -90c57.333 43.333 94.333 90.333 111 141l11 -12c-16.667 -52.667 -55.334 -102 -116.001 -148c2.66699 -8.66699 4 -19.667 4 -33
c0 -39.333 -11.5 -78.5 -34.5 -117.5s-53 -70.667 -90 -95s-75.167 -36.5 -114.5 -36.5c-44 0 -66 17 -66 51zM57.001 -224c28 18 53.333 43.3291 76 75.9961s36 70.334 40 113.001c-29.333 -18.667 -51.333 -32 -66 -40c-36 -21.333 -63.5 -38.666 -82.5 -51.999
s-35 -27.666 -48 -42.999s-19.5 -31.333 -19.5 -48c0 -11.333 2.83301 -19.666 8.5 -24.999s13.167 -8 22.5 -8c18 0 41 9 69 27z" />
    <glyph glyph-name="braceleft" unicode="{" horiz-adv-x="260" 
d="M52 -68.5c-10 12.333 -15 28.167 -15 47.5c0 14.667 2.83301 30.667 8.5 48s14.5 40.666 26.5 69.999c13.333 32.667 23.166 59 29.499 79s9.5 39 9.5 57c0 22.667 -2.5 41.834 -7.5 57.501s-14.5 29.167 -28.5 40.5c22.667 2 39.834 12.167 51.501 30.5
s19.667 40.166 24 65.499s8.16602 58.666 11.499 99.999c3.33301 44 7.33301 78.5 12 103.5s13.334 46.167 26.001 63.5s31 26 55 26c14.667 0 27 -4.16699 37 -12.5s16 -21.833 18 -40.5c-2 1.33301 -6.66699 4 -14 8s-13.666 6 -18.999 6c-18.667 0 -32 -13.833 -40 -41.5
s-15.333 -69.167 -22 -124.5c-7.33301 -60.667 -15.833 -107 -25.5 -139s-25.834 -49 -48.501 -51c9.33301 -10 16 -20.167 20 -30.5s6 -23.166 6 -38.499c0 -30.667 -3.83301 -59.167 -11.5 -85.5s-18.5 -55.833 -32.5 -88.5c-10.667 -25.333 -18.667 -46.333 -24 -63
s-8 -33 -8 -49c0 -21.333 11 -32 33 -32c10 0 18.333 2.66699 25 8c-0.666992 -11.333 -5.5 -19.666 -14.5 -24.999s-19.833 -8 -32.5 -8c-23.333 0 -40 6.16699 -50 18.5z" />
    <glyph glyph-name="bar" unicode="|" horiz-adv-x="259" 
d="M93.5 63c10.333 89.333 21.5029 203.666 33.5029 342.999c6.66699 83.333 12.5 148.333 17.5 195s9.83301 78.667 14.5 96c10 -4.66699 17.167 -12.5 21.5 -23.5s6.5 -22.167 6.5 -33.5c0 -57.333 -3.83301 -154.166 -11.5 -290.499s-14.834 -235.5 -21.501 -297.5
c-6 -60.667 -16.833 -106.5 -32.5 -137.5s-37.834 -46.5 -66.501 -46.5c15.333 40.667 28.166 105.667 38.499 195z" />
    <glyph glyph-name="braceright" unicode="}" horiz-adv-x="256" 
d="M-2 -74.5c-10.667 8.33301 -17 21.834 -19 40.501c12 -8 23.333 -12 34 -12c18 0 31.5 15.167 40.5 45.5s17.167 73.5 24.5 129.5c6.66699 58.667 15.334 106.5 26.001 143.5s28 61.833 52 74.5c-16.667 18.667 -25 42.667 -25 72c0 21.333 3.5 43.5 10.5 66.5
s17.167 51.833 30.5 86.5c10 25.333 17.5 45.666 22.5 60.999s7.5 28.333 7.5 39c0 10 -2.33301 15 -7 15c-4 0 -10 -1.33301 -18 -4s-15.667 -7 -23 -13c2.66699 14 11.334 25.833 26.001 35.5s28.667 14.5 42 14.5c12.667 0 22.5 -3.33301 29.5 -10s10.5 -14.667 10.5 -24
c0 -8.66699 -2.16699 -19.334 -6.5 -32.001s-11.5 -30.667 -21.5 -54c-14.667 -34.667 -26 -65.167 -34 -91.5s-12 -51.166 -12 -74.499c0 -22 2.33301 -41 7 -57s14 -28.667 28 -38c-23.333 -6 -41.333 -19.833 -54 -41.5s-21.5 -46.667 -26.5 -75
s-9.16699 -64.833 -12.5 -109.5c-4 -45.333 -8.33301 -81 -13 -107s-13.334 -48 -26.001 -66s-31 -27 -55 -27c-14.667 0 -27.334 4.16699 -38.001 12.5z" />
    <glyph glyph-name="asciitilde" unicode="~" horiz-adv-x="435" 
d="M230 134c-13.333 3.33301 -29.333 8.00098 -48 14.001c-20 6.66699 -37.333 11.667 -52 15s-29.334 5 -44.001 5c-17.333 0 -32.666 -2.66699 -45.999 -8c23.333 30.667 51 46 83 46c11.333 0 22.833 -1.5 34.5 -4.5s28.167 -8.16699 49.5 -15.5
c26 -8.66699 46.5 -14.834 61.5 -18.501s31.167 -5.5 48.5 -5.5c10 0 20 1 30 3c-21.333 -24 -47.333 -36 -78 -36c-12.667 0 -25.667 1.66699 -39 5z" />
    <glyph glyph-name="uni00A0" unicode="&#xa0;" horiz-adv-x="260" 
 />
    <glyph glyph-name="exclamdown" unicode="&#xa1;" horiz-adv-x="264" 
d="M192 436c0 10 5.5 19.834 16.5 29.501s22.833 14.5 35.5 14.5c9.33301 0 17 -2.33301 23 -7s9 -11.334 9 -20.001c0 -10.667 -6.33301 -20.167 -19 -28.5s-25.667 -12.5 -39 -12.5c-17.333 0 -26 8 -26 24zM-73 -243.499c-4 4.33301 -6 9.83496 -6 16.502
c0 17.333 18.833 66.666 56.5 147.999s80.5 167.166 128.5 257.499s84.333 153.166 109 188.499c0 -20.667 -5 -46.667 -15 -78s-23.333 -68.666 -40 -111.999c-52 -134.667 -95.5 -239.5 -130.5 -314.5s-64.5 -112.5 -88.5 -112.5c-5.33301 0 -10 2.16699 -14 6.5z" />
    <glyph glyph-name="cent" unicode="&#xa2;" horiz-adv-x="403" 
d="M163 114c-33.333 0 -60.165 11.001 -80.498 33.001s-30.5 53.667 -30.5 95c0 37.333 9.83301 74.5 29.5 111.5s45 68.833 76 95.5s62.5 44.334 94.5 53.001c14.667 68.667 25.334 126.334 32.001 173.001c2 11.333 6.16699 20.666 12.5 27.999s17.166 13 32.499 17
l-40 -212c26 0 44.667 -7.16699 56 -21.5s17 -31.833 17 -52.5c0 -20 -4.5 -37.167 -13.5 -51.5s-21.167 -21.5 -36.5 -21.5c-11.333 0 -21 5 -29 15c10 4.66699 18.667 15.167 26 31.5s11 32.166 11 47.499c0 8.66699 -1.66699 15 -5 19s-9 6 -17 6
c-6.66699 0 -11.667 -0.333008 -15 -1c-26 -140 -47 -248 -63 -324c45.333 8 85.666 27.667 120.999 59l17 -16c-19.333 -18.667 -42 -34.834 -68 -48.501s-51.667 -23.5 -77 -29.5c-15.333 -68 -28.833 -121.167 -40.5 -159.5s-25.834 -68.333 -42.501 -90
s-37.334 -32.5 -62.001 -32.5c22.667 25.333 54.334 117.333 95.001 276zM245.001 465.001c-23.333 -12.667 -45 -32.167 -65 -58.5s-36 -55 -48 -86s-18 -59.5 -18 -85.5c0 -22 4.5 -40.667 13.5 -56s24.167 -24.333 45.5 -27c22 86 46 190.333 72 313z" />
    <glyph glyph-name="sterling" unicode="&#xa3;" horiz-adv-x="650" 
d="M236 38.5c6 -1.66699 11.998 -3.50098 17.998 -5.50098c56.667 -17.333 102 -30.166 136 -38.499s65.333 -12.5 94 -12.5c26.667 0 50.334 5.33301 71.001 16c-10.667 -30 -24.667 -51.667 -42 -65s-38.333 -20 -63 -20c-26 0 -54.5 5.66699 -85.5 17
s-71.833 28.666 -122.5 51.999l-52 24c-35.333 -39.333 -72.333 -59 -111 -59c-20 0 -37.667 4.66699 -53 14s-27 20.833 -35 34.5s-12 26.5 -12 38.5c0 13.333 5.83301 24 17.5 32s30.167 12 55.5 12c29.333 0 70.333 -7 123 -21c21.333 36 45.333 94.667 72 176
c-38 -0.666992 -79 -4.66699 -123 -12c4 18.667 18.667 33.167 44 43.5s57.333 16.833 96 19.5l36 116c-30.667 10 -54.834 24.667 -72.501 44s-26.5 40.333 -26.5 63c0 19.333 5.83301 37.333 17.5 54s26.5 25 44.5 25c-4.66699 -6 -8 -15 -10 -27s-3 -23.667 -3 -35
c0 -24.667 5.16699 -45.667 15.5 -63s24.166 -30.666 41.499 -39.999c30.667 94 62.667 167.333 96 220s73 79 119 79c24.667 0 47 -8 67 -24s30 -42 30 -78c0 -33.333 -9 -67.833 -27 -103.5s-45.167 -65.667 -81.5 -90s-80.166 -36.5 -131.499 -36.5h-16l-36 -104
c24 -0.666992 61 -4 111 -10c20 -2.66699 37.667 -4.66699 53 -6c-7.33301 -10.667 -17.166 -18.334 -29.499 -23.001s-29.666 -7.66699 -51.999 -9s-55.833 -2 -100.5 -2c-31.333 -83.333 -61.333 -146.666 -90 -189.999c5.33301 -2 11 -3.83301 17 -5.5zM451.998 623.499
c-23.333 -47.667 -50.999 -119.834 -82.999 -216.501c37.333 0 71 13.667 101 41s53.333 59.833 70 97.5s25 70.834 25 99.501c0 18 -3.33301 30.833 -10 38.5s-15.334 11.5 -26.001 11.5c-28 0 -53.667 -23.833 -77 -71.5zM151.999 21.999
c-49.333 20 -87.333 30.001 -114 30.001c-22 0 -33 -6.33301 -33 -19s6.83301 -25.334 20.5 -38.001s30.167 -19 49.5 -19c28 0 53.667 15.333 77 46z" />
    <glyph glyph-name="currency" unicode="&#xa4;" horiz-adv-x="697" 
d="M574.5 55.5c-11 11.667 -26.5 26.835 -46.5 45.502c-28.667 27.333 -51.667 50 -69 68c-38.667 -48.667 -80 -73 -124 -73c-36 0 -63.667 13.333 -83 40c-28.667 -32 -57.5 -55.5 -86.5 -70.5s-56.5 -22.5 -82.5 -22.5c8 8 20 17.667 36 29
c22.667 16.667 42.334 32.667 59.001 48s33.667 35.333 51 60c-6 18 -9 40.333 -9 67c0 28 4 57.667 12 89s19.333 60.666 34 87.999c-48.667 52.667 -88 92.667 -118 120c-5.33301 4.66699 -9.66602 12.667 -12.999 24s-5 23.333 -5 36s2 24 6 34
c18.667 -18 71 -74.333 157 -169c18 24 38 42.833 60 56.5s45.333 20.5 70 20.5c23.333 0 43.833 -6 61.5 -18s31.5 -28.667 41.5 -50c10 12 21.667 27.667 35 47c12.667 18.667 23.5 32.834 32.5 42.501s20.167 17.667 33.5 24s29.666 9.5 48.999 9.5
c4 0 10 -0.666992 18 -2c-8.66699 -12.667 -49 -60.334 -121 -143.001l-33 -39l1 -16c0 -28.667 -4.83301 -59.834 -14.5 -93.501s-22.834 -65.5 -39.501 -95.5c76 -71.333 114 -128 114 -170c0 -8 -0.666992 -14 -2 -18c-5.33301 9.33301 -13.5 19.833 -24.5 31.5z
M409.5 192.001c22.333 28.667 41 63.833 56 105.5s22.5 79.834 22.5 114.501c0 23.333 -6.66699 43.166 -20 59.499s-28.333 24.5 -45 24.5c-25.333 0 -49.333 -14.833 -72 -44.5s-40.667 -65.167 -54 -106.5s-20 -77.333 -20 -108c0 -24.667 7 -45.5 21 -62.5
s29 -25.5 45 -25.5c22 0 44.167 14.333 66.5 43z" />
    <glyph glyph-name="yen" unicode="&#xa5;" horiz-adv-x="810" 
d="M243 -162c-26 16.667 -39.0049 39.666 -39.0049 68.999c0 36.667 20 61.667 60 75c-5.33301 -18 -8 -36 -8 -54c0 -28 7.33301 -50 22 -66s36.334 -24 65.001 -24c66.667 0 121 46.333 163 139c-56.667 0 -107 -3.66699 -151 -11c6.66699 17.333 24.167 29.5 52.5 36.5
s66.166 11.167 113.499 12.5c4.66699 11.333 11.334 32 20.001 62h-5c-73.333 0 -133.666 -3.66699 -180.999 -11c6.66699 18.667 26.334 31.5 59.001 38.5s76 10.5 130 10.5h6l2 6c2 8.66699 7.33301 35 16 79l11.5 56.5l14.5 69.5
c-28.667 -55.333 -60.667 -98.333 -96 -129s-75.666 -46 -120.999 -46c-38 0 -65.667 10.5 -83 31.5s-26 50.167 -26 87.5c0 24 3 50.333 9 79s15 63.667 27 105c11.333 40.667 19.5 72.667 24.5 96s7.5 44.666 7.5 63.999c0 23.333 -4.5 42.166 -13.5 56.499
s-23.5 21.5 -43.5 21.5c-22.667 0 -42.167 -9.33301 -58.5 -28s-28.666 -41.5 -36.999 -68.5s-12.5 -52.5 -12.5 -76.5c0 -20 2.66699 -36.333 8 -49c-24 0 -41.5 6.33301 -52.5 19s-16.5 29.334 -16.5 50.001c0 28 8.83301 56 26.5 84s41.167 51.167 70.5 69.5
s60.666 27.5 93.999 27.5c35.333 0 61.5 -10 78.5 -30s25.5 -43.667 25.5 -71c0 -15.333 -2.33301 -33.166 -7 -53.499s-12 -48.5 -22 -84.5c-12.667 -45.333 -22.167 -82.666 -28.5 -111.999s-9.5 -56.666 -9.5 -81.999c0 -64 23.333 -96 70 -96c42 0 81 24 117 72
s67.667 107 95 177c20.667 84.667 40.834 152.5 60.501 203.5s39.5 76.5 59.5 76.5c6.66699 0 15.334 -3 26.001 -9s20.667 -13.667 30 -23c-24 -38 -42.833 -73.333 -56.5 -106s-27.667 -75 -42 -127s-36.5 -139 -66.5 -261l-7 -27c-2.66699 -12 -7.33398 -30 -14.001 -54
c38.667 -2 72.667 -4.33301 102 -7c-26.667 -19.333 -61 -29 -103 -29h-9c-6.66699 -21.333 -14 -42.333 -22 -63c32 -0.666992 76.667 -3.33398 134 -8.00098c-26.667 -19.333 -61 -29 -103 -29h-47c-24 -51.333 -53.5 -91.5 -88.5 -120.5s-78.833 -43.5 -131.5 -43.5
c-40 0 -73 8.33301 -99 25z" />
    <glyph glyph-name="brokenbar" unicode="&#xa6;" horiz-adv-x="260" 
d="M127 409c6.66699 82 12.5 146.168 17.5 192.501s9.83301 78.166 14.5 95.499c10 -4.66699 17.167 -12.5 21.5 -23.5s6.5 -22.167 6.5 -33.5c0 -10.667 -1.33301 -39.334 -4 -86.001c-4 -66.667 -6 -124 -6 -172c0 -9.33301 -2.5 -20.666 -7.5 -33.999
s-13.167 -24 -24.5 -32l-28 -20zM83.5 -6.99902c8.33301 55.333 16.501 123.332 24.501 203.999c5.33301 5.33301 12.166 10 20.499 14s16.833 6 25.5 6c8 0 12 -7.66699 12 -23c-5.33301 -79.333 -11.333 -141.166 -18 -185.499s-17.167 -78.833 -31.5 -103.5
s-34.833 -37 -61.5 -37c10.667 28 20.167 69.667 28.5 125z" />
    <glyph glyph-name="section" unicode="&#xa7;" horiz-adv-x="416" 
d="M45.5 -57c-25.667 20 -38.501 48.332 -38.501 84.999c0 30 8.16699 51.667 24.5 65s35.166 20 56.499 20c-11.333 -12 -20 -25.5 -26 -40.5s-9 -29.833 -9 -44.5c0 -25.333 8.33301 -46.666 25 -63.999s41 -26 73 -26c31.333 0 59 8.33301 83 25s36 39.334 36 68.001
c0 23.333 -7.5 43 -22.5 59s-37.833 34.333 -68.5 55c-23.333 16 -42 30.167 -56 42.5s-26 27 -36 44s-15 36.5 -15 58.5c0 24 6.16699 46.667 18.5 68s30.5 38.666 54.5 51.999s53 20 87 20c10.667 0 18.667 -0.333008 24 -1c-34.667 19.333 -60.667 37.333 -78 54
s-26 38.667 -26 66c0 24 7.83301 49.333 23.5 76s37 49 64 67s57.167 27 90.5 27c47.333 0 71 -21 71 -63c0 -21.333 -5 -45.166 -15 -71.499s-21.333 -49.5 -34 -69.5c-14 2.66699 -21 11.667 -21 27c0 8 1.83301 18.167 5.5 30.5s7.83398 24.5 12.501 36.5
c12.667 30.667 19 53.334 19 68.001c0 9.33301 -2.66699 16.166 -8 20.499s-14.333 6.5 -27 6.5c-25.333 0 -48.833 -7.66699 -70.5 -23s-38.834 -34.333 -51.501 -57s-19 -43.334 -19 -62.001s5.83301 -34 17.5 -46s30.167 -25.667 55.5 -41
c22.667 -14.667 41 -27.667 55 -39s26 -26.666 36 -45.999s15 -42.666 15 -69.999c0 -42.667 -12.167 -74.834 -36.5 -96.501s-57.833 -32.5 -100.5 -32.5c-10.667 0 -18.667 0.666992 -24 2s-11.666 3.66602 -18.999 6.99902c-6.66699 3.33301 -15 6.66602 -25 9.99902
c4.66699 -5.33301 11.834 -10.833 21.501 -16.5s15.834 -9.16699 18.501 -10.5c33.333 -19.333 59.666 -38.666 78.999 -57.999s29 -44.333 29 -75c0 -26.667 -8.66699 -50.5 -26 -71.5s-39.5 -37.167 -66.5 -48.5s-54.167 -17 -81.5 -17c-37.333 0 -68.833 10 -94.5 30z
M289.499 252.999c16.333 14.667 24.501 35.667 24.501 63c0 26 -7.33301 46.667 -22 62s-36.334 23 -65.001 23c-28 0 -51.5 -7.5 -70.5 -22.5s-28.5 -37.833 -28.5 -68.5c0 -20 6 -38.167 18 -54.5s36.333 -24.5 73 -24.5c30.667 0 54.167 7.33301 70.5 22z" />
    <glyph glyph-name="dieresis" unicode="&#xa8;" horiz-adv-x="239" 
d="M10.5 437.5c-7 5 -10.499 12.5 -10.499 22.5c0 12 7.16699 22.833 21.5 32.5s29.166 14.5 44.499 14.5c20 0 30 -9.33301 30 -28c0 -11.333 -6.16699 -22.333 -18.5 -33s-25.833 -16 -40.5 -16c-10.667 0 -19.5 2.5 -26.5 7.5zM154.501 416.5
c-7 5 -10.499 12.5 -10.499 22.5c0 12 7.16699 22.833 21.5 32.5s29.166 14.5 44.499 14.5c20 0 30 -9.33301 30 -28c0 -11.333 -6.16699 -22.333 -18.5 -33s-25.833 -16 -40.5 -16c-10.667 0 -19.5 2.5 -26.5 7.5z" />
    <glyph glyph-name="copyright" unicode="&#xa9;" horiz-adv-x="592" 
d="M207.5 129.5c-37.667 19.667 -68.5 49 -92.5 88s-36 85.833 -36 140.5c0 56 12.5 103.833 37.5 143.5s56.5 69.334 94.5 89.001s76.667 29.5 116 29.5s77.833 -9.83301 115.5 -29.5s68.5 -49 92.5 -88s36 -85.833 36 -140.5c0 -56 -12.5 -103.833 -37.5 -143.5
s-56.5 -69.334 -94.5 -89.001s-76.667 -29.5 -116 -29.5s-77.833 9.83301 -115.5 29.5zM436 157.5c33.333 19.667 59.5 47.334 78.5 83.001s28.5 76.167 28.5 121.5c0 44 -9 83.5 -27 118.5s-43.5 62.333 -76.5 82s-70.5 29.5 -112.5 29.5s-79.667 -9.83301 -113 -29.5
s-59.5 -47.334 -78.5 -83.001s-28.5 -76.167 -28.5 -121.5c0 -44 9 -83.5 27 -118.5s43.5 -62.333 76.5 -82s70.5 -29.5 112.5 -29.5s79.667 9.83301 113 29.5zM267 231c-14.667 14.667 -21.999 37.333 -21.999 68v132c0 31.333 7.5 54.333 22.5 69s34.5 22 58.5 22
c19.333 0 35 -4 47 -12s20.833 -17.5 26.5 -28.5s8.5 -21.167 8.5 -30.5c0 -11.333 -5 -17 -15 -17c-6 0 -9.83301 1 -11.5 3s-2.83398 5 -3.50098 9c-5.33301 32.667 -22.333 49 -51 49c-16.667 0 -29.5 -5.33301 -38.5 -16s-13.5 -26.667 -13.5 -48v-132
c0 -42.667 18 -64 54 -64c16.667 0 29 5.83301 37 17.5s12 22.167 12 31.5c0 4 1.5 7 4.5 9s5.83301 3 8.5 3c11.333 0 17 -4.66699 17 -14c-1.33301 -21.333 -9.16602 -38.833 -23.499 -52.5s-33.833 -20.5 -58.5 -20.5s-44.334 7.33301 -59.001 22z" />
    <glyph glyph-name="ordfeminine" unicode="&#xaa;" horiz-adv-x="383" 
d="M119.5 462c-9.66699 10 -14.498 24.6689 -14.498 44.002c0 27.333 10 58 30 92s45.167 62.833 75.5 86.5s59.833 35.5 88.5 35.5c18 0 33 -4.83301 45 -14.5s18 -22.167 18 -37.5c0 -20 -11.333 -30 -34 -30c2.66699 10.667 4 18.667 4 24
c0 11.333 -2.83301 20.833 -8.5 28.5s-14.5 11.5 -26.5 11.5c-20.667 0 -42.334 -11.5 -65.001 -34.5s-41.5 -50.5 -56.5 -82.5s-22.5 -59.333 -22.5 -82c0 -18 6.33301 -27 19 -27c30 0 79 51 147 153c18.667 -4.66699 28 -10.667 28 -18
c0 -4 -2.16699 -9.83301 -6.5 -17.5s-7.16602 -12.5 -8.49902 -14.5c-17.333 -28.667 -26 -50.334 -26 -65.001c0 -8 2 -15.167 6 -21.5s10 -9.5 18 -9.5c13.333 0 30.333 9.66699 51 29s41 46.666 61 81.999l7 -7c-14 -37.333 -34.333 -68 -61 -92s-52.334 -36 -77.001 -36
c-16.667 0 -29.334 4.83301 -38.001 14.5s-13 21.167 -13 34.5c0 3.33301 0.666992 10.333 2 21c-20.667 -28 -39.167 -48.667 -55.5 -62s-32.833 -20 -49.5 -20c-15.333 0 -27.833 5 -37.5 15z" />
    <glyph glyph-name="guillemotleft" unicode="&#xab;" horiz-adv-x="436" 
d="M106 64c-24 13.333 -45.832 29.167 -65.499 47.5s-31.167 33.833 -34.5 46.5c32.667 14 67.167 36.333 103.5 67s65.166 61 86.499 91c1.33301 -2.66699 2.5 -6 3.5 -10s1.5 -8 1.5 -12c0 -24 -16.333 -48.333 -49 -73s-72.667 -49.334 -120 -74.001
c26.667 -19.333 50 -34.666 70 -45.999s50.667 -25 92 -41c-9.33301 -10.667 -19 -16 -29 -16c-15.333 0 -35 6.66699 -59 20zM256.001 64.001c-24 13.333 -45.832 29.167 -65.499 47.5s-31.167 33.833 -34.5 46.5c32.667 14 67.167 36.333 103.5 67s65.166 61 86.499 91
c1.33301 -2.66699 2.5 -6 3.5 -10s1.5 -8 1.5 -12c0 -24 -16.333 -48.333 -49 -73s-72.667 -49.334 -120 -74.001c26.667 -19.333 50 -34.666 70 -45.999s50.667 -25 92 -41c-9.33301 -10.667 -19 -16 -29 -16c-15.333 0 -35 6.66699 -59 20z" />
    <glyph glyph-name="logicalnot" unicode="&#xac;" horiz-adv-x="667" 
d="M498 89c1.33301 16 2.00098 37.6689 2.00098 65.002v43c-12 -1.33301 -28.667 -2 -50 -2c-40 -0.666992 -88.667 -1 -146 -1c-62.667 0 -110 -0.5 -142 -1.5s-71.333 -3.83301 -118 -8.5c11.333 18.667 43 31.5 95 38.5s121 10.5 207 10.5c57.333 0 109 -1 155 -3
c3.33301 20.667 12.666 38 27.999 52c0.666992 -4.66699 1.5 -11.334 2.5 -20.001s2.16699 -20 3.5 -34c11.333 0 38 -1.33301 80 -4c-20 -9.33301 -46 -17 -78 -23l1 -36c0 -38 -3.5 -68.333 -10.5 -91s-19.833 -36.334 -38.5 -41.001c4.66699 21.333 7.66699 40 9 56z" />
    <glyph glyph-name="uni00AD" unicode="&#xad;" horiz-adv-x="485" 
d="M94 182.5c32.667 7 75.999 10.5 129.999 10.5s110 -3 168 -9c-16 -10.667 -37.5 -18.167 -64.5 -22.5s-73.5 -6.5 -139.5 -6.5c-33.333 0 -60 -0.666992 -80 -2s-44.333 -4.33301 -73 -9c6.66699 18.667 26.334 31.5 59.001 38.5z" />
    <glyph glyph-name="registered" unicode="&#xae;" horiz-adv-x="592" 
d="M207.5 129.5c-37.667 19.667 -68.5 49 -92.5 88s-36 85.833 -36 140.5c0 56 12.5 103.833 37.5 143.5s56.5 69.334 94.5 89.001s76.667 29.5 116 29.5s77.833 -9.83301 115.5 -29.5s68.5 -49 92.5 -88s36 -85.833 36 -140.5c0 -56 -12.5 -103.833 -37.5 -143.5
s-56.5 -69.334 -94.5 -89.001s-76.667 -29.5 -116 -29.5s-77.833 9.83301 -115.5 29.5zM436 157.5c33.333 19.667 59.5 47.334 78.5 83.001s28.5 76.167 28.5 121.5c0 44 -9 83.5 -27 118.5s-43.5 62.333 -76.5 82s-70.5 29.5 -112.5 29.5s-79.667 -9.83301 -113 -29.5
s-59.5 -47.334 -78.5 -83.001s-28.5 -76.167 -28.5 -121.5c0 -44 9 -83.5 27 -118.5s43.5 -62.333 76.5 -82s70.5 -29.5 112.5 -29.5s79.667 9.83301 113 29.5zM256 214c-3.33301 2.66699 -4.99902 6 -4.99902 10v284c0 3.33301 1.5 6.33301 4.5 9s6.5 4 10.5 4h63
c25.333 0 46 -6.5 62 -19.5s24 -34.5 24 -64.5c0 -24 -5.5 -42.667 -16.5 -56s-25.5 -22 -43.5 -26l58 -124c1.33301 -2.66699 2 -5 2 -7c0 -4 -1.16699 -7.33301 -3.5 -10s-5.83301 -4 -10.5 -4c-6.66699 0 -12.334 4.5 -17.001 13.5l-8 15.5l-53 114h-41v-129
c0 -4 -1.5 -7.33301 -4.5 -10s-6.5 -4 -10.5 -4s-7.66699 1.33301 -11 4zM329.001 379c36.667 0 55 19.333 55 58c0 38 -18.333 57 -55 57h-47v-115h47z" />
    <glyph glyph-name="macron" unicode="&#xaf;" horiz-adv-x="407" 
d="M244 425c-28 4.66699 -55.666 10 -82.999 16c-52.667 10.667 -86.334 16.667 -101.001 18c6.66699 17.333 22 26 46 26c54.667 0 135 -15.667 241 -47c-9.33301 -13.333 -22 -20 -38 -20c-15.333 0 -37 2.33301 -65 7z" />
    <glyph glyph-name="degree" unicode="&#xb0;" horiz-adv-x="265" 
d="M109.5 411c-11.667 10 -17.498 23 -17.498 39s5.5 32.833 16.5 50.5s26 32.334 45 44.001s39.167 17.5 60.5 17.5c26 0 45.167 -5 57.5 -15s18.5 -23 18.5 -39s-5.83301 -32.833 -17.5 -50.5s-27.334 -32.334 -47.001 -44.001s-40.167 -17.5 -61.5 -17.5
c-24.667 0 -42.834 5 -54.501 15zM211.002 428.5c14 10.333 25.668 23.167 35.001 38.5s14 29.333 14 42c0 24 -15.333 36 -46 36c-14 0 -28 -5.16699 -42 -15.5s-25.5 -23 -34.5 -38s-13.5 -28.833 -13.5 -41.5c0 -11.333 3.66699 -20.333 11 -27s18.666 -10 33.999 -10
c14 0 28 5.16699 42 15.5z" />
    <glyph glyph-name="plusminus" unicode="&#xb1;" horiz-adv-x="449" 
d="M195 176.5c1.33301 18.333 1.99609 41.832 1.99609 70.499c-34 0 -59.833 -0.333008 -77.5 -1s-39.5 -3 -65.5 -7c5.33301 13.333 20.333 22.833 45 28.5s57.334 9.16699 98.001 10.5v40c0 34 8.66699 61.333 26 82c4.66699 -32 7.33398 -72.667 8.00098 -122
c47.333 -0.666992 95.333 -3 144 -7c-24 -16 -55 -24 -93 -24h-51c-1.33301 -38 -5.16602 -68.167 -11.499 -90.5s-17.166 -36.166 -32.499 -41.499c4 22.667 6.66699 43.167 8 61.5zM106.996 64.499c29.333 5.66699 68.332 8.49902 116.999 8.49902
c60 0 110.333 -2.33301 151 -7c-14 -8.66699 -31.667 -14.667 -53 -18s-54.666 -5 -99.999 -5c-68.667 0 -124.667 -3 -168 -9c6 14.667 23.667 24.834 53 30.501z" />
    <glyph glyph-name="uni00B2" unicode="&#xb2;" horiz-adv-x="355" 
d="M240.5 311.5c-15.667 5 -34.166 12.167 -55.499 21.5l-19 8c-20.667 -14 -39.334 -21 -56.001 -21c-11.333 0 -20.5 2.66699 -27.5 8s-10.5 12.333 -10.5 21c0 17.333 13.667 26 41 26c10.667 0 27.667 -2.33301 51 -7c32.667 28.667 62.5 68 89.5 118
s40.5 95.667 40.5 137c0 22.667 -4.5 39.667 -13.5 51s-20.833 17 -35.5 17c-19.333 0 -34.833 -9.33301 -46.5 -28s-17.5 -42 -17.5 -70c0 -10.667 2.33301 -22.667 7 -36h-8c-13.333 4 -23 9.33301 -29 16s-9 16.667 -9 30c0 28 10.667 52.5 32 73.5
s47.666 31.5 78.999 31.5c24.667 0 44.834 -8.83301 60.501 -26.5s23.5 -39.5 23.5 -65.5c0 -42 -14 -87 -42 -135s-61 -87.667 -99 -119l8 -2c45.333 -10.667 75.666 -16 90.999 -16c10.667 0 25.334 6 44.001 18c-5.33301 -20 -12.5 -34.667 -21.5 -44
s-20.833 -14 -35.5 -14c-12 0 -25.833 2.5 -41.5 7.5zM140.001 351c-12 4.66699 -22.333 7 -31 7c-4.66699 0 -8.16699 -1 -10.5 -3s-3.5 -4.33301 -3.5 -7s1.5 -5 4.5 -7s6.16699 -3 9.5 -3c6.66699 0 17 4.33301 31 13z" />
    <glyph glyph-name="uni00B3" unicode="&#xb3;" horiz-adv-x="295" 
d="M102 336.5c-14 15 -21.0029 31.835 -21.0029 50.502c0 14 4 26.667 12 38s19 17 33 17c5.33301 0 10 -0.666992 14 -2c-5.33301 -4 -9.5 -10.5 -12.5 -19.5s-4.5 -18.167 -4.5 -27.5c0 -16 4.33301 -29.833 13 -41.5s20.334 -17.5 35.001 -17.5
c12.667 0 24.834 4.66699 36.501 14s21.334 22.166 29.001 38.499s11.5 34.833 11.5 55.5c0 22 -4.66699 41.333 -14 58s-24.333 27.667 -45 33c24.667 10.667 44.834 28.167 60.501 52.5s23.5 47.166 23.5 68.499c0 16 -3.83301 27.833 -11.5 35.5s-17.5 11.5 -29.5 11.5
c-14 0 -26.333 -4.66699 -37 -14s-16 -22 -16 -38c0 -9.33301 2.66699 -20.333 8 -33c-2 -4 -5.5 -7.66699 -10.5 -11s-9.5 -5 -13.5 -5c-6.66699 0 -11.834 4.33301 -15.501 13s-5.5 18 -5.5 28c0 23.333 9.66699 42 29 56s41.666 21 66.999 21
c22 0 40.833 -5.83301 56.5 -17.5s23.5 -27.834 23.5 -48.501c0 -22 -7.83301 -44.5 -23.5 -67.5s-35.167 -38.5 -58.5 -46.5c24 -8 41.667 -21.167 53 -39.5s17 -37.166 17 -56.499c0 -21.333 -6.16699 -41.833 -18.5 -61.5s-29.166 -35.667 -50.499 -48
s-45 -18.5 -71 -18.5c-28.667 0 -50 7.5 -64 22.5z" />
    <glyph glyph-name="acute" unicode="&#xb4;" horiz-adv-x="125" 
d="M91.5 415.5c-2.33301 5.66699 -3.5 10.501 -3.5 14.501c0 8 6.16699 22.167 18.5 42.5s26.666 38.5 42.999 54.5s30.5 24 42.5 24c12.667 0 20 -10.333 22 -31c-49.333 -42.667 -86.666 -81.334 -111.999 -116.001c-4.66699 2 -8.16699 5.83301 -10.5 11.5z" />
    <glyph glyph-name="uni00B5" unicode="&#xb5;" horiz-adv-x="585" 
d="M-30.5 -264c-6.33301 10.667 -9.50488 17.998 -9.50488 21.998c8 26.667 21 65.334 39 116.001c15.333 42 28.333 80.333 39 115s21.834 81.834 33.501 141.501s22.834 134.834 33.501 225.501c0.666992 6.66699 2.16699 11.167 4.5 13.5s7.16602 3.5 14.499 3.5
c16 0 28 -4.5 36 -13.5s12 -19.833 12 -32.5c-17.333 -76.667 -29.666 -134.667 -36.999 -174s-11 -70.333 -11 -93c0 -33.333 9.66699 -50 29 -50c23.333 0 48.833 21.5 76.5 64.5s57.5 97.5 89.5 163.5l16 33c32 -6 48 -14.667 48 -26
c0 -1.33301 -1.5 -5.83301 -4.5 -13.5s-5.83301 -14.5 -8.5 -20.5c-15.333 -34 -28.166 -65.833 -38.499 -95.5s-15.5 -54.834 -15.5 -75.501c0 -26.667 11 -40 33 -40c14.667 0 32 6.5 52 19.5s40.333 31.833 61 56.5s38.667 53.334 54 86.001l13 -9
c-14 -35.333 -32.167 -66.833 -54.5 -94.5s-46.5 -49.334 -72.5 -65.001s-50.667 -23.5 -74 -23.5c-46.667 0 -70 24.667 -70 74c0 13.333 2.33301 30 7 50c-21.333 -38 -42.666 -68.167 -63.999 -90.5s-43.666 -33.5 -66.999 -33.5c-16.667 0 -30.667 5.66699 -42 17
c-50 -178 -83.667 -267 -101 -267c-8 0 -15.167 5.33301 -21.5 16z" />
    <glyph glyph-name="paragraph" unicode="&#xb6;" horiz-adv-x="644" 
d="M340 37l10.001 119.005c-67.333 3.33301 -132.333 18.166 -195 44.499s-94 71.5 -94 135.5c0 46.667 15.667 87.667 47 123s71 63.166 119 83.499s96.333 32.5 145 36.5c-1.33301 49.333 -4.33301 92.333 -9 129c10.667 5.33301 20.334 8 29.001 8
c16 0 26.167 -9.5 30.5 -28.5s6.5 -45.167 6.5 -78.5c0 -14.667 0.333008 -25 1 -31c9.33301 -0.666992 17.5 -1.66699 24.5 -3s12.833 -2.33301 17.5 -3c-1.33301 59.333 -3.33301 104.666 -6 135.999c8 5.33301 16.667 8 26 8c18.667 0 30.667 -52.667 36 -158
c32 -10.667 59.667 -21.667 83 -33c-2 -4.66699 -8.33301 -10.334 -19 -17.001s-18 -10 -22 -10c-2.66699 0 -9.66699 3.33301 -21 10l-20 11c0.666992 -11.333 1 -28.333 1 -51c0 -138.667 -1.83301 -254 -5.5 -346s-7.16699 -145 -10.5 -159
c-5.33301 -15.333 -14.333 -27.5 -27 -36.5s-26.334 -13.5 -41.001 -13.5c2 4 5.16699 43 9.5 117s8.16602 159 11.499 255s5 181.333 5 256v4c-11.333 3.33301 -25 6.66602 -41 9.99902c2 -50 3 -123.667 3 -221c0 -99.333 -2 -183.5 -6 -252.5s-7.66699 -108.5 -11 -118.5
c-5.33301 -14 -16.833 -25.833 -34.5 -35.5s-35.5 -14.5 -53.5 -14.5z" />
    <glyph glyph-name="periodcentered" unicode="&#xb7;" horiz-adv-x="209" 
d="M47 131c-6 4.66699 -9 11.333 -9 20c0 10.667 6.33301 20.167 19 28.5s25.667 12.5 39 12.5c17.333 0 26 -8 26 -24c0 -10 -5.5 -19.833 -16.5 -29.5s-22.833 -14.5 -35.5 -14.5c-9.33301 0 -17 2.33301 -23 7z" />
    <glyph glyph-name="cedilla" unicode="&#xb8;" horiz-adv-x="217" 
d="M36.5 -200.5c-11 7 -16.501 15.5 -16.501 25.5c0 11.333 7.33301 22.333 22 33c3.33301 -15.333 8.83301 -26.666 16.5 -33.999s16.167 -11 25.5 -11c12 0 24.5 4.66699 37.5 14s23.833 21 32.5 35s13 26.667 13 38c0 6 -1.33301 11.667 -4 17s-7 8 -13 8
c-7.33301 0 -15.333 -2.33301 -24 -7s-20 -11.334 -34 -20.001c-2.66699 -1.33301 -7.16699 -4 -13.5 -8s-10.833 -6 -13.5 -6c-4 0 -7.33301 2 -10 6s-4 8 -4 12c0 2.66699 9.83301 17.334 29.5 44.001s34.834 44.667 45.501 54h13l-53 -81
c10 7.33301 20.167 13.166 30.5 17.499s22.5 6.5 36.5 6.5c30 0 45 -14 45 -42c0 -18.667 -5.5 -36.667 -16.5 -54s-25.5 -31.333 -43.5 -42s-37 -16 -57 -16c-18.667 0 -33.5 3.5 -44.5 10.5z" />
    <glyph glyph-name="uni00B9" unicode="&#xb9;" horiz-adv-x="260" 
d="M86 320.5c-8 4.33301 -14.6719 10.1641 -20.0049 17.4971h12l9 -1c14.667 0 31.334 1.66699 50.001 5c8.66699 19.333 16.334 44.5 23.001 75.5s14.667 70.833 24 119.5c8.66699 50 15.667 84.333 21 103c-26.667 -17.333 -43.667 -26 -51 -26
c-5.33301 0 -9.16602 1.33301 -11.499 4s-3.5 7.33398 -3.5 14.001c9.33301 4.66699 25 15.667 47 33s41.333 34.666 58 51.999h6c3.33301 -3.33301 5 -8.66602 5 -15.999s-2 -18.333 -6 -33c-4.66699 -19.333 -10.667 -48.666 -18 -87.999l-19 -92l-13 -62
c-4.66699 -20.667 -9 -37.167 -13 -49.5s-9 -22.166 -15 -29.499c3.33301 0.666992 7.66602 1 12.999 1c14.667 0 26.334 -2.33301 35.001 -7s14.334 -13 17.001 -25c-17.333 1.33301 -31.666 2 -42.999 2c-12 0 -27.333 -0.666992 -46 -2c-17.333 -1.33301 -30 -2 -38 -2
c-7.33301 0 -15 2.16699 -23 6.5z" />
    <glyph glyph-name="ordmasculine" unicode="&#xba;" horiz-adv-x="279" 
d="M122 468.5c-10 11 -14.998 25.501 -14.998 43.501c0 25.333 8.5 54.5 25.5 87.5s38.667 61.333 65 85s52.833 35.5 79.5 35.5c15.333 0 25.333 -4.66699 30 -14c9.33301 0 16.5 -2.83301 21.5 -8.5s7.5 -11.834 7.5 -18.501c0 -4 -3.33301 -13.333 -10 -28
c-6 -12 -10.5 -22.5 -13.5 -31.5s-4.5 -18.5 -4.5 -28.5c0 -10.667 6.66699 -16 20 -16c2 0 11 1 27 3c-3.33301 -5.33301 -8.83301 -10 -16.5 -14s-15.834 -6 -24.501 -6c-12.667 0 -21.334 4.33301 -26.001 13c-15.333 -36 -34 -64.833 -56 -86.5s-45 -32.5 -69 -32.5
c-17.333 0 -31 5.5 -41 16.5zM231.002 513.001c19.333 20.667 35.334 45.999 48.001 75.999c-2.66699 10.667 -4 24 -4 40c0 30 4.33301 51.333 13 64c-24.667 0 -47.334 -10.333 -68.001 -31s-37.167 -45.167 -49.5 -73.5s-18.5 -52.166 -18.5 -71.499
c0 -10.667 2.33301 -19.167 7 -25.5s11.334 -9.5 20.001 -9.5c15.333 0 32.666 10.333 51.999 31z" />
    <glyph glyph-name="guillemotright" unicode="&#xbb;" horiz-adv-x="455" 
d="M58 60c41.333 16 72.001 29.666 92.001 40.999s43.333 26.666 70 45.999c-47.333 24.667 -87.333 49.334 -120 74.001s-49 49 -49 73c0 4 0.5 8 1.5 12s2.16699 7.33301 3.5 10c21.333 -30 50.166 -60.333 86.499 -91s70.833 -53 103.5 -67
c-3.33301 -12.667 -14.833 -28.167 -34.5 -46.5s-41.5 -34.166 -65.5 -47.499s-43.667 -20 -59 -20c-10 0 -19.667 5.33301 -29 16zM208.001 59.999c41.333 16 72.001 29.666 92.001 40.999s43.333 26.666 70 45.999c-47.333 24.667 -87.333 49.334 -120 74.001
s-49 49 -49 73c0 4 0.5 8 1.5 12s2.16699 7.33301 3.5 10c21.333 -30 50.166 -60.333 86.499 -91s70.833 -53 103.5 -67c-3.33301 -12.667 -14.833 -28.167 -34.5 -46.5s-41.5 -34.166 -65.5 -47.499s-43.667 -20 -59 -20c-10 0 -19.667 5.33301 -29 16z" />
    <glyph glyph-name="onequarter" unicode="&#xbc;" horiz-adv-x="642" 
d="M178 104c59.333 98 117.834 202.5 175.501 313.5s98.167 196.833 121.5 257.5c3.33301 10 14.333 20 33 30s35.667 15 51 15c-12.667 -32 -60.667 -127.833 -144 -287.5s-145 -271.5 -185 -335.5c-38 -60.667 -71.667 -106.5 -101 -137.5s-57.333 -46.5 -84 -46.5
c29.333 29.333 73.666 93 132.999 191zM86.001 320.5c-8 4.33301 -14.6719 10.1641 -20.0049 17.4971h12l9 -1c14.667 0 31.334 1.66699 50.001 5c8.66699 19.333 16.334 44.5 23.001 75.5s14.667 70.833 24 119.5c8.66699 50 15.667 84.333 21 103
c-26.667 -17.333 -43.667 -26 -51 -26c-5.33301 0 -9.16602 1.33301 -11.499 4s-3.5 7.33398 -3.5 14.001c9.33301 4.66699 25 15.667 47 33s41.333 34.666 58 51.999h6c3.33301 -3.33301 5 -8.66602 5 -15.999s-2 -18.333 -6 -33
c-4.66699 -19.333 -10.667 -48.666 -18 -87.999l-19 -92l-13 -62c-4.66699 -20.667 -9 -37.167 -13 -49.5s-9 -22.166 -15 -29.499c3.33301 0.666992 7.66602 1 12.999 1c14.667 0 26.334 -2.33301 35.001 -7s14.334 -13 17.001 -25c-17.333 1.33301 -31.666 2 -42.999 2
c-12 0 -27.333 -0.666992 -46 -2c-17.333 -1.33301 -30 -2 -38 -2c-7.33301 0 -15 2.16699 -23 6.5zM461.996 -0.00195312c0 12.667 8.33203 57.332 24.999 133.999l-19 1h-17c-40 0 -73.667 -3 -101 -9c0 10 3.33301 18.333 10 25c48 42.667 90 82.334 126 119.001
s63.667 72.334 83 107.001c8.66699 -1.33301 13 -6 13 -14c0 -2 -2 -9.66699 -6 -23c-1.33301 -4.66699 -5.83301 -21.834 -13.5 -51.501s-16.5 -71.167 -26.5 -124.5h17c7.33301 0 19.333 1.66699 36 5c-7.33301 -10 -15.833 -18.333 -25.5 -25s-18.167 -10 -25.5 -10h-7
c-3.33301 -18 -7.66602 -44.667 -12.999 -80s-8 -62 -8 -80c-32 2 -48 10.667 -48 26zM447.995 166.996l28 -1h19l5 23c8 40 15.333 70 22 90l-44 -43l-19 -18c-22.667 -20 -40.667 -37.667 -54 -53c16 1.33301 30.333 2 43 2z" />
    <glyph glyph-name="onehalf" unicode="&#xbd;" horiz-adv-x="698" 
d="M184 104c59.333 98 117.834 202.5 175.501 313.5s98.167 196.833 121.5 257.5c3.33301 10 14.333 20 33 30s35.667 15 51 15c-12.667 -32 -60.667 -127.833 -144 -287.5s-145 -271.5 -185 -335.5c-38 -60.667 -71.667 -106.5 -101 -137.5s-57.333 -46.5 -84 -46.5
c29.333 29.333 73.666 93 132.999 191zM92.001 320.5c-8 4.33301 -14.6719 10.1641 -20.0049 17.4971h12l9 -1c14.667 0 31.334 1.66699 50.001 5c8.66699 19.333 16.334 44.5 23.001 75.5s14.667 70.833 24 119.5c8.66699 50 15.667 84.333 21 103
c-26.667 -17.333 -43.667 -26 -51 -26c-5.33301 0 -9.16602 1.33301 -11.499 4s-3.5 7.33398 -3.5 14.001c9.33301 4.66699 25 15.667 47 33s41.333 34.666 58 51.999h6c3.33301 -3.33301 5 -8.66602 5 -15.999s-2 -18.333 -6 -33
c-4.66699 -19.333 -10.667 -48.666 -18 -87.999l-19 -92l-13 -62c-4.66699 -20.667 -9 -37.167 -13 -49.5s-9 -22.166 -15 -29.499c3.33301 0.666992 7.66602 1 12.999 1c14.667 0 26.334 -2.33301 35.001 -7s14.334 -13 17.001 -25c-17.333 1.33301 -31.666 2 -42.999 2
c-12 0 -27.333 -0.666992 -46 -2c-17.333 -1.33301 -30 -2 -38 -2c-7.33301 0 -15 2.16699 -23 6.5zM513.496 -18.502c-15.667 5 -34.167 12.167 -55.5 21.5l-19 8c-21.333 -14 -40 -21 -56 -21c-11.333 0 -20.5 2.66699 -27.5 8s-10.5 12.333 -10.5 21
c0 17.333 13.667 26 41 26c10.667 0 27.667 -2.33301 51 -7c32.667 28.667 62.5 68 89.5 118s40.5 95.667 40.5 137c0 22.667 -4.5 39.667 -13.5 51s-20.833 17 -35.5 17c-19.333 0 -34.833 -9.33301 -46.5 -28s-17.5 -42 -17.5 -70c0 -10.667 2.33301 -22.667 7 -36h-8
c-13.333 4 -23 9.33301 -29 16s-9 16.667 -9 30c0 28 10.667 52.5 32 73.5s47.666 31.5 78.999 31.5c24.667 0 44.834 -8.83301 60.501 -26.5s23.5 -39.5 23.5 -65.5c0 -42 -14 -87 -42 -135s-61 -87.667 -99 -119l8 -2c45.333 -10.667 75.666 -16 90.999 -16
c10.667 0 25.334 6 44.001 18c-5.33301 -20 -12.5 -34.667 -21.5 -44s-20.833 -14 -35.5 -14c-12 0 -25.833 2.5 -41.5 7.5zM412.996 20.998c-12 4.66699 -22.333 7 -31 7c-4.66699 0 -8.16699 -1 -10.5 -3s-3.5 -4.33301 -3.5 -7s1.5 -5 4.5 -7s6.16699 -3 9.5 -3
c6.66699 0 17 4.33301 31 13z" />
    <glyph glyph-name="threequarters" unicode="&#xbe;" horiz-adv-x="685" 
d="M221 104c59.333 98 117.834 202.5 175.501 313.5s98.167 196.833 121.5 257.5c3.33301 10 14.333 20 33 30s35.667 15 51 15c-12.667 -32 -60.667 -127.833 -144 -287.5s-145 -271.5 -185 -335.5c-38 -60.667 -71.667 -106.5 -101 -137.5s-57.333 -46.5 -84 -46.5
c29.333 29.333 73.666 93 132.999 191zM104.001 336.5c-14 15 -21.0029 31.835 -21.0029 50.502c0 14 4 26.667 12 38s19 17 33 17c5.33301 0 10 -0.666992 14 -2c-5.33301 -4 -9.5 -10.5 -12.5 -19.5s-4.5 -18.167 -4.5 -27.5c0 -16 4.33301 -29.833 13 -41.5
s20.334 -17.5 35.001 -17.5c12.667 0 24.834 4.66699 36.501 14s21.334 22.166 29.001 38.499s11.5 34.833 11.5 55.5c0 22 -4.66699 41.333 -14 58s-24.333 27.667 -45 33c24.667 10.667 44.834 28.167 60.501 52.5s23.5 47.166 23.5 68.499
c0 16 -3.83301 27.833 -11.5 35.5s-17.5 11.5 -29.5 11.5c-14 0 -26.333 -4.66699 -37 -14s-16 -22 -16 -38c0 -9.33301 2.66699 -20.333 8 -33c-2 -4 -5.5 -7.66699 -10.5 -11s-9.5 -5 -13.5 -5c-6.66699 0 -11.834 4.33301 -15.501 13s-5.5 18 -5.5 28
c0 23.333 9.66699 42 29 56s41.666 21 66.999 21c22 0 40.833 -5.83301 56.5 -17.5s23.5 -27.834 23.5 -48.501c0 -22 -7.83301 -44.5 -23.5 -67.5s-35.167 -38.5 -58.5 -46.5c24 -8 41.667 -21.167 53 -39.5s17 -37.166 17 -56.499c0 -21.333 -6.16699 -41.833 -18.5 -61.5
s-29.166 -35.667 -50.499 -48s-45 -18.5 -71 -18.5c-28.667 0 -50 7.5 -64 22.5zM504.998 0.00195312c0 12.667 8.33203 57.332 24.999 133.999l-19 1h-17c-40 0 -73.667 -3 -101 -9c0 10 3.33301 18.333 10 25c48 42.667 90 82.334 126 119.001s63.667 72.334 83 107.001
c8.66699 -1.33301 13 -6 13 -14c0 -2 -2 -9.66699 -6 -23c-1.33301 -4.66699 -5.83301 -21.834 -13.5 -51.501s-16.5 -71.167 -26.5 -124.5h17c7.33301 0 19.333 1.66699 36 5c-7.33301 -10 -15.833 -18.333 -25.5 -25s-18.167 -10 -25.5 -10h-7
c-3.33301 -18 -7.66602 -44.667 -12.999 -80s-8 -62 -8 -80c-32 2 -48 10.667 -48 26zM490.997 167l28 -1h19l5 23c8 40 15.333 70 22 90l-44 -43l-19 -18c-22.667 -20 -40.667 -37.667 -54 -53c16 1.33301 30.333 2 43 2z" />
    <glyph glyph-name="questiondown" unicode="&#xbf;" horiz-adv-x="415" 
d="M156 344c0 11.333 5.5 21.832 16.5 31.499s22.833 14.5 35.5 14.5c8.66699 0 16.167 -2.33301 22.5 -7s9.5 -11 9.5 -19c0 -11.333 -6.16699 -21.166 -18.5 -29.499s-25.5 -12.5 -39.5 -12.5c-17.333 0 -26 7.33301 -26 22zM-14 -249.001
c-24 20.667 -36.0029 49.999 -36.0029 87.999c0 32 7.5 59.667 22.5 83s38.167 51 69.5 83c28.667 30 50.834 55.333 66.501 76s27.834 45 36.501 73c4.66699 14.667 8.33398 31.334 11.001 50.001c4 23.333 8.66699 40.666 14 51.999c12.667 -6 21 -11.667 25 -17
s6 -13.666 6 -24.999c0 -31.333 -7.66699 -59.5 -23 -84.5s-38.333 -54.5 -69 -88.5c-22 -25.333 -39.5 -46.666 -52.5 -63.999s-24 -37 -33 -59s-13.5 -45.667 -13.5 -71c0 -32.667 7.33301 -57.834 22 -75.501s33.667 -26.5 57 -26.5s46.833 8.66699 70.5 26
s43 40.666 58 69.999s22.5 61 22.5 95c0 14 -2.33301 31 -7 51c24 -3.33301 40.333 -10.666 49 -21.999s13 -27 13 -47c0 -34 -9 -66.167 -27 -96.5s-43 -54.833 -75 -73.5s-68 -28 -108 -28c-42 0 -75 10.333 -99 31z" />
    <glyph glyph-name="Agrave" unicode="&#xc0;" horiz-adv-x="592" 
d="M-17 -35c0 26 13.8311 66.6689 41.498 122.002s64.5 119 110.5 191c-40.667 3.33301 -76.667 5 -108 5h-35c12.667 34.667 47.334 52 104.001 52c18 0 42 -2.33301 72 -7c51.333 77.333 103.5 150.166 156.5 218.499s94.833 116.833 125.5 145.5
c19.333 18.667 35.333 28 48 28c14 0 31.667 -10.667 53 -32c-13.333 -10.667 -32.666 -53.834 -57.999 -129.501s-48 -158.334 -68 -248.001s-30 -161.834 -30 -216.501c0 -26.667 2.83301 -46.667 8.5 -60s15.167 -20 28.5 -20c36.667 0 80.334 49.333 131.001 148l10 -10
c-20.667 -54.667 -46.5 -98.667 -77.5 -132s-62.833 -50 -95.5 -50c-26.667 0 -46.334 11.833 -59.001 35.5s-19 56.5 -19 98.5c0 42.667 5.66699 92.334 17 149.001c-42.667 6.66699 -92 13.334 -148 20.001c-65.333 -120 -123.333 -240 -174 -360
c-22.667 12.667 -34 30 -34 52zM399.998 483.002c22 67.333 44.001 125.333 66.001 174c-30 -18.667 -66.833 -58 -110.5 -118s-89.834 -133.333 -138.501 -220c26.667 -5.33301 54.667 -12 84 -20l45 -11c14 62.667 32 127.667 54 195zM420.999 864.002
c2 20.667 9.33301 30.999 22 30.999c12 0 26.167 -8 42.5 -24s30.666 -34.167 42.999 -54.5s18.5 -34.5 18.5 -42.5c0 -4 -1.16699 -8.83301 -3.5 -14.5s-5.83301 -9.5 -10.5 -11.5c-25.333 34.667 -62.666 73.334 -111.999 116.001z" />
    <glyph glyph-name="Aacute" unicode="&#xc1;" horiz-adv-x="592" 
d="M-17 -35c0 26 13.8311 66.6689 41.498 122.002s64.5 119 110.5 191c-40.667 3.33301 -76.667 5 -108 5h-35c12.667 34.667 47.334 52 104.001 52c18 0 42 -2.33301 72 -7c51.333 77.333 103.5 150.166 156.5 218.499s94.833 116.833 125.5 145.5
c19.333 18.667 35.333 28 48 28c14 0 31.667 -10.667 53 -32c-13.333 -10.667 -32.666 -53.834 -57.999 -129.501s-48 -158.334 -68 -248.001s-30 -161.834 -30 -216.501c0 -26.667 2.83301 -46.667 8.5 -60s15.167 -20 28.5 -20c36.667 0 80.334 49.333 131.001 148l10 -10
c-20.667 -54.667 -46.5 -98.667 -77.5 -132s-62.833 -50 -95.5 -50c-26.667 0 -46.334 11.833 -59.001 35.5s-19 56.5 -19 98.5c0 42.667 5.66699 92.334 17 149.001c-42.667 6.66699 -92 13.334 -148 20.001c-65.333 -120 -123.333 -240 -174 -360
c-22.667 12.667 -34 30 -34 52zM399.998 483.002c22 67.333 44.001 125.333 66.001 174c-30 -18.667 -66.833 -58 -110.5 -118s-89.834 -133.333 -138.501 -220c26.667 -5.33301 54.667 -12 84 -20l45 -11c14 62.667 32 127.667 54 195zM524.499 759.502
c-2.33301 5.66699 -3.5 10.501 -3.5 14.501c0 8 6.16699 22.167 18.5 42.5s26.666 38.5 42.999 54.5s30.5 24 42.5 24c12.667 0 20 -10.333 22 -31c-49.333 -42.667 -86.666 -81.334 -111.999 -116.001c-4.66699 2 -8.16699 5.83301 -10.5 11.5z" />
    <glyph glyph-name="Acircumflex" unicode="&#xc2;" horiz-adv-x="592" 
d="M-17 -35c0 26 13.8311 66.6689 41.498 122.002s64.5 119 110.5 191c-40.667 3.33301 -76.667 5 -108 5h-35c12.667 34.667 47.334 52 104.001 52c18 0 42 -2.33301 72 -7c51.333 77.333 103.5 150.166 156.5 218.499s94.833 116.833 125.5 145.5
c19.333 18.667 35.333 28 48 28c14 0 31.667 -10.667 53 -32c-13.333 -10.667 -32.666 -53.834 -57.999 -129.501s-48 -158.334 -68 -248.001s-30 -161.834 -30 -216.501c0 -26.667 2.83301 -46.667 8.5 -60s15.167 -20 28.5 -20c36.667 0 80.334 49.333 131.001 148l10 -10
c-20.667 -54.667 -46.5 -98.667 -77.5 -132s-62.833 -50 -95.5 -50c-26.667 0 -46.334 11.833 -59.001 35.5s-19 56.5 -19 98.5c0 42.667 5.66699 92.334 17 149.001c-42.667 6.66699 -92 13.334 -148 20.001c-65.333 -120 -123.333 -240 -174 -360
c-22.667 12.667 -34 30 -34 52zM399.998 483.002c22 67.333 44.001 125.333 66.001 174c-30 -18.667 -66.833 -58 -110.5 -118s-89.834 -133.333 -138.501 -220c26.667 -5.33301 54.667 -12 84 -20l45 -11c14 62.667 32 127.667 54 195zM596.999 790.002
c-11.333 13.333 -26 28.668 -44 46.001c-22.667 -8 -42 -16.333 -58 -25s-31 -19.334 -45 -32.001c-6.66699 4 -10 10.333 -10 19c0 12 7.33301 24.833 22 38.5s31.334 25.334 50.001 35.001s32.667 14.5 42 14.5c10.667 0 23.167 -6.33301 37.5 -19
s26.666 -27.667 36.999 -45s15.5 -33 15.5 -47c0 -14.667 -5.66699 -25 -17 -31c-8.66699 17.333 -18.667 32.666 -30 45.999z" />
    <glyph glyph-name="Atilde" unicode="&#xc3;" horiz-adv-x="592" 
d="M-17 -35c0 26 13.8311 66.6689 41.498 122.002s64.5 119 110.5 191c-40.667 3.33301 -76.667 5 -108 5h-35c12.667 34.667 47.334 52 104.001 52c18 0 42 -2.33301 72 -7c51.333 77.333 103.5 150.166 156.5 218.499s94.833 116.833 125.5 145.5
c19.333 18.667 35.333 28 48 28c14 0 31.667 -10.667 53 -32c-13.333 -10.667 -32.666 -53.834 -57.999 -129.501s-48 -158.334 -68 -248.001s-30 -161.834 -30 -216.501c0 -26.667 2.83301 -46.667 8.5 -60s15.167 -20 28.5 -20c36.667 0 80.334 49.333 131.001 148l10 -10
c-20.667 -54.667 -46.5 -98.667 -77.5 -132s-62.833 -50 -95.5 -50c-26.667 0 -46.334 11.833 -59.001 35.5s-19 56.5 -19 98.5c0 42.667 5.66699 92.334 17 149.001c-42.667 6.66699 -92 13.334 -148 20.001c-65.333 -120 -123.333 -240 -174 -360
c-22.667 12.667 -34 30 -34 52zM399.998 483.002c22 67.333 44.001 125.333 66.001 174c-30 -18.667 -66.833 -58 -110.5 -118s-89.834 -133.333 -138.501 -220c26.667 -5.33301 54.667 -12 84 -20l45 -11c14 62.667 32 127.667 54 195zM584.499 766.502
c-12.333 3.66699 -27.834 9.16699 -46.501 16.5c-19.333 8 -36 14 -50 18s-28 6 -42 6c-20.667 0 -38.667 -5 -54 -15c24 33.333 53 50 87 50c12 0 24.333 -1.83301 37 -5.5s27.667 -9.16699 45 -16.5c26 -9.33301 46.333 -16 61 -20s30.334 -6 47.001 -6
c10.667 0 22 2.66699 34 8c-22 -27.333 -49.333 -41 -82 -41c-12 0 -24.167 1.83301 -36.5 5.5z" />
    <glyph glyph-name="Adieresis" unicode="&#xc4;" horiz-adv-x="592" 
d="M-17 -35c0 26 13.8311 66.6689 41.498 122.002s64.5 119 110.5 191c-40.667 3.33301 -76.667 5 -108 5h-35c12.667 34.667 47.334 52 104.001 52c18 0 42 -2.33301 72 -7c51.333 77.333 103.5 150.166 156.5 218.499s94.833 116.833 125.5 145.5
c19.333 18.667 35.333 28 48 28c14 0 31.667 -10.667 53 -32c-13.333 -10.667 -32.666 -53.834 -57.999 -129.501s-48 -158.334 -68 -248.001s-30 -161.834 -30 -216.501c0 -26.667 2.83301 -46.667 8.5 -60s15.167 -20 28.5 -20c36.667 0 80.334 49.333 131.001 148l10 -10
c-20.667 -54.667 -46.5 -98.667 -77.5 -132s-62.833 -50 -95.5 -50c-26.667 0 -46.334 11.833 -59.001 35.5s-19 56.5 -19 98.5c0 42.667 5.66699 92.334 17 149.001c-42.667 6.66699 -92 13.334 -148 20.001c-65.333 -120 -123.333 -240 -174 -360
c-22.667 12.667 -34 30 -34 52zM399.998 483.002c22 67.333 44.001 125.333 66.001 174c-30 -18.667 -66.833 -58 -110.5 -118s-89.834 -133.333 -138.501 -220c26.667 -5.33301 54.667 -12 84 -20l45 -11c14 62.667 32 127.667 54 195zM438.499 781.502
c-7 5 -10.499 12.5 -10.499 22.5c0 12 7.16699 22.833 21.5 32.5s29.166 14.5 44.499 14.5c20 0 30 -9.33301 30 -28c0 -11.333 -6.16699 -22.333 -18.5 -33s-25.833 -16 -40.5 -16c-10.667 0 -19.5 2.5 -26.5 7.5zM582.5 760.502c-7 5 -10.499 12.5 -10.499 22.5
c0 12 7.16699 22.833 21.5 32.5s29.166 14.5 44.499 14.5c20 0 30 -9.33301 30 -28c0 -11.333 -6.16699 -22.333 -18.5 -33s-25.833 -16 -40.5 -16c-10.667 0 -19.5 2.5 -26.5 7.5z" />
    <glyph glyph-name="Aring" unicode="&#xc5;" horiz-adv-x="592" 
d="M-17 -35c0 26 13.8311 66.6689 41.498 122.002s64.5 119 110.5 191c-40.667 3.33301 -76.667 5 -108 5h-35c12.667 34.667 47.334 52 104.001 52c18 0 42 -2.33301 72 -7c51.333 77.333 103.5 150.166 156.5 218.499s94.833 116.833 125.5 145.5
c19.333 18.667 35.333 28 48 28c14 0 31.667 -10.667 53 -32c-13.333 -10.667 -32.666 -53.834 -57.999 -129.501s-48 -158.334 -68 -248.001s-30 -161.834 -30 -216.501c0 -26.667 2.83301 -46.667 8.5 -60s15.167 -20 28.5 -20c36.667 0 80.334 49.333 131.001 148l10 -10
c-20.667 -54.667 -46.5 -98.667 -77.5 -132s-62.833 -50 -95.5 -50c-26.667 0 -46.334 11.833 -59.001 35.5s-19 56.5 -19 98.5c0 42.667 5.66699 92.334 17 149.001c-42.667 6.66699 -92 13.334 -148 20.001c-65.333 -120 -123.333 -240 -174 -360
c-22.667 12.667 -34 30 -34 52zM399.998 483.002c22 67.333 44.001 125.333 66.001 174c-30 -18.667 -66.833 -58 -110.5 -118s-89.834 -133.333 -138.501 -220c26.667 -5.33301 54.667 -12 84 -20l45 -11c14 62.667 32 127.667 54 195zM479.499 769.002
c-11.667 10 -17.498 23 -17.498 39s5.5 32.833 16.5 50.5s26 32.334 45 44.001s39.167 17.5 60.5 17.5c26 0 45.167 -5 57.5 -15s18.5 -23 18.5 -39s-5.83301 -32.833 -17.5 -50.5s-27.334 -32.334 -47.001 -44.001s-40.167 -17.5 -61.5 -17.5
c-24.667 0 -42.834 5 -54.501 15zM580.501 788.002c12.333 9.33301 22.501 20.834 30.501 34.501s12 26.167 12 37.5c0 10 -3.83301 18.667 -11.5 26s-18.5 11 -32.5 11c-12.667 0 -25 -4.33301 -37 -13s-21.833 -19.334 -29.5 -32.001s-11.5 -25 -11.5 -37
c0 -10 3.66699 -19.333 11 -28s17.666 -13 30.999 -13c12.667 0 25.167 4.66699 37.5 14z" />
    <glyph glyph-name="AE" unicode="&#xc6;" horiz-adv-x="747" 
d="M-17 -35c0 26 13.8252 66.665 41.4922 121.998s64.5 119 110.5 191c-40.667 3.33301 -76.667 5 -108 5h-35c12.667 34.667 47.334 52 104.001 52c18 0 42 -2.33301 72 -7c72 108 139.667 200.333 203 277s105.666 115 126.999 115c48 0 102.5 -2.5 163.5 -7.5
s109.5 -10.167 145.5 -15.5c-5.33301 -14 -23.166 -23.5 -53.499 -28.5s-69.166 -7.5 -116.499 -7.5c-27.333 0 -61.666 0.666992 -102.999 2c-11.333 -22.667 -24.666 -56.5 -39.999 -101.5s-30 -93.833 -44 -146.5c48.667 -1.33301 106.334 -7.33301 173.001 -18l35 -5
c-5.33301 -14 -23.166 -23.5 -53.499 -28.5s-69.166 -7.5 -116.499 -7.5c-26 0 -43.667 0.333008 -53 1c-26.667 -113.333 -40 -201 -40 -263c0 -16 1 -29.667 3 -41c33.333 -4.66699 80.666 -9.66699 141.999 -15c6.66699 -0.666992 26.5 -2.5 59.5 -5.5
s56.5 -6.16699 70.5 -9.5c-5.33301 -14 -23.166 -23.5 -53.499 -28.5s-69.166 -7.5 -116.499 -7.5c-74 0 -123.667 1.33301 -149 4c-10 10 -17.333 24.833 -22 44.5s-7 42.5 -7 68.5c0 42.667 5.66699 92.334 17 149.001c-42.667 6.66699 -92 13.334 -148 20.001
c-65.333 -120 -123.333 -240 -174 -360c-22.667 12.667 -34 30 -34 52zM399.992 482.998c22 67.333 44.001 125.333 66.001 174c-30 -18.667 -66.833 -58 -110.5 -118s-89.834 -133.333 -138.501 -220c26.667 -5.33301 54.667 -12 84 -20l45 -11
c14 62.667 32 127.667 54 195z" />
    <glyph glyph-name="Ccedilla" unicode="&#xc7;" horiz-adv-x="534" 
d="M477 -99c0 -18.667 -5.49609 -36.667 -16.4961 -54s-25.5 -31.333 -43.5 -42s-37 -16 -57 -16c-18.667 0 -33.5 3.5 -44.5 10.5s-16.5 15.5 -16.5 25.5c0 11.333 7.33301 22.333 22 33c3.33301 -15.333 8.83301 -26.666 16.5 -33.999s16.167 -11 25.5 -11
c12 0 24.5 4.66699 37.5 14s23.833 21 32.5 35s13 26.667 13 38c0 6 -1.33301 11.667 -4 17s-7 8 -13 8c-7.33301 0 -15.333 -2.33301 -24 -7s-20 -11.334 -34 -20.001c-2.66699 -1.33301 -7.16699 -4 -13.5 -8s-10.833 -6 -13.5 -6c-4 0 -7.33301 2 -10 6s-4 8 -4 12
c0 1.33301 4.66699 8.5 14 21.5l30 40.5c-50 -34 -101.667 -51 -155 -51c-44.667 0 -81.834 11.333 -111.501 34s-51.334 52.5 -65.001 89.5s-20.5 77.167 -20.5 120.5c0 85.333 21 171.833 63 259.5s95 160 159 217s127 85.5 189 85.5c28.667 0 51.167 -7 67.5 -21
s24.5 -35.667 24.5 -65c0 -26 -6 -56 -18 -90s-27 -63 -45 -87s-35.667 -36 -53 -36c-13.333 0 -23.666 7.66699 -30.999 23c24.667 28 48.667 62 72 102s35 73 35 99c0 14 -4 25 -12 33s-20.333 12 -37 12c-46 0 -95.333 -29.833 -148 -89.5
s-96.834 -132.834 -132.501 -219.501s-53.5 -166.667 -53.5 -240c0 -54.667 11.667 -100.5 35 -137.5s58.666 -55.5 105.999 -55.5c34 0 68.667 9.83301 104 29.5s67.666 45.834 96.999 78.501s53 68.334 71 107.001l14 -10c-31.333 -61.333 -68.333 -112 -111 -152l-53 -81
c10 7.33301 20.167 13.166 30.5 17.499s22.5 6.5 36.5 6.5c30 0 45 -14 45 -42z" />
    <glyph glyph-name="Egrave" unicode="&#xc8;" horiz-adv-x="498" 
d="M77.5 -62.5c-29.667 16.333 -52.4971 38.3281 -68.4971 65.9951s-24 58.167 -24 91.5c0 40.667 11.667 80 35 118s54.833 69.833 94.5 95.5s82.834 40.834 129.501 45.501c-25.333 20.667 -44.333 44.834 -57 72.501s-19 56.167 -19 85.5c0 35.333 9 69 27 101
s42.667 57.667 74 77s66.333 29 105 29c36.667 0 64.834 -9.33301 84.501 -28s29.5 -45.334 29.5 -80.001c0 -24 -4.33301 -47.667 -13 -71s-19.334 -42.5 -32.001 -57.5s-24.334 -22.5 -35.001 -22.5c-7.33301 0 -14.333 3 -21 9s-12 13.667 -16 23c56 48.667 84 95 84 139
c0 20.667 -6 36.667 -18 48s-29.667 17 -53 17c-44.667 0 -79.667 -19.167 -105 -57.5s-38 -86.166 -38 -143.499c0 -67.333 19.333 -117.666 58 -150.999c-42.667 -7.33301 -80.834 -24 -114.501 -50s-59.834 -57.167 -78.501 -93.5s-28 -72.5 -28 -108.5
c0 -38 10.5 -71.667 31.5 -101s53.167 -44 96.5 -44c34 0 68.667 9.83301 104 29.5s67.666 45.834 96.999 78.501s53 68.334 71 107.001l14 -10c-37.333 -72 -82.666 -129.833 -135.999 -173.5s-112 -65.5 -176 -65.5c-38.667 0 -72.834 8.16699 -102.501 24.5z
M308.003 863.995c2 20.667 9.33301 30.999 22 30.999c12 0 26.167 -8 42.5 -24s30.666 -34.167 42.999 -54.5s18.5 -34.5 18.5 -42.5c0 -4 -1.16699 -8.83301 -3.5 -14.5s-5.83301 -9.5 -10.5 -11.5c-25.333 34.667 -62.666 73.334 -111.999 116.001z" />
    <glyph glyph-name="Eacute" unicode="&#xc9;" horiz-adv-x="498" 
d="M77.5 -62.5c-29.667 16.333 -52.4971 38.3281 -68.4971 65.9951s-24 58.167 -24 91.5c0 40.667 11.667 80 35 118s54.833 69.833 94.5 95.5s82.834 40.834 129.501 45.501c-25.333 20.667 -44.333 44.834 -57 72.501s-19 56.167 -19 85.5c0 35.333 9 69 27 101
s42.667 57.667 74 77s66.333 29 105 29c36.667 0 64.834 -9.33301 84.501 -28s29.5 -45.334 29.5 -80.001c0 -24 -4.33301 -47.667 -13 -71s-19.334 -42.5 -32.001 -57.5s-24.334 -22.5 -35.001 -22.5c-7.33301 0 -14.333 3 -21 9s-12 13.667 -16 23c56 48.667 84 95 84 139
c0 20.667 -6 36.667 -18 48s-29.667 17 -53 17c-44.667 0 -79.667 -19.167 -105 -57.5s-38 -86.166 -38 -143.499c0 -67.333 19.333 -117.666 58 -150.999c-42.667 -7.33301 -80.834 -24 -114.501 -50s-59.834 -57.167 -78.501 -93.5s-28 -72.5 -28 -108.5
c0 -38 10.5 -71.667 31.5 -101s53.167 -44 96.5 -44c34 0 68.667 9.83301 104 29.5s67.666 45.834 96.999 78.501s53 68.334 71 107.001l14 -10c-37.333 -72 -82.666 -129.833 -135.999 -173.5s-112 -65.5 -176 -65.5c-38.667 0 -72.834 8.16699 -102.501 24.5z
M411.503 759.495c-2.33301 5.66699 -3.5 10.501 -3.5 14.501c0 8 6.16699 22.167 18.5 42.5s26.666 38.5 42.999 54.5s30.5 24 42.5 24c12.667 0 20 -10.333 22 -31c-49.333 -42.667 -86.666 -81.334 -111.999 -116.001c-4.66699 2 -8.16699 5.83301 -10.5 11.5z" />
    <glyph glyph-name="Ecircumflex" unicode="&#xca;" horiz-adv-x="498" 
d="M77.5 -62.5c-29.667 16.333 -52.4971 38.3281 -68.4971 65.9951s-24 58.167 -24 91.5c0 40.667 11.667 80 35 118s54.833 69.833 94.5 95.5s82.834 40.834 129.501 45.501c-25.333 20.667 -44.333 44.834 -57 72.501s-19 56.167 -19 85.5c0 35.333 9 69 27 101
s42.667 57.667 74 77s66.333 29 105 29c36.667 0 64.834 -9.33301 84.501 -28s29.5 -45.334 29.5 -80.001c0 -24 -4.33301 -47.667 -13 -71s-19.334 -42.5 -32.001 -57.5s-24.334 -22.5 -35.001 -22.5c-7.33301 0 -14.333 3 -21 9s-12 13.667 -16 23c56 48.667 84 95 84 139
c0 20.667 -6 36.667 -18 48s-29.667 17 -53 17c-44.667 0 -79.667 -19.167 -105 -57.5s-38 -86.166 -38 -143.499c0 -67.333 19.333 -117.666 58 -150.999c-42.667 -7.33301 -80.834 -24 -114.501 -50s-59.834 -57.167 -78.501 -93.5s-28 -72.5 -28 -108.5
c0 -38 10.5 -71.667 31.5 -101s53.167 -44 96.5 -44c34 0 68.667 9.83301 104 29.5s67.666 45.834 96.999 78.501s53 68.334 71 107.001l14 -10c-37.333 -72 -82.666 -129.833 -135.999 -173.5s-112 -65.5 -176 -65.5c-38.667 0 -72.834 8.16699 -102.501 24.5z
M484.003 789.995c-11.333 13.333 -26 28.668 -44 46.001c-22.667 -8 -42 -16.333 -58 -25s-31 -19.334 -45 -32.001c-6.66699 4 -10 10.333 -10 19c0 12 7.33301 24.833 22 38.5s31.334 25.334 50.001 35.001s32.667 14.5 42 14.5c10.667 0 23.167 -6.33301 37.5 -19
s26.666 -27.667 36.999 -45s15.5 -33 15.5 -47c0 -14.667 -5.66699 -25 -17 -31c-8.66699 17.333 -18.667 32.666 -30 45.999z" />
    <glyph glyph-name="Edieresis" unicode="&#xcb;" horiz-adv-x="498" 
d="M77.5 -62.5c-29.667 16.333 -52.4971 38.3281 -68.4971 65.9951s-24 58.167 -24 91.5c0 40.667 11.667 80 35 118s54.833 69.833 94.5 95.5s82.834 40.834 129.501 45.501c-25.333 20.667 -44.333 44.834 -57 72.501s-19 56.167 -19 85.5c0 35.333 9 69 27 101
s42.667 57.667 74 77s66.333 29 105 29c36.667 0 64.834 -9.33301 84.501 -28s29.5 -45.334 29.5 -80.001c0 -24 -4.33301 -47.667 -13 -71s-19.334 -42.5 -32.001 -57.5s-24.334 -22.5 -35.001 -22.5c-7.33301 0 -14.333 3 -21 9s-12 13.667 -16 23c56 48.667 84 95 84 139
c0 20.667 -6 36.667 -18 48s-29.667 17 -53 17c-44.667 0 -79.667 -19.167 -105 -57.5s-38 -86.166 -38 -143.499c0 -67.333 19.333 -117.666 58 -150.999c-42.667 -7.33301 -80.834 -24 -114.501 -50s-59.834 -57.167 -78.501 -93.5s-28 -72.5 -28 -108.5
c0 -38 10.5 -71.667 31.5 -101s53.167 -44 96.5 -44c34 0 68.667 9.83301 104 29.5s67.666 45.834 96.999 78.501s53 68.334 71 107.001l14 -10c-37.333 -72 -82.666 -129.833 -135.999 -173.5s-112 -65.5 -176 -65.5c-38.667 0 -72.834 8.16699 -102.501 24.5z
M325.503 781.495c-7 5 -10.499 12.5 -10.499 22.5c0 12 7.16699 22.833 21.5 32.5s29.166 14.5 44.499 14.5c20 0 30 -9.33301 30 -28c0 -11.333 -6.16699 -22.333 -18.5 -33s-25.833 -16 -40.5 -16c-10.667 0 -19.5 2.5 -26.5 7.5zM469.504 760.495
c-7 5 -10.499 12.5 -10.499 22.5c0 12 7.16699 22.833 21.5 32.5s29.166 14.5 44.499 14.5c20 0 30 -9.33301 30 -28c0 -11.333 -6.16699 -22.333 -18.5 -33s-25.833 -16 -40.5 -16c-10.667 0 -19.5 2.5 -26.5 7.5z" />
    <glyph glyph-name="Igrave" unicode="&#xcc;" horiz-adv-x="459" 
d="M8 -23c27.333 10 66.334 14.999 117.001 14.999c20 42.667 39.333 99.334 58 170.001s40.667 161.334 66 272.001l24.5 105.5c13 55.667 24.167 96.167 33.5 121.5c-52.667 -1.33301 -94.167 -3.33301 -124.5 -6s-63.833 -7.33398 -100.5 -14.001
c4.66699 26 23.167 45.333 55.5 58s81.833 19 148.5 19c43.333 0 89.5 -2.33301 138.5 -7s90.167 -9.33398 123.5 -14.001c-14 -14 -29.167 -23.333 -45.5 -28s-33.5 -7 -51.5 -7c-52 0 -88.333 -0.333008 -109 -1l-7 -36c-41.333 -229.333 -72 -383.666 -92 -462.999
c-11.333 -45.333 -23.666 -82.166 -36.999 -110.499s-29 -48.5 -47 -60.5c31.333 -2 63.666 -5 96.999 -9c48.667 -6 88.667 -9.33301 120 -10c-28.667 -28.667 -66.334 -43 -113.001 -43h-49c-61.333 -0.666992 -109.666 -1.83398 -144.999 -3.50098
s-71 -6.16699 -107 -13.5c3.33301 33.333 18.666 55 45.999 65zM234.001 863.999c2 20.667 9.33301 30.999 22 30.999c12 0 26.167 -8 42.5 -24s30.666 -34.167 42.999 -54.5s18.5 -34.5 18.5 -42.5c0 -4 -1.16699 -8.83301 -3.5 -14.5s-5.83301 -9.5 -10.5 -11.5
c-25.333 34.667 -62.666 73.334 -111.999 116.001z" />
    <glyph glyph-name="Iacute" unicode="&#xcd;" horiz-adv-x="459" 
d="M8 -23c27.333 10 66.334 14.999 117.001 14.999c20 42.667 39.333 99.334 58 170.001s40.667 161.334 66 272.001l24.5 105.5c13 55.667 24.167 96.167 33.5 121.5c-52.667 -1.33301 -94.167 -3.33301 -124.5 -6s-63.833 -7.33398 -100.5 -14.001
c4.66699 26 23.167 45.333 55.5 58s81.833 19 148.5 19c43.333 0 89.5 -2.33301 138.5 -7s90.167 -9.33398 123.5 -14.001c-14 -14 -29.167 -23.333 -45.5 -28s-33.5 -7 -51.5 -7c-52 0 -88.333 -0.333008 -109 -1l-7 -36c-41.333 -229.333 -72 -383.666 -92 -462.999
c-11.333 -45.333 -23.666 -82.166 -36.999 -110.499s-29 -48.5 -47 -60.5c31.333 -2 63.666 -5 96.999 -9c48.667 -6 88.667 -9.33301 120 -10c-28.667 -28.667 -66.334 -43 -113.001 -43h-49c-61.333 -0.666992 -109.666 -1.83398 -144.999 -3.50098
s-71 -6.16699 -107 -13.5c3.33301 33.333 18.666 55 45.999 65zM337.501 759.499c-2.33301 5.66699 -3.5 10.501 -3.5 14.501c0 8 6.16699 22.167 18.5 42.5s26.666 38.5 42.999 54.5s30.5 24 42.5 24c12.667 0 20 -10.333 22 -31
c-49.333 -42.667 -86.666 -81.334 -111.999 -116.001c-4.66699 2 -8.16699 5.83301 -10.5 11.5z" />
    <glyph glyph-name="Icircumflex" unicode="&#xce;" horiz-adv-x="459" 
d="M8 -23c27.333 10 66.334 14.999 117.001 14.999c20 42.667 39.333 99.334 58 170.001s40.667 161.334 66 272.001l24.5 105.5c13 55.667 24.167 96.167 33.5 121.5c-52.667 -1.33301 -94.167 -3.33301 -124.5 -6s-63.833 -7.33398 -100.5 -14.001
c4.66699 26 23.167 45.333 55.5 58s81.833 19 148.5 19c43.333 0 89.5 -2.33301 138.5 -7s90.167 -9.33398 123.5 -14.001c-14 -14 -29.167 -23.333 -45.5 -28s-33.5 -7 -51.5 -7c-52 0 -88.333 -0.333008 -109 -1l-7 -36c-41.333 -229.333 -72 -383.666 -92 -462.999
c-11.333 -45.333 -23.666 -82.166 -36.999 -110.499s-29 -48.5 -47 -60.5c31.333 -2 63.666 -5 96.999 -9c48.667 -6 88.667 -9.33301 120 -10c-28.667 -28.667 -66.334 -43 -113.001 -43h-49c-61.333 -0.666992 -109.666 -1.83398 -144.999 -3.50098
s-71 -6.16699 -107 -13.5c3.33301 33.333 18.666 55 45.999 65zM410.001 789.999c-11.333 13.333 -26 28.668 -44 46.001c-22.667 -8 -42 -16.333 -58 -25s-31 -19.334 -45 -32.001c-6.66699 4 -10 10.333 -10 19c0 12 7.33301 24.833 22 38.5s31.334 25.334 50.001 35.001
s32.667 14.5 42 14.5c10.667 0 23.167 -6.33301 37.5 -19s26.666 -27.667 36.999 -45s15.5 -33 15.5 -47c0 -14.667 -5.66699 -25 -17 -31c-8.66699 17.333 -18.667 32.666 -30 45.999z" />
    <glyph glyph-name="Idieresis" unicode="&#xcf;" horiz-adv-x="459" 
d="M8 -23c27.333 10 66.334 14.999 117.001 14.999c20 42.667 39.333 99.334 58 170.001s40.667 161.334 66 272.001l24.5 105.5c13 55.667 24.167 96.167 33.5 121.5c-52.667 -1.33301 -94.167 -3.33301 -124.5 -6s-63.833 -7.33398 -100.5 -14.001
c4.66699 26 23.167 45.333 55.5 58s81.833 19 148.5 19c43.333 0 89.5 -2.33301 138.5 -7s90.167 -9.33398 123.5 -14.001c-14 -14 -29.167 -23.333 -45.5 -28s-33.5 -7 -51.5 -7c-52 0 -88.333 -0.333008 -109 -1l-7 -36c-41.333 -229.333 -72 -383.666 -92 -462.999
c-11.333 -45.333 -23.666 -82.166 -36.999 -110.499s-29 -48.5 -47 -60.5c31.333 -2 63.666 -5 96.999 -9c48.667 -6 88.667 -9.33301 120 -10c-28.667 -28.667 -66.334 -43 -113.001 -43h-49c-61.333 -0.666992 -109.666 -1.83398 -144.999 -3.50098
s-71 -6.16699 -107 -13.5c3.33301 33.333 18.666 55 45.999 65zM251.501 781.499c-7 5 -10.499 12.5 -10.499 22.5c0 12 7.16699 22.833 21.5 32.5s29.166 14.5 44.499 14.5c20 0 30 -9.33301 30 -28c0 -11.333 -6.16699 -22.333 -18.5 -33s-25.833 -16 -40.5 -16
c-10.667 0 -19.5 2.5 -26.5 7.5zM395.502 760.499c-7 5 -10.499 12.5 -10.499 22.5c0 12 7.16699 22.833 21.5 32.5s29.166 14.5 44.499 14.5c20 0 30 -9.33301 30 -28c0 -11.333 -6.16699 -22.333 -18.5 -33s-25.833 -16 -40.5 -16c-10.667 0 -19.5 2.5 -26.5 7.5z" />
    <glyph glyph-name="Eth" unicode="&#xd0;" horiz-adv-x="654" 
d="M101.5 -77.5c-17.667 6.33301 -32.499 18.1689 -44.499 35.502c16.667 81.333 46 190 88 326c-31.333 0 -69 -3.33301 -113 -10c10 26.667 51.667 42.334 125 47.001c27.333 86.667 51.666 159 72.999 217c8 21.333 18.667 42.333 32 63s28.666 31 45.999 31
c9.33301 0 18.666 -3.33301 27.999 -10c-36.667 -84.667 -73.667 -184.334 -111 -299.001c51.333 0 106 -3 164 -9c-26.667 -19.333 -61 -29 -103 -29h-73c-40 -125.333 -71 -239.333 -93 -342c16 -2.66699 30.333 -4 43 -4c68.667 0 134.334 25.667 197.001 77
s113.334 117.166 152.001 197.499s58 161.5 58 243.5c0 78 -18.333 136.833 -55 176.5s-86.667 59.5 -150 59.5c-42.667 0 -81.5 -8.5 -116.5 -25.5s-62.5 -40.5 -82.5 -70.5s-30 -63 -30 -99c0 -14.667 1.66699 -27 5 -37c-20.667 0 -35.834 5.16699 -45.501 15.5
s-14.5 23.833 -14.5 40.5c0 31.333 14.333 62.666 43 93.999s67.167 57.333 115.5 78s100.166 31 155.499 31c84.667 0 147.334 -25 188.001 -75s61 -116.333 61 -199c0 -93.333 -23.5 -181 -70.5 -263s-107.667 -147.5 -182 -196.5s-150.166 -73.5 -227.499 -73.5
c-24 0 -44.833 3.16699 -62.5 9.5z" />
    <glyph glyph-name="Ntilde" unicode="&#xd1;" horiz-adv-x="640" 
d="M120 163l138.004 455.999c4.66699 16.667 7 30.334 7 41.001c0 15.333 -5 23 -15 23c-20.667 0 -39.834 -10 -57.501 -30s-31.834 -44 -42.501 -72s-16 -53.333 -16 -76c0 -13.333 1.66699 -25 5 -35c-20.667 0 -35.834 5.16699 -45.501 15.5s-14.5 24.166 -14.5 41.499
c0 28.667 11.167 58.167 33.5 88.5s49.333 55.333 81 75s60.167 29.5 85.5 29.5c24.667 0 44.5 -13.833 59.5 -41.5s26.167 -62.334 33.5 -104.001s15 -97.167 23 -166.5c14 -124.667 28.667 -236.667 44 -336c8.66699 56.667 24.167 128.334 46.5 215.001
s45.333 168.5 69 245.5s38.834 123.167 45.501 138.5c4.66699 10.667 13 21.5 25 32.5s24.667 16.5 38 16.5c-24 -63.333 -51.667 -150 -83 -260s-58.333 -216.5 -81 -319.5s-34.334 -178.833 -35.001 -227.5c-21.333 0 -38.333 6.16699 -51 18.5s-21.667 33.166 -27 62.499
c-8.66699 46.667 -22.834 135.5 -42.501 266.5l-48.5 328.5c-62 -223.333 -105.333 -375.666 -130 -456.999s-45.5 -138.166 -62.5 -170.499s-35.833 -48.5 -56.5 -48.5c11.333 42 36 125.333 74 250zM526.504 766.499c-12.333 3.66699 -27.834 9.16699 -46.501 16.5
c-19.333 8 -36 14 -50 18s-28 6 -42 6c-20.667 0 -38.667 -5 -54 -15c24 33.333 53 50 87 50c12 0 24.333 -1.83301 37 -5.5s27.667 -9.16699 45 -16.5c26 -9.33301 46.333 -16 61 -20s30.334 -6 47.001 -6c10.667 0 22 2.66699 34 8c-22 -27.333 -49.333 -41 -82 -41
c-12 0 -24.167 1.83301 -36.5 5.5z" />
    <glyph glyph-name="Ograve" unicode="&#xd2;" horiz-adv-x="623" 
d="M112.5 -56.5c-29 20.333 -51.498 49.334 -67.498 87.001s-24 81.167 -24 130.5c0 83.333 21.167 168.666 63.5 255.999s95.833 159.5 160.5 216.5s128 85.5 190 85.5c25.333 0 45.333 -4 60 -12h-11c-55.333 0 -112.333 -29.5 -171 -88.5
s-107.334 -132.5 -146.001 -220.5s-58 -171.667 -58 -251c0 -58 11.167 -105.833 33.5 -143.5s55.833 -56.5 100.5 -56.5c59.333 0 113.5 29.167 162.5 87.5s87.667 131.166 116 218.499s42.5 171.333 42.5 252c0 34 -3.66699 65.5 -11 94.5s-18.666 43.5 -33.999 43.5
s-32.5 -12.167 -51.5 -36.5s-36.333 -53.5 -52 -87.5s-26.167 -64 -31.5 -90c-16 4 -28 10.333 -36 19s-12 18.667 -12 30c0 22.667 10.5 49.334 31.5 80.001s45.833 57 74.5 79s53.667 33 75 33c30.667 0 52.5 -19.667 65.5 -59s19.5 -84 19.5 -134
c0 -114 -20.333 -213.833 -61 -299.5s-91.334 -151.167 -152.001 -196.5s-119.334 -68 -176.001 -68c-38 0 -71.5 10.167 -100.5 30.5zM400.002 864.001c2 20.667 9.33301 30.999 22 30.999c12 0 26.167 -8 42.5 -24s30.666 -34.167 42.999 -54.5s18.5 -34.5 18.5 -42.5
c0 -4 -1.16699 -8.83301 -3.5 -14.5s-5.83301 -9.5 -10.5 -11.5c-25.333 34.667 -62.666 73.334 -111.999 116.001z" />
    <glyph glyph-name="Oacute" unicode="&#xd3;" horiz-adv-x="623" 
d="M112.5 -56.5c-29 20.333 -51.498 49.334 -67.498 87.001s-24 81.167 -24 130.5c0 83.333 21.167 168.666 63.5 255.999s95.833 159.5 160.5 216.5s128 85.5 190 85.5c25.333 0 45.333 -4 60 -12h-11c-55.333 0 -112.333 -29.5 -171 -88.5
s-107.334 -132.5 -146.001 -220.5s-58 -171.667 -58 -251c0 -58 11.167 -105.833 33.5 -143.5s55.833 -56.5 100.5 -56.5c59.333 0 113.5 29.167 162.5 87.5s87.667 131.166 116 218.499s42.5 171.333 42.5 252c0 34 -3.66699 65.5 -11 94.5s-18.666 43.5 -33.999 43.5
s-32.5 -12.167 -51.5 -36.5s-36.333 -53.5 -52 -87.5s-26.167 -64 -31.5 -90c-16 4 -28 10.333 -36 19s-12 18.667 -12 30c0 22.667 10.5 49.334 31.5 80.001s45.833 57 74.5 79s53.667 33 75 33c30.667 0 52.5 -19.667 65.5 -59s19.5 -84 19.5 -134
c0 -114 -20.333 -213.833 -61 -299.5s-91.334 -151.167 -152.001 -196.5s-119.334 -68 -176.001 -68c-38 0 -71.5 10.167 -100.5 30.5zM503.502 759.501c-2.33301 5.66699 -3.5 10.501 -3.5 14.501c0 8 6.16699 22.167 18.5 42.5s26.666 38.5 42.999 54.5s30.5 24 42.5 24
c12.667 0 20 -10.333 22 -31c-49.333 -42.667 -86.666 -81.334 -111.999 -116.001c-4.66699 2 -8.16699 5.83301 -10.5 11.5z" />
    <glyph glyph-name="Ocircumflex" unicode="&#xd4;" horiz-adv-x="623" 
d="M112.5 -56.5c-29 20.333 -51.498 49.334 -67.498 87.001s-24 81.167 -24 130.5c0 83.333 21.167 168.666 63.5 255.999s95.833 159.5 160.5 216.5s128 85.5 190 85.5c25.333 0 45.333 -4 60 -12h-11c-55.333 0 -112.333 -29.5 -171 -88.5
s-107.334 -132.5 -146.001 -220.5s-58 -171.667 -58 -251c0 -58 11.167 -105.833 33.5 -143.5s55.833 -56.5 100.5 -56.5c59.333 0 113.5 29.167 162.5 87.5s87.667 131.166 116 218.499s42.5 171.333 42.5 252c0 34 -3.66699 65.5 -11 94.5s-18.666 43.5 -33.999 43.5
s-32.5 -12.167 -51.5 -36.5s-36.333 -53.5 -52 -87.5s-26.167 -64 -31.5 -90c-16 4 -28 10.333 -36 19s-12 18.667 -12 30c0 22.667 10.5 49.334 31.5 80.001s45.833 57 74.5 79s53.667 33 75 33c30.667 0 52.5 -19.667 65.5 -59s19.5 -84 19.5 -134
c0 -114 -20.333 -213.833 -61 -299.5s-91.334 -151.167 -152.001 -196.5s-119.334 -68 -176.001 -68c-38 0 -71.5 10.167 -100.5 30.5zM576.002 790.001c-11.333 13.333 -26 28.668 -44 46.001c-22.667 -8 -42 -16.333 -58 -25s-31 -19.334 -45 -32.001
c-6.66699 4 -10 10.333 -10 19c0 12 7.33301 24.833 22 38.5s31.334 25.334 50.001 35.001s32.667 14.5 42 14.5c10.667 0 23.167 -6.33301 37.5 -19s26.666 -27.667 36.999 -45s15.5 -33 15.5 -47c0 -14.667 -5.66699 -25 -17 -31
c-8.66699 17.333 -18.667 32.666 -30 45.999z" />
    <glyph glyph-name="Otilde" unicode="&#xd5;" horiz-adv-x="623" 
d="M112.5 -56.5c-29 20.333 -51.498 49.334 -67.498 87.001s-24 81.167 -24 130.5c0 83.333 21.167 168.666 63.5 255.999s95.833 159.5 160.5 216.5s128 85.5 190 85.5c25.333 0 45.333 -4 60 -12h-11c-55.333 0 -112.333 -29.5 -171 -88.5
s-107.334 -132.5 -146.001 -220.5s-58 -171.667 -58 -251c0 -58 11.167 -105.833 33.5 -143.5s55.833 -56.5 100.5 -56.5c59.333 0 113.5 29.167 162.5 87.5s87.667 131.166 116 218.499s42.5 171.333 42.5 252c0 34 -3.66699 65.5 -11 94.5s-18.666 43.5 -33.999 43.5
s-32.5 -12.167 -51.5 -36.5s-36.333 -53.5 -52 -87.5s-26.167 -64 -31.5 -90c-16 4 -28 10.333 -36 19s-12 18.667 -12 30c0 22.667 10.5 49.334 31.5 80.001s45.833 57 74.5 79s53.667 33 75 33c30.667 0 52.5 -19.667 65.5 -59s19.5 -84 19.5 -134
c0 -114 -20.333 -213.833 -61 -299.5s-91.334 -151.167 -152.001 -196.5s-119.334 -68 -176.001 -68c-38 0 -71.5 10.167 -100.5 30.5zM563.502 766.501c-12.333 3.66699 -27.834 9.16699 -46.501 16.5c-19.333 8 -36 14 -50 18s-28 6 -42 6c-20.667 0 -38.667 -5 -54 -15
c24 33.333 53 50 87 50c12 0 24.333 -1.83301 37 -5.5s27.667 -9.16699 45 -16.5c26 -9.33301 46.333 -16 61 -20s30.334 -6 47.001 -6c10.667 0 22 2.66699 34 8c-22 -27.333 -49.333 -41 -82 -41c-12 0 -24.167 1.83301 -36.5 5.5z" />
    <glyph glyph-name="Odieresis" unicode="&#xd6;" horiz-adv-x="623" 
d="M112.5 -56.5c-29 20.333 -51.498 49.334 -67.498 87.001s-24 81.167 -24 130.5c0 83.333 21.167 168.666 63.5 255.999s95.833 159.5 160.5 216.5s128 85.5 190 85.5c25.333 0 45.333 -4 60 -12h-11c-55.333 0 -112.333 -29.5 -171 -88.5
s-107.334 -132.5 -146.001 -220.5s-58 -171.667 -58 -251c0 -58 11.167 -105.833 33.5 -143.5s55.833 -56.5 100.5 -56.5c59.333 0 113.5 29.167 162.5 87.5s87.667 131.166 116 218.499s42.5 171.333 42.5 252c0 34 -3.66699 65.5 -11 94.5s-18.666 43.5 -33.999 43.5
s-32.5 -12.167 -51.5 -36.5s-36.333 -53.5 -52 -87.5s-26.167 -64 -31.5 -90c-16 4 -28 10.333 -36 19s-12 18.667 -12 30c0 22.667 10.5 49.334 31.5 80.001s45.833 57 74.5 79s53.667 33 75 33c30.667 0 52.5 -19.667 65.5 -59s19.5 -84 19.5 -134
c0 -114 -20.333 -213.833 -61 -299.5s-91.334 -151.167 -152.001 -196.5s-119.334 -68 -176.001 -68c-38 0 -71.5 10.167 -100.5 30.5zM417.502 781.501c-7 5 -10.499 12.5 -10.499 22.5c0 12 7.16699 22.833 21.5 32.5s29.166 14.5 44.499 14.5c20 0 30 -9.33301 30 -28
c0 -11.333 -6.16699 -22.333 -18.5 -33s-25.833 -16 -40.5 -16c-10.667 0 -19.5 2.5 -26.5 7.5zM561.503 760.501c-7 5 -10.499 12.5 -10.499 22.5c0 12 7.16699 22.833 21.5 32.5s29.166 14.5 44.499 14.5c20 0 30 -9.33301 30 -28c0 -11.333 -6.16699 -22.333 -18.5 -33
s-25.833 -16 -40.5 -16c-10.667 0 -19.5 2.5 -26.5 7.5z" />
    <glyph glyph-name="multiply" unicode="&#xd7;" horiz-adv-x="377" 
d="M159 132l-8 7.00293c-22 -22 -39.667 -40.667 -53 -56s-28.666 -34.666 -45.999 -57.999c-2.66699 5.33301 -4 11.333 -4 18c0 15.333 6.5 33 19.5 53s32.167 43.667 57.5 71c-46 49.333 -69 87.666 -69 114.999c0 6.66699 1.33301 12.667 4 18
c15.333 -21.333 29.333 -39.333 42 -54s29 -32.334 49 -53.001c43.333 43.333 85 80.666 125 111.999c-4.66699 -32 -22 -63 -52 -93l-45 -46l53 -53c29.333 -30.667 46.666 -61.667 51.999 -93c-40 31.333 -81.667 68.666 -125 111.999z" />
    <glyph glyph-name="Oslash" unicode="&#xd8;" horiz-adv-x="623" 
d="M30 -99c14.667 10 35.3398 30.0039 62.0068 60.0039c-22.667 21.333 -40.167 49.166 -52.5 83.499s-18.5 73.166 -18.5 116.499c0 83.333 21.167 168.666 63.5 255.999s95.833 159.5 160.5 216.5s128 85.5 190 85.5c25.333 0 45.333 -4 60 -12h-11
c-55.333 0 -112.333 -29.5 -171 -88.5s-107.334 -132.5 -146.001 -220.5s-58 -171.667 -58 -251c0 -56.667 9.33301 -101.667 28 -135c57.333 71.333 121.166 158.666 191.499 261.999l221.5 334c-8 23.333 -18.333 35 -31 35c-15.333 0 -32.5 -12.167 -51.5 -36.5
s-36.333 -53.5 -52 -87.5s-26.167 -64 -31.5 -90c-16 4 -28 10.333 -36 19s-12 18.667 -12 30c0 22.667 10.5 49.334 31.5 80.001s45.833 57 74.5 79s53.667 33 75 33s38.666 -10.667 51.999 -32l4 5c4.66699 7.33301 14.667 13.833 30 19.5s30.333 8.5 45 8.5
c7.33301 0 12.666 -0.333008 15.999 -1l-14 -21l-56 -83c5.33301 -26.667 8 -56.334 8 -89.001c0 -114 -20.333 -213.833 -61 -299.5s-91.334 -151.167 -152.001 -196.5s-119.334 -68 -176.001 -68c-28.667 0 -55.667 6.33301 -81 19c-30.667 -22 -59.334 -33 -86.001 -33
c-4 0 -9.33301 0.666992 -16 2zM405.506 34.5039c49 58.333 87.667 131.167 116 218.5s42.5 171.333 42.5 252v16l-325 -475c-23.333 -32.667 -45 -58.667 -65 -78c20.667 -14 43.667 -21 69 -21c59.333 0 113.5 29.167 162.5 87.5z" />
    <glyph glyph-name="Ugrave" unicode="&#xd9;" horiz-adv-x="706" 
d="M482.5 -68c-15 20.667 -22.4971 45.668 -22.4971 75.001c0 20.667 3 51 9 91c-56.667 -123.333 -128.667 -185 -216 -185c-41.333 0 -73.333 12.667 -96 38s-34 58 -34 98c0 27.333 4.83301 60.5 14.5 99.5s24.5 91.833 44.5 158.5c22 74 38.5 133.333 49.5 178
s16.5 84.334 16.5 119.001c0 58.667 -18.667 88 -56 88c-22.667 0 -42 -9.33301 -58 -28s-28 -41.5 -36 -68.5s-12 -52.5 -12 -76.5c0 -20 2.66699 -36.333 8 -49c-24 0 -41.5 6.33301 -52.5 19s-16.5 29.334 -16.5 50.001c0 28 8.83301 56 26.5 84s41.167 51.167 70.5 69.5
s60.666 27.5 93.999 27.5c35.333 0 61.333 -10.667 78 -32s25 -51 25 -89c0 -33.333 -5.16699 -70.333 -15.5 -111s-26.166 -95 -47.499 -163c-20 -64.667 -35 -116.5 -45 -155.5s-15 -73.833 -15 -104.5c0 -33.333 6.83301 -60.333 20.5 -81s34.834 -31 63.501 -31
c34 0 65 14.167 93 42.5s51.5 63.166 70.5 104.499s33.5 82.666 43.5 123.999c36 148 68.167 267.667 96.5 359s54.166 137 77.499 137c5.33301 0 12.666 -2.83301 21.999 -8.5s18.666 -13.5 27.999 -23.5c-12 -8 -33.333 -54.167 -64 -138.5s-58.334 -175.5 -83.001 -273.5
s-37 -176 -37 -234c0 -44.667 6 -75.334 18 -92.001s32.667 -25 62 -25c-23.333 -16 -45.333 -24 -66 -24c-24 0 -43.5 10.333 -58.5 31zM365.003 864.001c2 20.667 9.33301 30.999 22 30.999c12 0 26.167 -8 42.5 -24s30.666 -34.167 42.999 -54.5s18.5 -34.5 18.5 -42.5
c0 -4 -1.16699 -8.83301 -3.5 -14.5s-5.83301 -9.5 -10.5 -11.5c-25.333 34.667 -62.666 73.334 -111.999 116.001z" />
    <glyph glyph-name="Uacute" unicode="&#xda;" horiz-adv-x="706" 
d="M482.5 -68c-15 20.667 -22.4971 45.668 -22.4971 75.001c0 20.667 3 51 9 91c-56.667 -123.333 -128.667 -185 -216 -185c-41.333 0 -73.333 12.667 -96 38s-34 58 -34 98c0 27.333 4.83301 60.5 14.5 99.5s24.5 91.833 44.5 158.5c22 74 38.5 133.333 49.5 178
s16.5 84.334 16.5 119.001c0 58.667 -18.667 88 -56 88c-22.667 0 -42 -9.33301 -58 -28s-28 -41.5 -36 -68.5s-12 -52.5 -12 -76.5c0 -20 2.66699 -36.333 8 -49c-24 0 -41.5 6.33301 -52.5 19s-16.5 29.334 -16.5 50.001c0 28 8.83301 56 26.5 84s41.167 51.167 70.5 69.5
s60.666 27.5 93.999 27.5c35.333 0 61.333 -10.667 78 -32s25 -51 25 -89c0 -33.333 -5.16699 -70.333 -15.5 -111s-26.166 -95 -47.499 -163c-20 -64.667 -35 -116.5 -45 -155.5s-15 -73.833 -15 -104.5c0 -33.333 6.83301 -60.333 20.5 -81s34.834 -31 63.501 -31
c34 0 65 14.167 93 42.5s51.5 63.166 70.5 104.499s33.5 82.666 43.5 123.999c36 148 68.167 267.667 96.5 359s54.166 137 77.499 137c5.33301 0 12.666 -2.83301 21.999 -8.5s18.666 -13.5 27.999 -23.5c-12 -8 -33.333 -54.167 -64 -138.5s-58.334 -175.5 -83.001 -273.5
s-37 -176 -37 -234c0 -44.667 6 -75.334 18 -92.001s32.667 -25 62 -25c-23.333 -16 -45.333 -24 -66 -24c-24 0 -43.5 10.333 -58.5 31zM468.503 759.501c-2.33301 5.66699 -3.5 10.501 -3.5 14.501c0 8 6.16699 22.167 18.5 42.5s26.666 38.5 42.999 54.5s30.5 24 42.5 24
c12.667 0 20 -10.333 22 -31c-49.333 -42.667 -86.666 -81.334 -111.999 -116.001c-4.66699 2 -8.16699 5.83301 -10.5 11.5z" />
    <glyph glyph-name="Ucircumflex" unicode="&#xdb;" horiz-adv-x="706" 
d="M482.5 -68c-15 20.667 -22.4971 45.668 -22.4971 75.001c0 20.667 3 51 9 91c-56.667 -123.333 -128.667 -185 -216 -185c-41.333 0 -73.333 12.667 -96 38s-34 58 -34 98c0 27.333 4.83301 60.5 14.5 99.5s24.5 91.833 44.5 158.5c22 74 38.5 133.333 49.5 178
s16.5 84.334 16.5 119.001c0 58.667 -18.667 88 -56 88c-22.667 0 -42 -9.33301 -58 -28s-28 -41.5 -36 -68.5s-12 -52.5 -12 -76.5c0 -20 2.66699 -36.333 8 -49c-24 0 -41.5 6.33301 -52.5 19s-16.5 29.334 -16.5 50.001c0 28 8.83301 56 26.5 84s41.167 51.167 70.5 69.5
s60.666 27.5 93.999 27.5c35.333 0 61.333 -10.667 78 -32s25 -51 25 -89c0 -33.333 -5.16699 -70.333 -15.5 -111s-26.166 -95 -47.499 -163c-20 -64.667 -35 -116.5 -45 -155.5s-15 -73.833 -15 -104.5c0 -33.333 6.83301 -60.333 20.5 -81s34.834 -31 63.501 -31
c34 0 65 14.167 93 42.5s51.5 63.166 70.5 104.499s33.5 82.666 43.5 123.999c36 148 68.167 267.667 96.5 359s54.166 137 77.499 137c5.33301 0 12.666 -2.83301 21.999 -8.5s18.666 -13.5 27.999 -23.5c-12 -8 -33.333 -54.167 -64 -138.5s-58.334 -175.5 -83.001 -273.5
s-37 -176 -37 -234c0 -44.667 6 -75.334 18 -92.001s32.667 -25 62 -25c-23.333 -16 -45.333 -24 -66 -24c-24 0 -43.5 10.333 -58.5 31zM541.003 790.001c-11.333 13.333 -26 28.668 -44 46.001c-22.667 -8 -42 -16.333 -58 -25s-31 -19.334 -45 -32.001
c-6.66699 4 -10 10.333 -10 19c0 12 7.33301 24.833 22 38.5s31.334 25.334 50.001 35.001s32.667 14.5 42 14.5c10.667 0 23.167 -6.33301 37.5 -19s26.666 -27.667 36.999 -45s15.5 -33 15.5 -47c0 -14.667 -5.66699 -25 -17 -31
c-8.66699 17.333 -18.667 32.666 -30 45.999z" />
    <glyph glyph-name="Udieresis" unicode="&#xdc;" horiz-adv-x="706" 
d="M482.5 -68c-15 20.667 -22.4971 45.668 -22.4971 75.001c0 20.667 3 51 9 91c-56.667 -123.333 -128.667 -185 -216 -185c-41.333 0 -73.333 12.667 -96 38s-34 58 -34 98c0 27.333 4.83301 60.5 14.5 99.5s24.5 91.833 44.5 158.5c22 74 38.5 133.333 49.5 178
s16.5 84.334 16.5 119.001c0 58.667 -18.667 88 -56 88c-22.667 0 -42 -9.33301 -58 -28s-28 -41.5 -36 -68.5s-12 -52.5 -12 -76.5c0 -20 2.66699 -36.333 8 -49c-24 0 -41.5 6.33301 -52.5 19s-16.5 29.334 -16.5 50.001c0 28 8.83301 56 26.5 84s41.167 51.167 70.5 69.5
s60.666 27.5 93.999 27.5c35.333 0 61.333 -10.667 78 -32s25 -51 25 -89c0 -33.333 -5.16699 -70.333 -15.5 -111s-26.166 -95 -47.499 -163c-20 -64.667 -35 -116.5 -45 -155.5s-15 -73.833 -15 -104.5c0 -33.333 6.83301 -60.333 20.5 -81s34.834 -31 63.501 -31
c34 0 65 14.167 93 42.5s51.5 63.166 70.5 104.499s33.5 82.666 43.5 123.999c36 148 68.167 267.667 96.5 359s54.166 137 77.499 137c5.33301 0 12.666 -2.83301 21.999 -8.5s18.666 -13.5 27.999 -23.5c-12 -8 -33.333 -54.167 -64 -138.5s-58.334 -175.5 -83.001 -273.5
s-37 -176 -37 -234c0 -44.667 6 -75.334 18 -92.001s32.667 -25 62 -25c-23.333 -16 -45.333 -24 -66 -24c-24 0 -43.5 10.333 -58.5 31zM382.503 781.501c-7 5 -10.499 12.5 -10.499 22.5c0 12 7.16699 22.833 21.5 32.5s29.166 14.5 44.499 14.5c20 0 30 -9.33301 30 -28
c0 -11.333 -6.16699 -22.333 -18.5 -33s-25.833 -16 -40.5 -16c-10.667 0 -19.5 2.5 -26.5 7.5zM526.504 760.501c-7 5 -10.499 12.5 -10.499 22.5c0 12 7.16699 22.833 21.5 32.5s29.166 14.5 44.499 14.5c20 0 30 -9.33301 30 -28c0 -11.333 -6.16699 -22.333 -18.5 -33
s-25.833 -16 -40.5 -16c-10.667 0 -19.5 2.5 -26.5 7.5z" />
    <glyph glyph-name="Yacute" unicode="&#xdd;" horiz-adv-x="666" 
d="M156 -162c-26 16.667 -39.0049 39.6641 -39.0049 68.9971c0 36.667 20 61.667 60 75c-5.33301 -18 -8 -36 -8 -54c0 -28 7.33301 -50 22 -66s36.334 -24 65.001 -24c58.667 0 104.167 28.833 136.5 86.5s56.5 123.167 72.5 196.5c2 8.66699 7.33301 35 16 79l11.5 56.5
l14.5 69.5c-28.667 -55.333 -60.667 -98.333 -96 -129s-75.666 -46 -120.999 -46c-38 0 -65.667 10.5 -83 31.5s-26 50.167 -26 87.5c0 24 3 50.333 9 79s15 63.667 27 105c11.333 40.667 19.5 72.667 24.5 96s7.5 44.666 7.5 63.999c0 23.333 -4.5 42.166 -13.5 56.499
s-23.5 21.5 -43.5 21.5c-22.667 0 -42.167 -9.33301 -58.5 -28s-28.666 -41.5 -36.999 -68.5s-12.5 -52.5 -12.5 -76.5c0 -20 2.66699 -36.333 8 -49c-24 0 -41.5 6.33301 -52.5 19s-16.5 29.334 -16.5 50.001c0 28 8.83301 56 26.5 84s41.167 51.167 70.5 69.5
s60.666 27.5 93.999 27.5c35.333 0 61.5 -10 78.5 -30s25.5 -43.667 25.5 -71c0 -15.333 -2.33301 -33.166 -7 -53.499s-12 -48.5 -22 -84.5c-12.667 -45.333 -22.167 -82.666 -28.5 -111.999s-9.5 -56.666 -9.5 -81.999c0 -64 23.333 -96 70 -96c42 0 81 24 117 72
s67.667 107 95 177c20.667 84.667 40.834 152.5 60.501 203.5s39.5 76.5 59.5 76.5c6.66699 0 15.334 -3 26.001 -9s20.667 -13.667 30 -23c-24 -38 -42.833 -73.333 -56.5 -106s-27.667 -75 -42 -127s-36.5 -139 -66.5 -261
c-19.333 -77.333 -38.666 -141.666 -57.999 -192.999s-47.833 -95.5 -85.5 -132.5s-86.167 -55.5 -145.5 -55.5c-40 0 -73 8.33301 -99 25zM455.495 759.497c-2.33301 5.66699 -3.5 10.501 -3.5 14.501c0 8 6.16699 22.167 18.5 42.5s26.666 38.5 42.999 54.5
s30.5 24 42.5 24c12.667 0 20 -10.333 22 -31c-49.333 -42.667 -86.666 -81.334 -111.999 -116.001c-4.66699 2 -8.16699 5.83301 -10.5 11.5z" />
    <glyph glyph-name="Thorn" unicode="&#xde;" horiz-adv-x="508" 
d="M52 -72.5c-14 9.66699 -20.999 21.498 -20.999 35.498c0 8.66699 2.16699 19.5 6.5 32.5l7.5 22.5l96 292c28 82.667 58.333 164.334 91 245.001c-24.667 -4 -46 -9.66699 -64 -17s-39 -17 -63 -29c-11.333 -7.33301 -19 -11 -23 -11c-4.66699 0 -11 3.33301 -19 10
s-12 12.334 -12 17.001c73.333 31.333 136.666 49 189.999 53l12 30c12.667 34.667 24.667 61.334 36 80.001s25 28 41 28c8.66699 0 17.334 -2.66699 26.001 -8c-18.667 -36.667 -37.334 -79.667 -56.001 -129c38.667 -3.33301 75.5 -13 110.5 -29s63.5 -37.833 85.5 -65.5
s33 -60.167 33 -97.5c0 -58.667 -21.667 -104.834 -65 -138.501s-92 -57 -146 -70s-104 -20.5 -150 -22.5l-30 -106l-38 -137c-18 0 -34 4.83301 -48 14.5zM313.501 211.498c43.667 18.333 79.333 43.832 107 76.499s41.5 71.334 41.5 116.001
c0 49.333 -16.167 86.833 -48.5 112.5s-72.833 39.5 -121.5 41.5c-32 -87.333 -71.667 -215 -119 -383c50 6 96.833 18.167 140.5 36.5z" />
    <glyph glyph-name="germandbls" unicode="&#xdf;" horiz-adv-x="427" 
d="M-23 -54c6 30.667 14.3281 79.9971 24.9951 147.997c18.667 120.667 37.334 223 56.001 307s46.334 158.167 83.001 222.5s83 96.5 139 96.5c30.667 0 55.834 -9.83301 75.501 -29.5s29.5 -46.5 29.5 -80.5c0 -45.333 -15.5 -87.666 -46.5 -126.999
s-67.167 -72.333 -108.5 -99c-8 -4.66699 -12 -9 -12 -13c0 -3.33301 4.33301 -7 13 -11c24 -10.667 46 -28 66 -52s35.667 -50.667 47 -80s17 -56.333 17 -81c0 -34.667 -9.33301 -70.334 -28 -107.001s-42.667 -67 -72 -91s-58.666 -36 -87.999 -36
c-22 0 -39.167 13 -51.5 39s-18.5 56.667 -18.5 92c0 32 5.5 59.833 16.5 83.5s25.833 35.5 44.5 35.5c7.33301 0 12.666 -0.333008 15.999 -1c-10 -5.33301 -18.5 -22.666 -25.5 -51.999s-10.5 -59.666 -10.5 -90.999c0 -25.333 2.5 -46 7.5 -62s12.5 -24 22.5 -24
c16.667 0 34.167 11.667 52.5 35s33.5 52.833 45.5 88.5s18 70.5 18 104.5c0 36.667 -7.16699 72.167 -21.5 106.5s-33.166 60.5 -56.499 78.5c-13.333 10 -20 18.667 -20 26c0 8.66699 8 20 24 34c36 34 64.167 66.5 84.5 97.5s30.5 66.833 30.5 107.5
c0 23.333 -4.5 42.833 -13.5 58.5s-24.167 23.5 -45.5 23.5c-33.333 0 -61.5 -20.167 -84.5 -60.5s-41.333 -89.666 -55 -147.999s-28.834 -134.5 -45.501 -228.5c-14 -80 -26.167 -143.167 -36.5 -189.5s-23.166 -86.5 -38.499 -120.5s-33.666 -54.333 -54.999 -61
c7.33301 10 14 30.333 20 61z" />
    <glyph glyph-name="agrave" unicode="&#xe0;" horiz-adv-x="436" 
d="M-5.5 -25.5c-13.667 14.333 -20.501 34.8311 -20.501 61.498c0 39.333 14.167 83.333 42.5 132s64.166 90 107.499 124s85.666 51 126.999 51c26 0 47.667 -7 65 -21s26 -32 26 -54c0 -15.333 -4.33301 -26.333 -13 -33s-20.667 -10 -36 -10c3.33301 12 5 23.667 5 35
c0 16.667 -4 30.167 -12 40.5s-20.333 15.5 -37 15.5c-29.333 0 -60.166 -16.333 -92.499 -49s-59.333 -71.667 -81 -117s-32.5 -84.333 -32.5 -117c0 -26 9 -39 27 -39c26.667 0 58 21.167 94 63.5s74.667 93.833 116 154.5c8.66699 -1.33301 17.5 -4.16602 26.5 -8.49902
s13.5 -9.83301 13.5 -16.5c0 -5.33301 -3.16699 -13.833 -9.5 -25.5s-10.166 -18.5 -11.499 -20.5c-11.333 -19.333 -20.333 -36.5 -27 -51.5s-10 -28.833 -10 -41.5c0 -11.333 2.83301 -21.5 8.5 -30.5s14.167 -13.5 25.5 -13.5c19.333 0 43.666 13.833 72.999 41.5
s58.333 66.5 87 116.5l10 -10c-14 -35.333 -32 -66.833 -54 -94.5s-45.667 -49.167 -71 -64.5s-49.666 -23 -72.999 -23s-41.166 6.83301 -53.499 20.5s-18.5 30.167 -18.5 49.5c0 8.66699 1 18.334 3 29.001c-30 -40 -56.833 -69.333 -80.5 -88s-47.167 -28 -70.5 -28
c-22 0 -39.833 7.16699 -53.5 21.5zM212.999 525.998c2 20.667 9.33301 30.999 22 30.999c12 0 26.167 -8 42.5 -24s30.666 -34.167 42.999 -54.5s18.5 -34.5 18.5 -42.5c0 -4 -1.16699 -8.83301 -3.5 -14.5s-5.83301 -9.5 -10.5 -11.5
c-25.333 34.667 -62.666 73.334 -111.999 116.001z" />
    <glyph glyph-name="aacute" unicode="&#xe1;" horiz-adv-x="436" 
d="M-5.5 -25.5c-13.667 14.333 -20.501 34.8311 -20.501 61.498c0 39.333 14.167 83.333 42.5 132s64.166 90 107.499 124s85.666 51 126.999 51c26 0 47.667 -7 65 -21s26 -32 26 -54c0 -15.333 -4.33301 -26.333 -13 -33s-20.667 -10 -36 -10c3.33301 12 5 23.667 5 35
c0 16.667 -4 30.167 -12 40.5s-20.333 15.5 -37 15.5c-29.333 0 -60.166 -16.333 -92.499 -49s-59.333 -71.667 -81 -117s-32.5 -84.333 -32.5 -117c0 -26 9 -39 27 -39c26.667 0 58 21.167 94 63.5s74.667 93.833 116 154.5c8.66699 -1.33301 17.5 -4.16602 26.5 -8.49902
s13.5 -9.83301 13.5 -16.5c0 -5.33301 -3.16699 -13.833 -9.5 -25.5s-10.166 -18.5 -11.499 -20.5c-11.333 -19.333 -20.333 -36.5 -27 -51.5s-10 -28.833 -10 -41.5c0 -11.333 2.83301 -21.5 8.5 -30.5s14.167 -13.5 25.5 -13.5c19.333 0 43.666 13.833 72.999 41.5
s58.333 66.5 87 116.5l10 -10c-14 -35.333 -32 -66.833 -54 -94.5s-45.667 -49.167 -71 -64.5s-49.666 -23 -72.999 -23s-41.166 6.83301 -53.499 20.5s-18.5 30.167 -18.5 49.5c0 8.66699 1 18.334 3 29.001c-30 -40 -56.833 -69.333 -80.5 -88s-47.167 -28 -70.5 -28
c-22 0 -39.833 7.16699 -53.5 21.5zM283.499 421.498c-2.33301 5.66699 -3.5 10.501 -3.5 14.501c0 8 6.16699 22.167 18.5 42.5s26.666 38.5 42.999 54.5s30.5 24 42.5 24c12.667 0 20 -10.333 22 -31c-49.333 -42.667 -86.666 -81.334 -111.999 -116.001
c-4.66699 2 -8.16699 5.83301 -10.5 11.5z" />
    <glyph glyph-name="acircumflex" unicode="&#xe2;" horiz-adv-x="436" 
d="M-5.5 -25.5c-13.667 14.333 -20.501 34.8311 -20.501 61.498c0 39.333 14.167 83.333 42.5 132s64.166 90 107.499 124s85.666 51 126.999 51c26 0 47.667 -7 65 -21s26 -32 26 -54c0 -15.333 -4.33301 -26.333 -13 -33s-20.667 -10 -36 -10c3.33301 12 5 23.667 5 35
c0 16.667 -4 30.167 -12 40.5s-20.333 15.5 -37 15.5c-29.333 0 -60.166 -16.333 -92.499 -49s-59.333 -71.667 -81 -117s-32.5 -84.333 -32.5 -117c0 -26 9 -39 27 -39c26.667 0 58 21.167 94 63.5s74.667 93.833 116 154.5c8.66699 -1.33301 17.5 -4.16602 26.5 -8.49902
s13.5 -9.83301 13.5 -16.5c0 -5.33301 -3.16699 -13.833 -9.5 -25.5s-10.166 -18.5 -11.499 -20.5c-11.333 -19.333 -20.333 -36.5 -27 -51.5s-10 -28.833 -10 -41.5c0 -11.333 2.83301 -21.5 8.5 -30.5s14.167 -13.5 25.5 -13.5c19.333 0 43.666 13.833 72.999 41.5
s58.333 66.5 87 116.5l10 -10c-14 -35.333 -32 -66.833 -54 -94.5s-45.667 -49.167 -71 -64.5s-49.666 -23 -72.999 -23s-41.166 6.83301 -53.499 20.5s-18.5 30.167 -18.5 49.5c0 8.66699 1 18.334 3 29.001c-30 -40 -56.833 -69.333 -80.5 -88s-47.167 -28 -70.5 -28
c-22 0 -39.833 7.16699 -53.5 21.5zM360.999 447.998c-11.333 13.333 -26 28.668 -44 46.001c-22.667 -8 -42 -16.333 -58 -25s-31 -19.334 -45 -32.001c-6.66699 4 -10 10.333 -10 19c0 12 7.33301 24.833 22 38.5s31.334 25.334 50.001 35.001s32.667 14.5 42 14.5
c10.667 0 23.167 -6.33301 37.5 -19s26.666 -27.667 36.999 -45s15.5 -33 15.5 -47c0 -14.667 -5.66699 -25 -17 -31c-8.66699 17.333 -18.667 32.666 -30 45.999z" />
    <glyph glyph-name="atilde" unicode="&#xe3;" horiz-adv-x="436" 
d="M-5.5 -25.5c-13.667 14.333 -20.501 34.8311 -20.501 61.498c0 39.333 14.167 83.333 42.5 132s64.166 90 107.499 124s85.666 51 126.999 51c26 0 47.667 -7 65 -21s26 -32 26 -54c0 -15.333 -4.33301 -26.333 -13 -33s-20.667 -10 -36 -10c3.33301 12 5 23.667 5 35
c0 16.667 -4 30.167 -12 40.5s-20.333 15.5 -37 15.5c-29.333 0 -60.166 -16.333 -92.499 -49s-59.333 -71.667 -81 -117s-32.5 -84.333 -32.5 -117c0 -26 9 -39 27 -39c26.667 0 58 21.167 94 63.5s74.667 93.833 116 154.5c8.66699 -1.33301 17.5 -4.16602 26.5 -8.49902
s13.5 -9.83301 13.5 -16.5c0 -5.33301 -3.16699 -13.833 -9.5 -25.5s-10.166 -18.5 -11.499 -20.5c-11.333 -19.333 -20.333 -36.5 -27 -51.5s-10 -28.833 -10 -41.5c0 -11.333 2.83301 -21.5 8.5 -30.5s14.167 -13.5 25.5 -13.5c19.333 0 43.666 13.833 72.999 41.5
s58.333 66.5 87 116.5l10 -10c-14 -35.333 -32 -66.833 -54 -94.5s-45.667 -49.167 -71 -64.5s-49.666 -23 -72.999 -23s-41.166 6.83301 -53.499 20.5s-18.5 30.167 -18.5 49.5c0 8.66699 1 18.334 3 29.001c-30 -40 -56.833 -69.333 -80.5 -88s-47.167 -28 -70.5 -28
c-22 0 -39.833 7.16699 -53.5 21.5zM352.499 407.498c-12.333 3.66699 -27.834 9.16699 -46.501 16.5c-19.333 8 -36 14 -50 18s-28 6 -42 6c-20.667 0 -38.667 -5 -54 -15c24 33.333 53 50 87 50c12 0 24.333 -1.83301 37 -5.5s27.667 -9.16699 45 -16.5
c26 -9.33301 46.333 -16 61 -20s30.334 -6 47.001 -6c10.667 0 22 2.66699 34 8c-22 -27.333 -49.333 -41 -82 -41c-12 0 -24.167 1.83301 -36.5 5.5z" />
    <glyph glyph-name="adieresis" unicode="&#xe4;" horiz-adv-x="436" 
d="M-5.5 -25.5c-13.667 14.333 -20.501 34.8311 -20.501 61.498c0 39.333 14.167 83.333 42.5 132s64.166 90 107.499 124s85.666 51 126.999 51c26 0 47.667 -7 65 -21s26 -32 26 -54c0 -15.333 -4.33301 -26.333 -13 -33s-20.667 -10 -36 -10c3.33301 12 5 23.667 5 35
c0 16.667 -4 30.167 -12 40.5s-20.333 15.5 -37 15.5c-29.333 0 -60.166 -16.333 -92.499 -49s-59.333 -71.667 -81 -117s-32.5 -84.333 -32.5 -117c0 -26 9 -39 27 -39c26.667 0 58 21.167 94 63.5s74.667 93.833 116 154.5c8.66699 -1.33301 17.5 -4.16602 26.5 -8.49902
s13.5 -9.83301 13.5 -16.5c0 -5.33301 -3.16699 -13.833 -9.5 -25.5s-10.166 -18.5 -11.499 -20.5c-11.333 -19.333 -20.333 -36.5 -27 -51.5s-10 -28.833 -10 -41.5c0 -11.333 2.83301 -21.5 8.5 -30.5s14.167 -13.5 25.5 -13.5c19.333 0 43.666 13.833 72.999 41.5
s58.333 66.5 87 116.5l10 -10c-14 -35.333 -32 -66.833 -54 -94.5s-45.667 -49.167 -71 -64.5s-49.666 -23 -72.999 -23s-41.166 6.83301 -53.499 20.5s-18.5 30.167 -18.5 49.5c0 8.66699 1 18.334 3 29.001c-30 -40 -56.833 -69.333 -80.5 -88s-47.167 -28 -70.5 -28
c-22 0 -39.833 7.16699 -53.5 21.5zM194.499 443.498c-7 5 -10.499 12.5 -10.499 22.5c0 12 7.16699 22.833 21.5 32.5s29.166 14.5 44.499 14.5c20 0 30 -9.33301 30 -28c0 -11.333 -6.16699 -22.333 -18.5 -33s-25.833 -16 -40.5 -16c-10.667 0 -19.5 2.5 -26.5 7.5z
M338.5 422.498c-7 5 -10.499 12.5 -10.499 22.5c0 12 7.16699 22.833 21.5 32.5s29.166 14.5 44.499 14.5c20 0 30 -9.33301 30 -28c0 -11.333 -6.16699 -22.333 -18.5 -33s-25.833 -16 -40.5 -16c-10.667 0 -19.5 2.5 -26.5 7.5z" />
    <glyph glyph-name="aring" unicode="&#xe5;" horiz-adv-x="436" 
d="M-5.5 -25.5c-13.667 14.333 -20.501 34.8311 -20.501 61.498c0 39.333 14.167 83.333 42.5 132s64.166 90 107.499 124s85.666 51 126.999 51c26 0 47.667 -7 65 -21s26 -32 26 -54c0 -15.333 -4.33301 -26.333 -13 -33s-20.667 -10 -36 -10c3.33301 12 5 23.667 5 35
c0 16.667 -4 30.167 -12 40.5s-20.333 15.5 -37 15.5c-29.333 0 -60.166 -16.333 -92.499 -49s-59.333 -71.667 -81 -117s-32.5 -84.333 -32.5 -117c0 -26 9 -39 27 -39c26.667 0 58 21.167 94 63.5s74.667 93.833 116 154.5c8.66699 -1.33301 17.5 -4.16602 26.5 -8.49902
s13.5 -9.83301 13.5 -16.5c0 -5.33301 -3.16699 -13.833 -9.5 -25.5s-10.166 -18.5 -11.499 -20.5c-11.333 -19.333 -20.333 -36.5 -27 -51.5s-10 -28.833 -10 -41.5c0 -11.333 2.83301 -21.5 8.5 -30.5s14.167 -13.5 25.5 -13.5c19.333 0 43.666 13.833 72.999 41.5
s58.333 66.5 87 116.5l10 -10c-14 -35.333 -32 -66.833 -54 -94.5s-45.667 -49.167 -71 -64.5s-49.666 -23 -72.999 -23s-41.166 6.83301 -53.499 20.5s-18.5 30.167 -18.5 49.5c0 8.66699 1 18.334 3 29.001c-30 -40 -56.833 -69.333 -80.5 -88s-47.167 -28 -70.5 -28
c-22 0 -39.833 7.16699 -53.5 21.5zM243.499 411.998c-11.667 10 -17.498 23 -17.498 39s5.5 32.833 16.5 50.5s26 32.334 45 44.001s39.167 17.5 60.5 17.5c26 0 45.167 -5 57.5 -15s18.5 -23 18.5 -39s-5.83301 -32.833 -17.5 -50.5s-27.334 -32.334 -47.001 -44.001
s-40.167 -17.5 -61.5 -17.5c-24.667 0 -42.834 5 -54.501 15zM344.501 430.998c12.333 9.33301 22.501 20.834 30.501 34.501s12 26.167 12 37.5c0 10 -3.83301 18.667 -11.5 26s-18.5 11 -32.5 11c-12.667 0 -25 -4.33301 -37 -13s-21.833 -19.334 -29.5 -32.001
s-11.5 -25 -11.5 -37c0 -10 3.66699 -19.333 11 -28s17.666 -13 30.999 -13c12.667 0 25.167 4.66699 37.5 14z" />
    <glyph glyph-name="ae" unicode="&#xe6;" horiz-adv-x="543" 
d="M-5.5 -25.5c-13.667 14.333 -20.499 34.833 -20.499 61.5c0 39.333 14.167 83.333 42.5 132s64.166 90 107.499 124s85.666 51 126.999 51c36 0 59 -14 69 -42c44.667 39.333 88.334 59 131.001 59c41.333 0 62 -20.333 62 -61c0 -32.667 -12.333 -63.167 -37 -91.5
s-56.334 -51.5 -95.001 -69.5s-77.334 -29 -116.001 -33c-2.66699 -11.333 -4 -23.333 -4 -36c0 -24 6 -44 18 -60s32.333 -24 61 -24c40.667 0 81.667 17 123 51s75 76 101 126l12 -9c-26.667 -59.333 -63.667 -107 -111 -143s-96 -54 -146 -54
c-38 0 -67.5 10.167 -88.5 30.5s-32.167 46.833 -33.5 79.5c-29.333 -38.667 -55.666 -67.167 -78.999 -85.5s-46.666 -27.5 -69.999 -27.5c-22 0 -39.833 7.16699 -53.5 21.5zM358.001 166c30.667 18 56.832 39.167 78.499 63.5s32.5 49.833 32.5 76.5
c0 8 -1.5 13.833 -4.5 17.5s-8.5 5.5 -16.5 5.5c-20.667 0 -43.167 -10.333 -67.5 -31s-46.666 -47 -66.999 -79s-34.833 -63.667 -43.5 -95c28 10 57.333 24 88 42zM198.999 99c4.66699 29.333 15.667 60 33 92s38.666 61 63.999 87c-6 25.333 -21.667 38 -47 38
c-29.333 0 -60.166 -16.333 -92.499 -49s-59.333 -71.667 -81 -117s-32.5 -84.333 -32.5 -117c0 -26 9 -39 27 -39c31.333 0 74.333 35 129 105z" />
    <glyph glyph-name="ccedilla" unicode="&#xe7;" horiz-adv-x="323" 
d="M305 -99c0 -18.667 -5.49805 -36.6641 -16.498 -53.9971s-25.5 -31.333 -43.5 -42s-37 -16 -57 -16c-18.667 0 -33.5 3.5 -44.5 10.5s-16.5 15.5 -16.5 25.5c0 11.333 7.33301 22.333 22 33c3.33301 -15.333 8.83301 -26.666 16.5 -33.999s16.167 -11 25.5 -11
c12 0 24.5 4.66699 37.5 14s23.833 21 32.5 35s13 26.667 13 38c0 6 -1.33301 11.667 -4 17s-7 8 -13 8c-7.33301 0 -15.333 -2.33301 -24 -7s-20 -11.334 -34 -20.001c-2.66699 -1.33301 -7.16699 -4 -13.5 -8s-10.833 -6 -13.5 -6c-4 0 -7.33301 2 -10 6s-4 8 -4 12
c0 1.33301 5.5 10 16.5 26s22.833 31.667 35.5 47c-34 -20.667 -68.333 -31 -103 -31c-33.333 0 -60.333 11 -81 33s-31 53.667 -31 95c0 43.333 11 85.666 33 126.999s50.167 74.833 84.5 100.5s68.166 38.5 101.499 38.5c25.333 0 43.5 -7.16699 54.5 -21.5
s16.5 -31.833 16.5 -52.5c0 -20 -4.5 -37.167 -13.5 -51.5s-21.167 -21.5 -36.5 -21.5c-11.333 0 -21 5 -29 15c10 4.66699 18.667 15.167 26 31.5s11 32.166 11 47.499c0 8.66699 -1.66699 15 -5 19s-9 6 -17 6c-22.667 0 -46.834 -13.5 -72.501 -40.5
s-47.334 -59.833 -65.001 -98.5s-26.5 -74 -26.5 -106c0 -24 5.66699 -43.833 17 -59.5s30 -23.5 56 -23.5c40.667 0 80.834 16.667 120.501 50s70.167 77 91.5 131l13 -10c-24 -62 -60.333 -113.333 -109 -154l-53 -80c10 7.33301 20.167 13.166 30.5 17.499
s22.5 6.5 36.5 6.5c30 0 45 -14 45 -42z" />
    <glyph glyph-name="egrave" unicode="&#xe8;" horiz-adv-x="333" 
d="M17.5 -11.5c-21 21.667 -31.498 49.501 -31.498 83.501c0 39.333 13 81.666 39 126.999s58.833 83.5 98.5 114.5s78.5 46.5 116.5 46.5c41.333 0 62 -20.333 62 -61c0 -32.667 -12.333 -63.167 -37 -91.5s-56.334 -51.5 -95.001 -69.5s-77.334 -29 -116.001 -33
c-2.66699 -11.333 -4 -23.333 -4 -36c0 -24 6 -44 18 -60s32.333 -24 61 -24c40.667 0 81.667 17 123 51s75 76 101 126l12 -9c-26.667 -59.333 -63.667 -107 -111 -143s-96 -54 -146 -54c-39.333 0 -69.5 10.833 -90.5 32.5zM147.002 166.001
c30.667 18 56.832 39.167 78.499 63.5s32.5 49.833 32.5 76.5c0 8 -1.5 13.833 -4.5 17.5s-8.5 5.5 -16.5 5.5c-20.667 0 -43.167 -10.333 -67.5 -31s-46.666 -47 -66.999 -79s-34.833 -63.667 -43.5 -95c28 10 57.333 24 88 42zM182 534.001
c2 20.667 9.33301 30.999 22 30.999c12 0 26.167 -8 42.5 -24s30.666 -34.167 42.999 -54.5s18.5 -34.5 18.5 -42.5c0 -4 -1.16699 -8.83301 -3.5 -14.5s-5.83301 -9.5 -10.5 -11.5c-25.333 34.667 -62.666 73.334 -111.999 116.001z" />
    <glyph glyph-name="eacute" unicode="&#xe9;" horiz-adv-x="333" 
d="M17.5 -11.5c-21 21.667 -31.498 49.501 -31.498 83.501c0 39.333 13 81.666 39 126.999s58.833 83.5 98.5 114.5s78.5 46.5 116.5 46.5c41.333 0 62 -20.333 62 -61c0 -32.667 -12.333 -63.167 -37 -91.5s-56.334 -51.5 -95.001 -69.5s-77.334 -29 -116.001 -33
c-2.66699 -11.333 -4 -23.333 -4 -36c0 -24 6 -44 18 -60s32.333 -24 61 -24c40.667 0 81.667 17 123 51s75 76 101 126l12 -9c-26.667 -59.333 -63.667 -107 -111 -143s-96 -54 -146 -54c-39.333 0 -69.5 10.833 -90.5 32.5zM147.002 166.001
c30.667 18 56.832 39.167 78.499 63.5s32.5 49.833 32.5 76.5c0 8 -1.5 13.833 -4.5 17.5s-8.5 5.5 -16.5 5.5c-20.667 0 -43.167 -10.333 -67.5 -31s-46.666 -47 -66.999 -79s-34.833 -63.667 -43.5 -95c28 10 57.333 24 88 42zM252.5 429.501
c-2.33301 5.66699 -3.5 10.501 -3.5 14.501c0 8 6.16699 22.167 18.5 42.5s26.666 38.5 42.999 54.5s30.5 24 42.5 24c12.667 0 20 -10.333 22 -31c-49.333 -42.667 -86.666 -81.334 -111.999 -116.001c-4.66699 2 -8.16699 5.83301 -10.5 11.5z" />
    <glyph glyph-name="ecircumflex" unicode="&#xea;" horiz-adv-x="333" 
d="M17.5 -11.5c-21 21.667 -31.498 49.501 -31.498 83.501c0 39.333 13 81.666 39 126.999s58.833 83.5 98.5 114.5s78.5 46.5 116.5 46.5c41.333 0 62 -20.333 62 -61c0 -32.667 -12.333 -63.167 -37 -91.5s-56.334 -51.5 -95.001 -69.5s-77.334 -29 -116.001 -33
c-2.66699 -11.333 -4 -23.333 -4 -36c0 -24 6 -44 18 -60s32.333 -24 61 -24c40.667 0 81.667 17 123 51s75 76 101 126l12 -9c-26.667 -59.333 -63.667 -107 -111 -143s-96 -54 -146 -54c-39.333 0 -69.5 10.833 -90.5 32.5zM147.002 166.001
c30.667 18 56.832 39.167 78.499 63.5s32.5 49.833 32.5 76.5c0 8 -1.5 13.833 -4.5 17.5s-8.5 5.5 -16.5 5.5c-20.667 0 -43.167 -10.333 -67.5 -31s-46.666 -47 -66.999 -79s-34.833 -63.667 -43.5 -95c28 10 57.333 24 88 42zM330 456.001
c-11.333 13.333 -26 28.668 -44 46.001c-22.667 -8 -42 -16.333 -58 -25s-31 -19.334 -45 -32.001c-6.66699 4 -10 10.333 -10 19c0 12 7.33301 24.833 22 38.5s31.334 25.334 50.001 35.001s32.667 14.5 42 14.5c10.667 0 23.167 -6.33301 37.5 -19
s26.666 -27.667 36.999 -45s15.5 -33 15.5 -47c0 -14.667 -5.66699 -25 -17 -31c-8.66699 17.333 -18.667 32.666 -30 45.999z" />
    <glyph glyph-name="edieresis" unicode="&#xeb;" horiz-adv-x="333" 
d="M17.5 -11.5c-21 21.667 -31.498 49.501 -31.498 83.501c0 39.333 13 81.666 39 126.999s58.833 83.5 98.5 114.5s78.5 46.5 116.5 46.5c41.333 0 62 -20.333 62 -61c0 -32.667 -12.333 -63.167 -37 -91.5s-56.334 -51.5 -95.001 -69.5s-77.334 -29 -116.001 -33
c-2.66699 -11.333 -4 -23.333 -4 -36c0 -24 6 -44 18 -60s32.333 -24 61 -24c40.667 0 81.667 17 123 51s75 76 101 126l12 -9c-26.667 -59.333 -63.667 -107 -111 -143s-96 -54 -146 -54c-39.333 0 -69.5 10.833 -90.5 32.5zM147.002 166.001
c30.667 18 56.832 39.167 78.499 63.5s32.5 49.833 32.5 76.5c0 8 -1.5 13.833 -4.5 17.5s-8.5 5.5 -16.5 5.5c-20.667 0 -43.167 -10.333 -67.5 -31s-46.666 -47 -66.999 -79s-34.833 -63.667 -43.5 -95c28 10 57.333 24 88 42zM163.5 451.501
c-7 5 -10.499 12.5 -10.499 22.5c0 12 7.16699 22.833 21.5 32.5s29.166 14.5 44.499 14.5c20 0 30 -9.33301 30 -28c0 -11.333 -6.16699 -22.333 -18.5 -33s-25.833 -16 -40.5 -16c-10.667 0 -19.5 2.5 -26.5 7.5zM307.501 430.501c-7 5 -10.499 12.5 -10.499 22.5
c0 12 7.16699 22.833 21.5 32.5s29.166 14.5 44.499 14.5c20 0 30 -9.33301 30 -28c0 -11.333 -6.16699 -22.333 -18.5 -33s-25.833 -16 -40.5 -16c-10.667 0 -19.5 2.5 -26.5 7.5z" />
    <glyph glyph-name="igrave" unicode="&#xec;" horiz-adv-x="241" 
d="M15 -2.5c-13.333 15.667 -19.999 35.8311 -19.999 60.498c0 26 7.5 62 22.5 108s33.667 86.333 56 121s44.166 52 65.499 52c6 0 11.167 -2 15.5 -6s6.5 -9.33301 6.5 -16c0 -9.33301 -10.667 -31.666 -32 -66.999c-22 -36.667 -39.5 -69.5 -52.5 -98.5
s-19.5 -56.5 -19.5 -82.5c0 -23.333 3.83301 -39.166 11.5 -47.499s20.167 -12.5 37.5 -12.5c52 0 103.333 51 154 153l9 -10c-18.667 -56 -46.167 -99.667 -82.5 -131s-74.5 -47 -114.5 -47c-24.667 0 -43.667 7.83301 -57 23.5zM90.001 526.997
c2 20.667 9.33301 30.999 22 30.999c12 0 26.167 -8 42.5 -24s30.666 -34.167 42.999 -54.5s18.5 -34.5 18.5 -42.5c0 -4 -1.16699 -8.83301 -3.5 -14.5s-5.83301 -9.5 -10.5 -11.5c-25.333 34.667 -62.666 73.334 -111.999 116.001z" />
    <glyph glyph-name="iacute" unicode="&#xed;" horiz-adv-x="241" 
d="M15 -2.5c-13.333 15.667 -19.999 35.8311 -19.999 60.498c0 26 7.5 62 22.5 108s33.667 86.333 56 121s44.166 52 65.499 52c6 0 11.167 -2 15.5 -6s6.5 -9.33301 6.5 -16c0 -9.33301 -10.667 -31.666 -32 -66.999c-22 -36.667 -39.5 -69.5 -52.5 -98.5
s-19.5 -56.5 -19.5 -82.5c0 -23.333 3.83301 -39.166 11.5 -47.499s20.167 -12.5 37.5 -12.5c52 0 103.333 51 154 153l9 -10c-18.667 -56 -46.167 -99.667 -82.5 -131s-74.5 -47 -114.5 -47c-24.667 0 -43.667 7.83301 -57 23.5zM167.501 422.497
c-2.33301 5.66699 -3.5 10.501 -3.5 14.501c0 8 6.16699 22.167 18.5 42.5s26.666 38.5 42.999 54.5s30.5 24 42.5 24c12.667 0 20 -10.333 22 -31c-49.333 -42.667 -86.666 -81.334 -111.999 -116.001c-4.66699 2 -8.16699 5.83301 -10.5 11.5z" />
    <glyph glyph-name="icircumflex" unicode="&#xee;" horiz-adv-x="240" 
d="M15 -2.5c-13.333 15.667 -19.999 35.8311 -19.999 60.498c0 26 7.5 62 22.5 108s33.667 86.333 56 121s44.166 52 65.499 52c6 0 11.167 -2 15.5 -6s6.5 -9.33301 6.5 -16c0 -9.33301 -10.667 -31.666 -32 -66.999c-22 -36.667 -39.5 -69.5 -52.5 -98.5
s-19.5 -56.5 -19.5 -82.5c0 -23.333 3.83301 -39.166 11.5 -47.499s20.167 -12.5 37.5 -12.5c52 0 103.333 51 154 153l9 -10c-18.667 -56 -46.167 -99.667 -82.5 -131s-74.5 -47 -114.5 -47c-24.667 0 -43.667 7.83301 -57 23.5zM256.001 448.997
c-11.333 13.333 -26 28.668 -44 46.001c-22.667 -8 -42 -16.333 -58 -25s-31 -19.334 -45 -32.001c-6.66699 4 -10 10.333 -10 19c0 12 7.33301 24.833 22 38.5s31.334 25.334 50.001 35.001s32.667 14.5 42 14.5c10.667 0 23.167 -6.33301 37.5 -19
s26.666 -27.667 36.999 -45s15.5 -33 15.5 -47c0 -14.667 -5.66699 -25 -17 -31c-8.66699 17.333 -18.667 32.666 -30 45.999z" />
    <glyph glyph-name="idieresis" unicode="&#xef;" horiz-adv-x="242" 
d="M15 -2.5c-13.333 15.667 -19.999 35.8311 -19.999 60.498c0 26 7.5 62 22.5 108s33.667 86.333 56 121s44.166 52 65.499 52c6 0 11.167 -2 15.5 -6s6.5 -9.33301 6.5 -16c0 -9.33301 -10.667 -31.666 -32 -66.999c-22 -36.667 -39.5 -69.5 -52.5 -98.5
s-19.5 -56.5 -19.5 -82.5c0 -23.333 3.83301 -39.166 11.5 -47.499s20.167 -12.5 37.5 -12.5c52 0 103.333 51 154 153l9 -10c-18.667 -56 -46.167 -99.667 -82.5 -131s-74.5 -47 -114.5 -47c-24.667 0 -43.667 7.83301 -57 23.5zM70.501 444.497
c-7 5 -10.499 12.5 -10.499 22.5c0 12 7.16699 22.833 21.5 32.5s29.166 14.5 44.499 14.5c20 0 30 -9.33301 30 -28c0 -11.333 -6.16699 -22.333 -18.5 -33s-25.833 -16 -40.5 -16c-10.667 0 -19.5 2.5 -26.5 7.5zM214.502 423.497c-7 5 -10.499 12.5 -10.499 22.5
c0 12 7.16699 22.833 21.5 32.5s29.166 14.5 44.499 14.5c20 0 30 -9.33301 30 -28c0 -11.333 -6.16699 -22.333 -18.5 -33s-25.833 -16 -40.5 -16c-10.667 0 -19.5 2.5 -26.5 7.5z" />
    <glyph glyph-name="eth" unicode="&#xf0;" horiz-adv-x="473" 
d="M7 -8.5c-15.333 14.333 -23.002 35.1709 -23.002 62.5039c0 36.667 14 79.5 42 128.5s63 90.833 105 125.5s82.667 52 122 52c29.333 0 44 -10.333 44 -31c0 -2.66699 -0.666992 -7.33398 -2 -14.001c-6.66699 10 -19.334 15 -38.001 15
c-33.333 0 -65.666 -15.833 -96.999 -47.5s-56.833 -68.834 -76.5 -111.501s-29.5 -77.667 -29.5 -105c0 -14.667 3.16699 -26.334 9.5 -35.001s15.166 -13 26.499 -13c19.333 0 42.333 12.5 69 37.5s53.334 58.667 80.001 101s49.334 87.833 68.001 136.5
c30 78 45 143.333 45 196c0 15.333 -1.33301 29.666 -4 42.999c-17.333 -2.66699 -37.5 -6.16699 -60.5 -10.5s-41.167 -8.5 -54.5 -12.5c0 18 9 30.667 27 38s45 13.666 81 18.999c-14 50.667 -43 95.334 -87 134.001c10 12.667 23 19 39 19c28 0 52.333 -14 73 -42
s36 -62.333 46 -103c16.667 1.33301 34.167 3 52.5 5s31.166 4.33301 38.499 7c-10 -16 -20.333 -26.5 -31 -31.5s-28.667 -9.16699 -54 -12.5c2.66699 -15.333 4 -31 4 -47c0 -31.333 -5.16699 -65.5 -15.5 -102.5s-25.166 -83.167 -44.499 -138.5
c-17.333 -48.667 -30.333 -87.834 -39 -117.501s-13 -56.167 -13 -79.5c0 -14 2.16699 -24.667 6.5 -32s11.5 -11 21.5 -11c14 0 30.5 6.16699 49.5 18.5s37.833 29.666 56.5 51.999s34.667 48.166 48 77.499l12 -9c-12.667 -33.333 -30 -63.666 -52 -90.999
s-45.5 -48.833 -70.5 -64.5s-48.833 -23.5 -71.5 -23.5s-39.334 7.33301 -50.001 22s-16 32.334 -16 53.001c0 22.667 6.33301 58.334 19 107.001c-34 -56 -69.167 -101 -105.5 -135s-69.166 -51 -98.499 -51c-19.333 0 -36.666 7.16699 -51.999 21.5z" />
    <glyph glyph-name="ntilde" unicode="&#xf1;" horiz-adv-x="466" 
d="M271 -2.5c-12 11.667 -18.0049 27.1699 -18.0049 46.5029c0 8.66699 1.5 18.834 4.5 30.501s6.16699 23.167 9.5 34.5c4 12 7.5 24.667 10.5 38s4.5 25.333 4.5 36c0 32.667 -13.333 49 -40 49c-25.333 0 -51.833 -13.333 -79.5 -40s-52.334 -56.334 -74.001 -89.001
s-46.167 -72 -73.5 -118c-11.333 0 -21.666 1.83301 -30.999 5.5s-16.666 9.16699 -21.999 16.5c0 3.33301 4.33301 15.333 13 36c16.667 42.667 30.334 81.5 41.001 116.5s16.334 66.167 17.001 93.5c4.66699 5.33301 11.334 10.166 20.001 14.499s17.334 6.5 26.001 6.5
c18 0 27 -8.66699 27 -26c0 -10 -3 -27.5 -9 -52.5s-13.667 -51.5 -23 -79.5c32 49.333 66 91 102 125s71.333 51 106 51c24.667 0 43.167 -8.83301 55.5 -26.5s18.5 -38.834 18.5 -63.501c0 -14.667 -1.83301 -28.667 -5.5 -42s-9.16699 -28.666 -16.5 -45.999
c-6 -14.667 -10.667 -27.334 -14 -38.001s-5 -21.334 -5 -32.001c0 -25.333 10 -38 30 -38c22.667 0 46.167 15 70.5 45s47.5 67 69.5 111l11 -13c-48 -112.667 -105.667 -169 -173 -169c-22.667 0 -40 5.83301 -52 17.5zM317.495 361.503
c-12.333 3.66699 -27.834 9.16699 -46.501 16.5c-19.333 8 -36 14 -50 18s-28 6 -42 6c-20.667 0 -38.667 -5 -54 -15c24 33.333 53 50 87 50c12 0 24.333 -1.83301 37 -5.5s27.667 -9.16699 45 -16.5c26 -9.33301 46.333 -16 61 -20s30.334 -6 47.001 -6
c10.667 0 22 2.66699 34 8c-22 -27.333 -49.333 -41 -82 -41c-12 0 -24.167 1.83301 -36.5 5.5z" />
    </font>
</defs>
</svg>
